G04*
G04 #@! TF.GenerationSoftware,Altium Limited,Altium Designer,24.6.1 (21)*
G04*
G04 Layer_Color=8388736*
%FSLAX44Y44*%
%MOMM*%
G71*
G04*
G04 #@! TF.SameCoordinates,FCEFD5D0-3CA7-4FD4-9723-0F7116719AAB*
G04*
G04*
G04 #@! TF.FilePolarity,Negative*
G04*
G01*
G75*
%ADD15R,1.7000X0.9500*%
%ADD16R,1.2032X0.6532*%
%ADD17R,0.9561X1.6098*%
%ADD18R,1.3952X1.3952*%
%ADD19C,1.3952*%
%ADD20C,12.9032*%
%ADD21C,5.2832*%
%ADD22R,2.1532X2.1532*%
%ADD23C,2.1532*%
%ADD24C,2.2032*%
%ADD25C,2.4892*%
%ADD26O,3.2032X2.6032*%
%ADD27C,1.4732*%
D15*
X394970Y1211550D02*
D03*
Y1239550D02*
D03*
X365760Y1211550D02*
D03*
Y1239550D02*
D03*
D16*
X485800Y1235860D02*
D03*
Y1229360D02*
D03*
Y1222860D02*
D03*
X504800D02*
D03*
Y1229360D02*
D03*
Y1235860D02*
D03*
D17*
X430219Y1244600D02*
D03*
X456241D02*
D03*
D18*
X759740Y1069970D02*
D03*
D19*
X745130Y1084580D02*
D03*
Y1105240D02*
D03*
X780400Y1119850D02*
D03*
X795020Y1105240D02*
D03*
Y1084580D02*
D03*
D20*
X542290Y1096010D02*
D03*
D21*
X812800Y1234440D02*
D03*
X811530Y955040D02*
D03*
D22*
X376390Y974490D02*
D03*
D23*
Y1024490D02*
D03*
X276390Y999490D02*
D03*
D24*
X326390D02*
D03*
D25*
X835660Y1010920D02*
D03*
X836930Y1182370D02*
D03*
D26*
X292100Y1243330D02*
D03*
Y1208330D02*
D03*
Y1160780D02*
D03*
Y1125780D02*
D03*
D27*
X466090Y1205900D02*
D03*
X485140Y1249680D02*
D03*
M02*
