G04*
G04 #@! TF.GenerationSoftware,Altium Limited,Altium Designer,24.6.1 (21)*
G04*
G04 Layer_Color=32896*
%FSLAX44Y44*%
%MOMM*%
G71*
G04*
G04 #@! TF.SameCoordinates,FCEFD5D0-3CA7-4FD4-9723-0F7116719AAB*
G04*
G04*
G04 #@! TF.FilePolarity,Positive*
G04*
G01*
G75*
%ADD11C,0.2000*%
%ADD13C,0.2540*%
%ADD14C,0.1270*%
%ADD47C,0.2500*%
%ADD48C,0.4000*%
G36*
X761703Y1255037D02*
X761880D01*
Y1254948D01*
X761969D01*
Y1254859D01*
X762058D01*
Y1254770D01*
X762147D01*
Y1254681D01*
X762235D01*
Y1254504D01*
X762324D01*
Y1253083D01*
X762235D01*
Y1252906D01*
X762147D01*
Y1252817D01*
X762058D01*
Y1252728D01*
X761969D01*
Y1252639D01*
X761880D01*
Y1252550D01*
X761703D01*
Y1252462D01*
X760282D01*
Y1252550D01*
X760104D01*
Y1252639D01*
X760015D01*
Y1252728D01*
X759927D01*
Y1252817D01*
X759838D01*
Y1252906D01*
X759749D01*
Y1253083D01*
X759660D01*
Y1254504D01*
X759749D01*
Y1254681D01*
X759838D01*
Y1254770D01*
X759927D01*
Y1254859D01*
X760015D01*
Y1254948D01*
X760104D01*
Y1255037D01*
X760282D01*
Y1255126D01*
X761703D01*
Y1255037D01*
D02*
G37*
G36*
X743055D02*
X743233D01*
Y1254948D01*
X743322D01*
Y1254859D01*
X743410D01*
Y1254770D01*
X743499D01*
Y1254681D01*
X743588D01*
Y1254504D01*
X743677D01*
Y1253083D01*
X743588D01*
Y1252906D01*
X743499D01*
Y1252817D01*
X743410D01*
Y1252728D01*
X743322D01*
Y1252639D01*
X743233D01*
Y1252550D01*
X743055D01*
Y1252462D01*
X741635D01*
Y1252550D01*
X741457D01*
Y1252639D01*
X741368D01*
Y1252728D01*
X741279D01*
Y1252817D01*
X741191D01*
Y1252906D01*
X741102D01*
Y1253083D01*
X741013D01*
Y1254504D01*
X741102D01*
Y1254681D01*
X741191D01*
Y1254770D01*
X741279D01*
Y1254859D01*
X741368D01*
Y1254948D01*
X741457D01*
Y1255037D01*
X741635D01*
Y1255126D01*
X743055D01*
Y1255037D01*
D02*
G37*
G36*
X737728D02*
X737905D01*
Y1254948D01*
X737994D01*
Y1254859D01*
X738083D01*
Y1254770D01*
X738171D01*
Y1254681D01*
X738260D01*
Y1254504D01*
X738349D01*
Y1253083D01*
X738260D01*
Y1252906D01*
X738171D01*
Y1252817D01*
X738083D01*
Y1252728D01*
X737994D01*
Y1252639D01*
X737905D01*
Y1252550D01*
X737728D01*
Y1252462D01*
X736307D01*
Y1252550D01*
X736129D01*
Y1252639D01*
X736040D01*
Y1252728D01*
X735952D01*
Y1252817D01*
X735863D01*
Y1252906D01*
X735774D01*
Y1253083D01*
X735685D01*
Y1254504D01*
X735774D01*
Y1254681D01*
X735863D01*
Y1254770D01*
X735952D01*
Y1254859D01*
X736040D01*
Y1254948D01*
X736129D01*
Y1255037D01*
X736307D01*
Y1255126D01*
X737728D01*
Y1255037D01*
D02*
G37*
G36*
X732400D02*
X732577D01*
Y1254948D01*
X732666D01*
Y1254859D01*
X732755D01*
Y1254770D01*
X732844D01*
Y1254681D01*
X732933D01*
Y1254504D01*
X733021D01*
Y1253083D01*
X732933D01*
Y1252906D01*
X732844D01*
Y1252817D01*
X732755D01*
Y1252728D01*
X732666D01*
Y1252639D01*
X732577D01*
Y1252550D01*
X732400D01*
Y1252462D01*
X730979D01*
Y1252550D01*
X730801D01*
Y1252639D01*
X730713D01*
Y1252728D01*
X730624D01*
Y1252817D01*
X730535D01*
Y1252906D01*
X730446D01*
Y1253083D01*
X730357D01*
Y1254504D01*
X730446D01*
Y1254593D01*
Y1254681D01*
X730535D01*
Y1254770D01*
X730624D01*
Y1254859D01*
X730713D01*
Y1254948D01*
X730801D01*
Y1255037D01*
X730979D01*
Y1255126D01*
X732400D01*
Y1255037D01*
D02*
G37*
G36*
X719080D02*
X719258D01*
Y1254948D01*
X719347D01*
Y1254859D01*
X719435D01*
Y1254770D01*
X719524D01*
Y1254681D01*
X719613D01*
Y1254504D01*
X719702D01*
Y1253083D01*
X719613D01*
Y1252994D01*
Y1252906D01*
X719524D01*
Y1252817D01*
X719435D01*
Y1252728D01*
X719347D01*
Y1252639D01*
X719258D01*
Y1252550D01*
X719080D01*
Y1252462D01*
X717659D01*
Y1252550D01*
X717482D01*
Y1252639D01*
X717393D01*
Y1252728D01*
X717304D01*
Y1252817D01*
X717215D01*
Y1252906D01*
X717127D01*
Y1253083D01*
X717038D01*
Y1254504D01*
X717127D01*
Y1254681D01*
X717215D01*
Y1254770D01*
X717304D01*
Y1254859D01*
X717393D01*
Y1254948D01*
X717482D01*
Y1255037D01*
X717659D01*
Y1255126D01*
X719080D01*
Y1255037D01*
D02*
G37*
G36*
X713752D02*
X713930D01*
Y1254948D01*
X714019D01*
Y1254859D01*
X714108D01*
Y1254770D01*
X714196D01*
Y1254681D01*
X714285D01*
Y1254504D01*
X714374D01*
Y1253083D01*
X714285D01*
Y1252906D01*
X714196D01*
Y1252817D01*
X714108D01*
Y1252728D01*
X714019D01*
Y1252639D01*
X713930D01*
Y1252550D01*
X713752D01*
Y1252462D01*
X712332D01*
Y1252550D01*
X712154D01*
Y1252639D01*
X712065D01*
Y1252728D01*
X711976D01*
Y1252817D01*
X711888D01*
Y1252906D01*
X711799D01*
Y1253083D01*
X711710D01*
Y1254504D01*
X711799D01*
Y1254681D01*
X711888D01*
Y1254770D01*
X711976D01*
Y1254859D01*
X712065D01*
Y1254948D01*
X712154D01*
Y1255037D01*
X712332D01*
Y1255126D01*
X713752D01*
Y1255037D01*
D02*
G37*
G36*
X708425D02*
X708602D01*
Y1254948D01*
X708691D01*
Y1254859D01*
X708780D01*
Y1254770D01*
X708869D01*
Y1254681D01*
X708957D01*
Y1254504D01*
X709046D01*
Y1253083D01*
X708957D01*
Y1252906D01*
X708869D01*
Y1252817D01*
X708780D01*
Y1252728D01*
X708691D01*
Y1252639D01*
X708602D01*
Y1252550D01*
X708425D01*
Y1252462D01*
X707004D01*
Y1252550D01*
X706826D01*
Y1252639D01*
X706737D01*
Y1252728D01*
X706649D01*
Y1252817D01*
X706560D01*
Y1252906D01*
X706471D01*
Y1253083D01*
X706382D01*
Y1253705D01*
Y1253794D01*
Y1254504D01*
X706471D01*
Y1254681D01*
X706560D01*
Y1254770D01*
X706649D01*
Y1254859D01*
X706737D01*
Y1254948D01*
X706826D01*
Y1255037D01*
X707004D01*
Y1255126D01*
X708425D01*
Y1255037D01*
D02*
G37*
G36*
X735064Y1252373D02*
X735241D01*
Y1252284D01*
X735330D01*
Y1252195D01*
X735419D01*
Y1252106D01*
X735508D01*
Y1252018D01*
X735596D01*
Y1251840D01*
X735685D01*
Y1250419D01*
X735596D01*
Y1250242D01*
X735508D01*
Y1250153D01*
X735419D01*
Y1250064D01*
X735330D01*
Y1249975D01*
X735241D01*
Y1249886D01*
X735064D01*
Y1249798D01*
X733643D01*
Y1249886D01*
X733465D01*
Y1249975D01*
X733376D01*
Y1250064D01*
X733288D01*
Y1250153D01*
X733199D01*
Y1250242D01*
X733110D01*
Y1250419D01*
X733021D01*
Y1251840D01*
X733110D01*
Y1252018D01*
X733199D01*
Y1252106D01*
X733288D01*
Y1252195D01*
X733376D01*
Y1252284D01*
X733465D01*
Y1252373D01*
X733643D01*
Y1252462D01*
X735064D01*
Y1252373D01*
D02*
G37*
G36*
X777686Y1249709D02*
X777864D01*
Y1249620D01*
X777952D01*
Y1249531D01*
X778041D01*
Y1249443D01*
X778130D01*
Y1249354D01*
X778219D01*
Y1249176D01*
X778308D01*
Y1247755D01*
X778219D01*
Y1247578D01*
X778130D01*
Y1247489D01*
X778041D01*
Y1247400D01*
X777952D01*
Y1247311D01*
X777864D01*
Y1247223D01*
X777686D01*
Y1247134D01*
X776265D01*
Y1247223D01*
X776088D01*
Y1247311D01*
X775999D01*
Y1247400D01*
X775910D01*
Y1247489D01*
X775821D01*
Y1247578D01*
X775732D01*
Y1247755D01*
X775644D01*
Y1249176D01*
X775732D01*
Y1249354D01*
X775821D01*
Y1249443D01*
X775910D01*
Y1249531D01*
X775999D01*
Y1249620D01*
X776088D01*
Y1249709D01*
X776265D01*
Y1249798D01*
X777686D01*
Y1249709D01*
D02*
G37*
G36*
X753711Y1255037D02*
X753888D01*
Y1254948D01*
X753977D01*
Y1254859D01*
X754066D01*
Y1254770D01*
X754155D01*
Y1254681D01*
X754244D01*
Y1254504D01*
X754333D01*
Y1253083D01*
X754244D01*
Y1252906D01*
X754155D01*
Y1252817D01*
X754066D01*
Y1252728D01*
X753977D01*
Y1252639D01*
X753888D01*
Y1252550D01*
X753711D01*
Y1252462D01*
X751669D01*
Y1249798D01*
X759039D01*
Y1249709D01*
X759216D01*
Y1249620D01*
X759305D01*
Y1249531D01*
X759394D01*
Y1249443D01*
X759483D01*
Y1249354D01*
X759572D01*
Y1249176D01*
X759660D01*
Y1247755D01*
X759572D01*
Y1247578D01*
X759483D01*
Y1247489D01*
X759394D01*
Y1247400D01*
X759305D01*
Y1247311D01*
X759216D01*
Y1247223D01*
X759039D01*
Y1247134D01*
X749626D01*
Y1247223D01*
X749449D01*
Y1247311D01*
X749360D01*
Y1247400D01*
X749271D01*
Y1247489D01*
X749182D01*
Y1247578D01*
X749093D01*
Y1247755D01*
X749005D01*
Y1252462D01*
X746962D01*
Y1252550D01*
X746785D01*
Y1252639D01*
X746696D01*
Y1252728D01*
X746607D01*
Y1252817D01*
X746518D01*
Y1252906D01*
X746430D01*
Y1253083D01*
X746341D01*
Y1254504D01*
X746430D01*
Y1254681D01*
X746518D01*
Y1254770D01*
X746607D01*
Y1254859D01*
X746696D01*
Y1254948D01*
X746785D01*
Y1255037D01*
X746962D01*
Y1255126D01*
X753711D01*
Y1255037D01*
D02*
G37*
G36*
X729736Y1252373D02*
X729913D01*
Y1252284D01*
X730002D01*
Y1252195D01*
X730091D01*
Y1252106D01*
X730180D01*
Y1252018D01*
X730269D01*
Y1251840D01*
X730357D01*
Y1247755D01*
X730269D01*
Y1247578D01*
X730180D01*
Y1247489D01*
X730091D01*
Y1247400D01*
X730002D01*
Y1247311D01*
X729913D01*
Y1247223D01*
X729736D01*
Y1247134D01*
X720323D01*
Y1247223D01*
X720146D01*
Y1247311D01*
X720057D01*
Y1247400D01*
X719968D01*
Y1247489D01*
X719879D01*
Y1247578D01*
X719791D01*
Y1247755D01*
X719702D01*
Y1249176D01*
X719791D01*
Y1249354D01*
X719879D01*
Y1249443D01*
X719968D01*
Y1249531D01*
X720057D01*
Y1249620D01*
X720146D01*
Y1249709D01*
X720323D01*
Y1249798D01*
X722366D01*
Y1251840D01*
X722455D01*
Y1252018D01*
X722543D01*
Y1252106D01*
X722632D01*
Y1252195D01*
X722721D01*
Y1252284D01*
X722810D01*
Y1252373D01*
X722987D01*
Y1252462D01*
X729736D01*
Y1252373D01*
D02*
G37*
G36*
X748383Y1247045D02*
X748561D01*
Y1246956D01*
X748650D01*
Y1246867D01*
X748738D01*
Y1246779D01*
X748827D01*
Y1246690D01*
X748916D01*
Y1246512D01*
X749005D01*
Y1245091D01*
X748916D01*
Y1244914D01*
X748827D01*
Y1244825D01*
X748738D01*
Y1244736D01*
X748650D01*
Y1244648D01*
X748561D01*
Y1244559D01*
X748383D01*
Y1244470D01*
X746962D01*
Y1244559D01*
X746785D01*
Y1244648D01*
X746696D01*
Y1244736D01*
X746607D01*
Y1244825D01*
X746518D01*
Y1244914D01*
X746430D01*
Y1245003D01*
Y1245091D01*
X746341D01*
Y1246512D01*
X746430D01*
Y1246690D01*
X746518D01*
Y1246779D01*
X746607D01*
Y1246867D01*
X746696D01*
Y1246956D01*
X746785D01*
Y1247045D01*
X746962D01*
Y1247134D01*
X748383D01*
Y1247045D01*
D02*
G37*
G36*
X745719Y1252373D02*
X745897D01*
Y1252284D01*
X745986D01*
Y1252195D01*
X746074D01*
Y1252106D01*
X746163D01*
Y1252018D01*
X746252D01*
Y1251840D01*
X746341D01*
Y1247755D01*
X746252D01*
Y1247578D01*
X746163D01*
Y1247489D01*
X746074D01*
Y1247400D01*
X745986D01*
Y1247311D01*
X745897D01*
Y1247223D01*
X745719D01*
Y1247134D01*
X741013D01*
Y1245091D01*
X740924D01*
Y1244914D01*
X740835D01*
Y1244825D01*
X740747D01*
Y1244736D01*
X740658D01*
Y1244648D01*
X740569D01*
Y1244559D01*
X740391D01*
Y1244470D01*
X738971D01*
Y1244559D01*
X738793D01*
Y1244648D01*
X738704D01*
Y1244736D01*
X738615D01*
Y1244825D01*
X738527D01*
Y1244914D01*
X738438D01*
Y1245091D01*
X738349D01*
Y1249176D01*
X738438D01*
Y1249354D01*
X738527D01*
Y1249443D01*
X738615D01*
Y1249531D01*
X738704D01*
Y1249620D01*
X738793D01*
Y1249709D01*
X738971D01*
Y1249798D01*
X743677D01*
Y1251840D01*
X743766D01*
Y1252018D01*
X743855D01*
Y1252106D01*
X743943D01*
Y1252195D01*
X744032D01*
Y1252284D01*
X744121D01*
Y1252373D01*
X744298D01*
Y1252462D01*
X745719D01*
Y1252373D01*
D02*
G37*
G36*
X732400Y1247045D02*
X732577D01*
Y1246956D01*
X732666D01*
Y1246867D01*
X732755D01*
Y1246779D01*
X732844D01*
Y1246690D01*
X732933D01*
Y1246512D01*
X733021D01*
Y1245091D01*
X732933D01*
Y1244914D01*
X732844D01*
Y1244825D01*
X732755D01*
Y1244736D01*
X732666D01*
Y1244648D01*
X732577D01*
Y1244559D01*
X732400D01*
Y1244470D01*
X730979D01*
Y1244559D01*
X730801D01*
Y1244648D01*
X730713D01*
Y1244736D01*
X730624D01*
Y1244825D01*
X730535D01*
Y1244914D01*
X730446D01*
Y1245091D01*
X730357D01*
Y1246512D01*
X730446D01*
Y1246690D01*
X730535D01*
Y1246779D01*
X730624D01*
Y1246867D01*
X730713D01*
Y1246956D01*
X730801D01*
Y1247045D01*
X730979D01*
Y1247134D01*
X732400D01*
Y1247045D01*
D02*
G37*
G36*
X719080D02*
X719258D01*
Y1246956D01*
X719347D01*
Y1246867D01*
X719435D01*
Y1246779D01*
X719524D01*
Y1246690D01*
X719613D01*
Y1246512D01*
X719702D01*
Y1245091D01*
X719613D01*
Y1244914D01*
X719524D01*
Y1244825D01*
X719435D01*
Y1244736D01*
X719347D01*
Y1244648D01*
X719258D01*
Y1244559D01*
X719080D01*
Y1244470D01*
X717659D01*
Y1244559D01*
X717482D01*
Y1244648D01*
X717393D01*
Y1244736D01*
X717304D01*
Y1244825D01*
X717215D01*
Y1244914D01*
X717127D01*
Y1245091D01*
X717038D01*
Y1246512D01*
X717127D01*
Y1246690D01*
X717215D01*
Y1246779D01*
X717304D01*
Y1246867D01*
X717393D01*
Y1246956D01*
X717482D01*
Y1247045D01*
X717659D01*
Y1247134D01*
X719080D01*
Y1247045D01*
D02*
G37*
G36*
X713752D02*
X713930D01*
Y1246956D01*
X714019D01*
Y1246867D01*
X714108D01*
Y1246779D01*
X714196D01*
Y1246690D01*
X714285D01*
Y1246512D01*
X714374D01*
Y1245091D01*
X714285D01*
Y1244914D01*
X714196D01*
Y1244825D01*
X714108D01*
Y1244736D01*
X714019D01*
Y1244648D01*
X713930D01*
Y1244559D01*
X713752D01*
Y1244470D01*
X712332D01*
Y1244559D01*
X712154D01*
Y1244648D01*
X712065D01*
Y1244736D01*
X711976D01*
Y1244825D01*
X711888D01*
Y1244914D01*
X711799D01*
Y1245091D01*
X711710D01*
Y1246512D01*
X711799D01*
Y1246690D01*
X711888D01*
Y1246779D01*
X711976D01*
Y1246867D01*
X712065D01*
Y1246956D01*
X712154D01*
Y1247045D01*
X712332D01*
Y1247134D01*
X713752D01*
Y1247045D01*
D02*
G37*
G36*
X708425Y1249709D02*
X708602D01*
Y1249620D01*
X708691D01*
Y1249531D01*
X708780D01*
Y1249443D01*
X708869D01*
Y1249354D01*
X708957D01*
Y1249176D01*
X709046D01*
Y1245091D01*
X708957D01*
Y1244914D01*
X708869D01*
Y1244825D01*
X708780D01*
Y1244736D01*
X708691D01*
Y1244648D01*
X708602D01*
Y1244559D01*
X708425D01*
Y1244470D01*
X704340D01*
Y1244559D01*
X704162D01*
Y1244648D01*
X704073D01*
Y1244736D01*
X703985D01*
Y1244825D01*
X703896D01*
Y1244914D01*
X703807D01*
Y1245091D01*
X703718D01*
Y1245180D01*
Y1249176D01*
X703807D01*
Y1249354D01*
X703896D01*
Y1249443D01*
X703985D01*
Y1249531D01*
X704073D01*
Y1249620D01*
X704162D01*
Y1249709D01*
X704340D01*
Y1249798D01*
X708425D01*
Y1249709D01*
D02*
G37*
G36*
X780350Y1244381D02*
X780527D01*
Y1244292D01*
X780616D01*
Y1244203D01*
X780705D01*
Y1244115D01*
X780794D01*
Y1244026D01*
X780883D01*
Y1243848D01*
X780972D01*
Y1242428D01*
X780883D01*
Y1242250D01*
X780794D01*
Y1242161D01*
X780705D01*
Y1242072D01*
X780616D01*
Y1241984D01*
X780527D01*
Y1241895D01*
X780350D01*
Y1241806D01*
X778929D01*
Y1241895D01*
X778752D01*
Y1241984D01*
X778663D01*
Y1242072D01*
X778574D01*
Y1242161D01*
X778485D01*
Y1242250D01*
X778396D01*
Y1242428D01*
X778308D01*
Y1242960D01*
Y1243049D01*
Y1243848D01*
X778396D01*
Y1244026D01*
X778485D01*
Y1244115D01*
X778574D01*
Y1244203D01*
X778663D01*
Y1244292D01*
X778752D01*
Y1244381D01*
X778929D01*
Y1244470D01*
X780350D01*
Y1244381D01*
D02*
G37*
G36*
Y1255037D02*
X780527D01*
Y1254948D01*
X780616D01*
Y1254859D01*
X780705D01*
Y1254770D01*
X780794D01*
Y1254681D01*
X780883D01*
Y1254504D01*
X780972D01*
Y1253083D01*
X780883D01*
Y1252906D01*
X780794D01*
Y1252817D01*
X780705D01*
Y1252728D01*
X780616D01*
Y1252639D01*
X780527D01*
Y1252550D01*
X780350D01*
Y1252462D01*
X775644D01*
Y1250419D01*
X775555D01*
Y1250242D01*
X775466D01*
Y1250153D01*
X775377D01*
Y1250064D01*
X775288D01*
Y1249975D01*
X775200D01*
Y1249886D01*
X775022D01*
Y1249798D01*
X772980D01*
Y1247755D01*
X772891D01*
Y1247578D01*
X772802D01*
Y1247489D01*
X772713D01*
Y1247400D01*
X772625D01*
Y1247311D01*
X772536D01*
Y1247223D01*
X772358D01*
Y1247134D01*
X770316D01*
Y1244470D01*
X772358D01*
Y1244381D01*
X772536D01*
Y1244292D01*
X772625D01*
Y1244203D01*
X772713D01*
Y1244115D01*
X772802D01*
Y1244026D01*
X772891D01*
Y1243848D01*
X772980D01*
Y1236478D01*
X775644D01*
Y1238521D01*
X775732D01*
Y1238698D01*
X775821D01*
Y1238787D01*
X775910D01*
Y1238876D01*
X775999D01*
Y1238964D01*
X776088D01*
Y1239053D01*
X776265D01*
Y1239142D01*
X780350D01*
Y1239053D01*
X780527D01*
Y1238964D01*
X780616D01*
Y1238876D01*
X780705D01*
Y1238787D01*
X780794D01*
Y1238698D01*
X780883D01*
Y1238521D01*
X780972D01*
Y1229108D01*
X780883D01*
Y1228931D01*
X780794D01*
Y1228842D01*
X780705D01*
Y1228753D01*
X780616D01*
Y1228664D01*
X780527D01*
Y1228575D01*
X780350D01*
Y1228486D01*
X778929D01*
Y1228575D01*
X778752D01*
Y1228664D01*
X778663D01*
Y1228753D01*
X778574D01*
Y1228842D01*
X778485D01*
Y1228931D01*
X778396D01*
Y1229108D01*
X778308D01*
Y1233814D01*
X772980D01*
Y1231772D01*
X772891D01*
Y1231594D01*
X772802D01*
Y1231506D01*
X772713D01*
Y1231417D01*
X772625D01*
Y1231328D01*
X772536D01*
Y1231239D01*
X772358D01*
Y1231150D01*
X770316D01*
Y1225823D01*
X772358D01*
Y1225734D01*
X772536D01*
Y1225645D01*
X772625D01*
Y1225556D01*
X772713D01*
Y1225467D01*
X772802D01*
Y1225379D01*
X772891D01*
Y1225201D01*
X772980D01*
Y1223780D01*
X772891D01*
Y1223603D01*
X772802D01*
Y1223514D01*
X772713D01*
Y1223425D01*
X772625D01*
Y1223336D01*
X772536D01*
Y1223248D01*
X772358D01*
Y1223159D01*
X770316D01*
Y1221116D01*
X770227D01*
Y1220939D01*
X770138D01*
Y1220850D01*
X770050D01*
Y1220761D01*
X769961D01*
Y1220672D01*
X769872D01*
Y1220584D01*
X769694D01*
Y1220495D01*
X768274D01*
Y1220584D01*
X768096D01*
Y1220672D01*
X768007D01*
Y1220761D01*
X767918D01*
Y1220850D01*
X767830D01*
Y1220939D01*
X767741D01*
Y1221116D01*
X767652D01*
Y1223159D01*
X764988D01*
Y1221116D01*
X764899D01*
Y1220939D01*
X764810D01*
Y1220850D01*
X764722D01*
Y1220761D01*
X764633D01*
Y1220672D01*
X764544D01*
Y1220584D01*
X764367D01*
Y1220495D01*
X762324D01*
Y1217831D01*
X764367D01*
Y1217742D01*
X764544D01*
Y1217653D01*
X764633D01*
Y1217564D01*
X764722D01*
Y1217476D01*
X764810D01*
Y1217387D01*
X764899D01*
Y1217209D01*
X764988D01*
Y1215789D01*
X764899D01*
Y1215611D01*
X764810D01*
Y1215522D01*
X764722D01*
Y1215433D01*
X764633D01*
Y1215345D01*
X764544D01*
Y1215256D01*
X764367D01*
Y1215167D01*
X760282D01*
Y1215256D01*
X760104D01*
Y1215345D01*
X760015D01*
Y1215433D01*
X759927D01*
Y1215522D01*
X759838D01*
Y1215611D01*
X759749D01*
Y1215789D01*
X759660D01*
Y1217831D01*
X754333D01*
Y1212503D01*
X759039D01*
Y1212414D01*
X759216D01*
Y1212326D01*
X759305D01*
Y1212237D01*
X759394D01*
Y1212148D01*
X759483D01*
Y1212059D01*
X759572D01*
Y1211881D01*
X759660D01*
Y1209839D01*
X764367D01*
Y1209750D01*
X764544D01*
Y1209662D01*
X764633D01*
Y1209573D01*
X764722D01*
Y1209484D01*
X764810D01*
Y1209395D01*
X764899D01*
Y1209218D01*
X764988D01*
Y1207797D01*
X764899D01*
Y1207619D01*
X764810D01*
Y1207531D01*
X764722D01*
Y1207442D01*
X764633D01*
Y1207353D01*
X764544D01*
Y1207264D01*
X764367D01*
Y1207175D01*
X762324D01*
Y1205133D01*
X762235D01*
Y1204955D01*
X762147D01*
Y1204867D01*
X762058D01*
Y1204778D01*
X761969D01*
Y1204689D01*
X761880D01*
Y1204600D01*
X761703D01*
Y1204511D01*
X756996D01*
Y1202469D01*
X756908D01*
Y1202291D01*
X756819D01*
Y1202203D01*
X756730D01*
Y1202114D01*
X756641D01*
Y1202025D01*
X756552D01*
Y1201936D01*
X756375D01*
Y1201848D01*
X754954D01*
Y1201936D01*
X754777D01*
Y1202025D01*
X754688D01*
Y1202114D01*
X754599D01*
Y1202203D01*
X754510D01*
Y1202291D01*
X754421D01*
Y1202469D01*
X754333D01*
Y1207175D01*
X752290D01*
Y1207264D01*
X752113D01*
Y1207353D01*
X752024D01*
Y1207442D01*
X751935D01*
Y1207531D01*
X751846D01*
Y1207619D01*
X751757D01*
Y1207797D01*
X751669D01*
Y1212503D01*
X746962D01*
Y1212592D01*
X746785D01*
Y1212681D01*
X746696D01*
Y1212769D01*
X746607D01*
Y1212858D01*
X746518D01*
Y1212947D01*
X746430D01*
Y1213125D01*
X746341D01*
Y1217209D01*
X746430D01*
Y1217387D01*
X746518D01*
Y1217476D01*
X746607D01*
Y1217564D01*
X746696D01*
Y1217653D01*
X746785D01*
Y1217742D01*
X746962D01*
Y1217831D01*
X748383D01*
Y1217742D01*
X748561D01*
Y1217653D01*
X748650D01*
Y1217564D01*
X748738D01*
Y1217476D01*
X748827D01*
Y1217387D01*
X748916D01*
Y1217209D01*
X749005D01*
Y1215167D01*
X751669D01*
Y1217831D01*
X749626D01*
Y1217920D01*
X749449D01*
Y1218008D01*
X749360D01*
Y1218097D01*
X749271D01*
Y1218186D01*
X749182D01*
Y1218275D01*
X749093D01*
Y1218453D01*
X749005D01*
Y1220495D01*
X744298D01*
Y1220584D01*
X744121D01*
Y1220672D01*
X744032D01*
Y1220761D01*
X743943D01*
Y1220850D01*
X743855D01*
Y1220939D01*
X743766D01*
Y1221116D01*
X743677D01*
Y1230529D01*
X743766D01*
Y1230706D01*
X743855D01*
Y1230795D01*
X743943D01*
Y1230884D01*
X744032D01*
Y1230973D01*
X744121D01*
Y1231062D01*
X744298D01*
Y1231150D01*
X745719D01*
Y1231062D01*
X745897D01*
Y1230973D01*
X745986D01*
Y1230884D01*
X746074D01*
Y1230795D01*
X746163D01*
Y1230706D01*
X746252D01*
Y1230529D01*
X746341D01*
Y1225823D01*
X748383D01*
Y1225734D01*
X748561D01*
Y1225645D01*
X748650D01*
Y1225556D01*
X748738D01*
Y1225467D01*
X748827D01*
Y1225379D01*
X748916D01*
Y1225201D01*
X749005D01*
Y1223159D01*
X753711D01*
Y1223070D01*
X753888D01*
Y1222981D01*
X753977D01*
Y1222892D01*
X754066D01*
Y1222803D01*
X754155D01*
Y1222715D01*
X754244D01*
Y1222537D01*
X754333D01*
Y1220495D01*
X759660D01*
Y1223159D01*
X754954D01*
Y1223248D01*
X754777D01*
Y1223336D01*
X754688D01*
Y1223425D01*
X754599D01*
Y1223514D01*
X754510D01*
Y1223603D01*
X754421D01*
Y1223780D01*
X754333D01*
Y1225201D01*
X754421D01*
Y1225379D01*
X754510D01*
Y1225467D01*
X754599D01*
Y1225556D01*
X754688D01*
Y1225645D01*
X754777D01*
Y1225734D01*
X754954D01*
Y1225823D01*
X767652D01*
Y1228486D01*
X765610D01*
Y1228575D01*
X765432D01*
Y1228664D01*
X765343D01*
Y1228753D01*
X765255D01*
Y1228842D01*
X765166D01*
Y1228931D01*
X765077D01*
Y1229108D01*
X764988D01*
Y1231150D01*
X762324D01*
Y1229108D01*
X762235D01*
Y1228931D01*
X762147D01*
Y1228842D01*
X762058D01*
Y1228753D01*
X761969D01*
Y1228664D01*
X761880D01*
Y1228575D01*
X761703D01*
Y1228486D01*
X760282D01*
Y1228575D01*
X760104D01*
Y1228664D01*
X760015D01*
Y1228753D01*
X759927D01*
Y1228842D01*
X759838D01*
Y1228931D01*
X759749D01*
Y1229108D01*
X759660D01*
Y1231150D01*
X757618D01*
Y1231239D01*
X757440D01*
Y1231328D01*
X757352D01*
Y1231417D01*
X757263D01*
Y1231506D01*
X757174D01*
Y1231594D01*
X757085D01*
Y1231772D01*
X756996D01*
Y1236478D01*
X751669D01*
Y1231772D01*
X751580D01*
Y1231594D01*
X751491D01*
Y1231506D01*
X751402D01*
Y1231417D01*
X751313D01*
Y1231328D01*
X751225D01*
Y1231239D01*
X751047D01*
Y1231150D01*
X749626D01*
Y1231239D01*
X749449D01*
Y1231328D01*
X749360D01*
Y1231417D01*
X749271D01*
Y1231506D01*
X749182D01*
Y1231594D01*
X749093D01*
Y1231772D01*
X749005D01*
Y1233814D01*
X744298D01*
Y1233903D01*
X744121D01*
Y1233992D01*
X744032D01*
Y1234081D01*
X743943D01*
Y1234169D01*
X743855D01*
Y1234258D01*
X743766D01*
Y1234436D01*
X743677D01*
Y1235857D01*
X743766D01*
Y1236034D01*
X743855D01*
Y1236123D01*
X743943D01*
Y1236212D01*
X744032D01*
Y1236301D01*
X744121D01*
Y1236389D01*
X744298D01*
Y1236478D01*
X749005D01*
Y1238521D01*
X749093D01*
Y1238698D01*
X749182D01*
Y1238787D01*
X749271D01*
Y1238876D01*
X749360D01*
Y1238964D01*
X749449D01*
Y1239053D01*
X749626D01*
Y1239142D01*
X751669D01*
Y1243848D01*
X751757D01*
Y1244026D01*
X751846D01*
Y1244115D01*
X751935D01*
Y1244203D01*
X752024D01*
Y1244292D01*
X752113D01*
Y1244381D01*
X752290D01*
Y1244470D01*
X753711D01*
Y1244381D01*
X753888D01*
Y1244292D01*
X753977D01*
Y1244203D01*
X754066D01*
Y1244115D01*
X754155D01*
Y1244026D01*
X754244D01*
Y1243848D01*
X754333D01*
Y1241806D01*
X756996D01*
Y1243848D01*
X757085D01*
Y1244026D01*
X757174D01*
Y1244115D01*
X757263D01*
Y1244203D01*
X757352D01*
Y1244292D01*
X757440D01*
Y1244381D01*
X757618D01*
Y1244470D01*
X762324D01*
Y1249176D01*
X762413D01*
Y1249354D01*
X762502D01*
Y1249443D01*
X762591D01*
Y1249531D01*
X762679D01*
Y1249620D01*
X762768D01*
Y1249709D01*
X762946D01*
Y1249798D01*
X770316D01*
Y1252462D01*
X768274D01*
Y1252550D01*
X768096D01*
Y1252639D01*
X768007D01*
Y1252728D01*
X767918D01*
Y1252817D01*
X767830D01*
Y1252906D01*
X767741D01*
Y1253083D01*
X767652D01*
Y1254504D01*
X767741D01*
Y1254681D01*
X767830D01*
Y1254770D01*
X767918D01*
Y1254859D01*
X768007D01*
Y1254948D01*
X768096D01*
Y1255037D01*
X768274D01*
Y1255126D01*
X780350D01*
Y1255037D01*
D02*
G37*
G36*
X745719Y1244381D02*
X745897D01*
Y1244292D01*
X745986D01*
Y1244203D01*
X746074D01*
Y1244115D01*
X746163D01*
Y1244026D01*
X746252D01*
Y1243848D01*
X746341D01*
Y1243316D01*
Y1243227D01*
Y1242428D01*
X746252D01*
Y1242250D01*
X746163D01*
Y1242161D01*
X746074D01*
Y1242072D01*
X745986D01*
Y1241984D01*
X745897D01*
Y1241895D01*
X745719D01*
Y1241806D01*
X744298D01*
Y1241895D01*
X744121D01*
Y1241984D01*
X744032D01*
Y1242072D01*
X743943D01*
Y1242161D01*
X743855D01*
Y1242250D01*
X743766D01*
Y1242428D01*
X743677D01*
Y1243848D01*
X743766D01*
Y1244026D01*
X743855D01*
Y1244115D01*
X743943D01*
Y1244203D01*
X744032D01*
Y1244292D01*
X744121D01*
Y1244381D01*
X744298D01*
Y1244470D01*
X745719D01*
Y1244381D01*
D02*
G37*
G36*
X716416D02*
X716594D01*
Y1244292D01*
X716683D01*
Y1244203D01*
X716771D01*
Y1244115D01*
X716860D01*
Y1244026D01*
X716949D01*
Y1243848D01*
X717038D01*
Y1242428D01*
X716949D01*
Y1242250D01*
X716860D01*
Y1242161D01*
X716771D01*
Y1242072D01*
X716683D01*
Y1241984D01*
X716594D01*
Y1241895D01*
X716416D01*
Y1241806D01*
X714995D01*
Y1241895D01*
X714818D01*
Y1241984D01*
X714729D01*
Y1242072D01*
X714640D01*
Y1242161D01*
X714552D01*
Y1242250D01*
X714463D01*
Y1242428D01*
X714374D01*
Y1243848D01*
X714463D01*
Y1244026D01*
X714552D01*
Y1244115D01*
X714640D01*
Y1244203D01*
X714729D01*
Y1244292D01*
X714818D01*
Y1244381D01*
X714995D01*
Y1244470D01*
X716416D01*
Y1244381D01*
D02*
G37*
G36*
X748383Y1241717D02*
X748561D01*
Y1241628D01*
X748650D01*
Y1241540D01*
X748738D01*
Y1241451D01*
X748827D01*
Y1241362D01*
X748916D01*
Y1241184D01*
X749005D01*
Y1240385D01*
Y1240296D01*
Y1239764D01*
X748916D01*
Y1239586D01*
X748827D01*
Y1239497D01*
X748738D01*
Y1239408D01*
X748650D01*
Y1239320D01*
X748561D01*
Y1239231D01*
X748383D01*
Y1239142D01*
X746962D01*
Y1239231D01*
X746785D01*
Y1239320D01*
X746696D01*
Y1239408D01*
X746607D01*
Y1239497D01*
X746518D01*
Y1239586D01*
X746430D01*
Y1239764D01*
X746341D01*
Y1241184D01*
X746430D01*
Y1241362D01*
X746518D01*
Y1241451D01*
X746607D01*
Y1241540D01*
X746696D01*
Y1241628D01*
X746785D01*
Y1241717D01*
X746962D01*
Y1241806D01*
X748383D01*
Y1241717D01*
D02*
G37*
G36*
X743055D02*
X743233D01*
Y1241628D01*
X743322D01*
Y1241540D01*
X743410D01*
Y1241451D01*
X743499D01*
Y1241362D01*
X743588D01*
Y1241184D01*
X743677D01*
Y1239764D01*
Y1239675D01*
Y1237100D01*
X743588D01*
Y1236922D01*
X743499D01*
Y1236833D01*
X743410D01*
Y1236745D01*
X743322D01*
Y1236656D01*
X743233D01*
Y1236567D01*
X743055D01*
Y1236478D01*
X733643D01*
Y1236567D01*
X733465D01*
Y1236656D01*
X733376D01*
Y1236745D01*
X733288D01*
Y1236833D01*
X733199D01*
Y1236922D01*
X733110D01*
Y1237100D01*
X733021D01*
Y1238521D01*
X733110D01*
Y1238698D01*
X733199D01*
Y1238787D01*
X733288D01*
Y1238876D01*
X733376D01*
Y1238964D01*
X733465D01*
Y1239053D01*
X733643D01*
Y1239142D01*
X741013D01*
Y1241184D01*
X741102D01*
Y1241362D01*
X741191D01*
Y1241451D01*
X741279D01*
Y1241540D01*
X741368D01*
Y1241628D01*
X741457D01*
Y1241717D01*
X741635D01*
Y1241806D01*
X743055D01*
Y1241717D01*
D02*
G37*
G36*
X727072Y1244381D02*
X727250D01*
Y1244292D01*
X727338D01*
Y1244203D01*
X727427D01*
Y1244115D01*
X727516D01*
Y1244026D01*
X727605D01*
Y1243848D01*
X727693D01*
Y1237100D01*
X727605D01*
Y1236922D01*
X727516D01*
Y1236833D01*
X727427D01*
Y1236745D01*
X727338D01*
Y1236656D01*
X727250D01*
Y1236567D01*
X727072D01*
Y1236478D01*
X725651D01*
Y1236567D01*
X725474D01*
Y1236656D01*
X725385D01*
Y1236745D01*
X725296D01*
Y1236833D01*
X725207D01*
Y1236922D01*
X725118D01*
Y1237100D01*
X725030D01*
Y1239675D01*
Y1239764D01*
Y1241806D01*
X722987D01*
Y1241895D01*
X722810D01*
Y1241984D01*
X722721D01*
Y1242072D01*
X722632D01*
Y1242161D01*
X722543D01*
Y1242250D01*
X722455D01*
Y1242428D01*
X722366D01*
Y1243848D01*
X722455D01*
Y1244026D01*
X722543D01*
Y1244115D01*
X722632D01*
Y1244203D01*
X722721D01*
Y1244292D01*
X722810D01*
Y1244381D01*
X722987D01*
Y1244470D01*
X727072D01*
Y1244381D01*
D02*
G37*
G36*
X695460Y1255037D02*
X695993D01*
Y1254948D01*
X696348D01*
Y1254859D01*
X696615D01*
Y1254770D01*
X696881D01*
Y1254681D01*
X697147D01*
Y1254593D01*
X697325D01*
Y1254504D01*
X697503D01*
Y1254415D01*
X697680D01*
Y1254326D01*
X697858D01*
Y1254238D01*
X698035D01*
Y1254149D01*
X698124D01*
Y1254060D01*
X698302D01*
Y1253971D01*
X698391D01*
Y1253882D01*
X698568D01*
Y1253794D01*
X698657D01*
Y1253705D01*
X698746D01*
Y1253616D01*
X698835D01*
Y1253527D01*
X699012D01*
Y1253438D01*
X699101D01*
Y1253350D01*
X699190D01*
Y1253261D01*
X699278D01*
Y1253172D01*
X699367D01*
Y1253083D01*
X699456D01*
Y1252906D01*
X699545D01*
Y1252817D01*
X699634D01*
Y1252728D01*
X699723D01*
Y1252639D01*
X699811D01*
Y1252462D01*
X699900D01*
Y1252373D01*
X699989D01*
Y1252284D01*
X700078D01*
Y1252106D01*
X700166D01*
Y1251929D01*
X700255D01*
Y1251840D01*
X700344D01*
Y1251662D01*
X700433D01*
Y1251485D01*
X700522D01*
Y1251218D01*
X700611D01*
Y1251041D01*
X700699D01*
Y1250775D01*
X700788D01*
Y1250508D01*
X700877D01*
Y1250153D01*
X700966D01*
Y1249531D01*
X701055D01*
Y1236478D01*
X688090D01*
Y1236567D01*
X687469D01*
Y1236656D01*
X687113D01*
Y1236745D01*
X686847D01*
Y1236833D01*
X686581D01*
Y1236922D01*
X686314D01*
Y1237011D01*
X686137D01*
Y1237100D01*
X685959D01*
Y1237189D01*
X685781D01*
Y1237277D01*
X685604D01*
Y1237366D01*
X685426D01*
Y1237455D01*
X685337D01*
Y1237544D01*
X685160D01*
Y1237633D01*
X685071D01*
Y1237721D01*
X684893D01*
Y1237810D01*
X684805D01*
Y1237899D01*
X684716D01*
Y1237988D01*
X684627D01*
Y1238076D01*
X684449D01*
Y1238165D01*
X684361D01*
Y1238254D01*
X684272D01*
Y1238343D01*
X684183D01*
Y1238432D01*
X684094D01*
Y1238521D01*
X684006D01*
Y1238698D01*
X683917D01*
Y1238787D01*
X683828D01*
Y1238876D01*
X683739D01*
Y1238964D01*
X683650D01*
Y1239142D01*
X683561D01*
Y1239231D01*
X683473D01*
Y1239320D01*
X683384D01*
Y1239497D01*
X683295D01*
Y1239675D01*
X683206D01*
Y1239764D01*
X683118D01*
Y1239941D01*
X683029D01*
Y1240119D01*
X682940D01*
Y1240385D01*
X682851D01*
Y1240563D01*
X682762D01*
Y1240829D01*
X682673D01*
Y1241096D01*
X682585D01*
Y1241451D01*
X682496D01*
Y1242072D01*
X682407D01*
Y1249531D01*
X682496D01*
Y1250153D01*
X682585D01*
Y1250508D01*
X682673D01*
Y1250775D01*
X682762D01*
Y1251041D01*
X682851D01*
Y1251218D01*
X682940D01*
Y1251485D01*
X683029D01*
Y1251662D01*
X683118D01*
Y1251840D01*
X683206D01*
Y1251929D01*
X683295D01*
Y1252106D01*
X683384D01*
Y1252284D01*
X683473D01*
Y1252373D01*
X683561D01*
Y1252462D01*
X683650D01*
Y1252639D01*
X683739D01*
Y1252728D01*
X683828D01*
Y1252817D01*
X683917D01*
Y1252906D01*
X684006D01*
Y1253083D01*
X684094D01*
Y1253172D01*
X684183D01*
Y1253261D01*
X684272D01*
Y1253350D01*
X684361D01*
Y1253438D01*
X684449D01*
Y1253527D01*
X684627D01*
Y1253616D01*
X684716D01*
Y1253705D01*
X684805D01*
Y1253794D01*
X684893D01*
Y1253882D01*
X685071D01*
Y1253971D01*
X685160D01*
Y1254060D01*
X685337D01*
Y1254149D01*
X685426D01*
Y1254238D01*
X685604D01*
Y1254326D01*
X685781D01*
Y1254415D01*
X685959D01*
Y1254504D01*
X686137D01*
Y1254593D01*
X686314D01*
Y1254681D01*
X686581D01*
Y1254770D01*
X686758D01*
Y1254859D01*
X687113D01*
Y1254948D01*
X687469D01*
Y1255037D01*
X688001D01*
Y1255126D01*
X695460D01*
Y1255037D01*
D02*
G37*
G36*
X721744Y1239053D02*
X721922D01*
Y1238964D01*
X722010D01*
Y1238876D01*
X722099D01*
Y1238787D01*
X722188D01*
Y1238698D01*
X722277D01*
Y1238521D01*
X722366D01*
Y1236478D01*
X724408D01*
Y1236389D01*
X724586D01*
Y1236301D01*
X724674D01*
Y1236212D01*
X724763D01*
Y1236123D01*
X724852D01*
Y1236034D01*
X724941D01*
Y1235857D01*
X725030D01*
Y1235768D01*
Y1234436D01*
X724941D01*
Y1234258D01*
X724852D01*
Y1234169D01*
X724763D01*
Y1234081D01*
X724674D01*
Y1233992D01*
X724586D01*
Y1233903D01*
X724408D01*
Y1233814D01*
X717659D01*
Y1233903D01*
X717482D01*
Y1233992D01*
X717393D01*
Y1234081D01*
X717304D01*
Y1234169D01*
X717215D01*
Y1234258D01*
X717127D01*
Y1234436D01*
X717038D01*
Y1235857D01*
X717127D01*
Y1236034D01*
X717215D01*
Y1236123D01*
X717304D01*
Y1236212D01*
X717393D01*
Y1236301D01*
X717482D01*
Y1236389D01*
X717659D01*
Y1236478D01*
X719702D01*
Y1238521D01*
X719791D01*
Y1238698D01*
X719879D01*
Y1238787D01*
X719968D01*
Y1238876D01*
X720057D01*
Y1238964D01*
X720146D01*
Y1239053D01*
X720323D01*
Y1239142D01*
X721744D01*
Y1239053D01*
D02*
G37*
G36*
X700433Y1233726D02*
X700611D01*
Y1233637D01*
X700699D01*
Y1233548D01*
X700788D01*
Y1233459D01*
X700877D01*
Y1233370D01*
X700966D01*
Y1233193D01*
X701055D01*
Y1231772D01*
X700966D01*
Y1231594D01*
X700877D01*
Y1231506D01*
X700788D01*
Y1231417D01*
X700699D01*
Y1231328D01*
X700611D01*
Y1231239D01*
X700433D01*
Y1231150D01*
X699012D01*
Y1231239D01*
X698835D01*
Y1231328D01*
X698746D01*
Y1231417D01*
X698657D01*
Y1231506D01*
X698568D01*
Y1231594D01*
X698479D01*
Y1231772D01*
X698391D01*
Y1233193D01*
X698479D01*
Y1233370D01*
X698568D01*
Y1233459D01*
X698657D01*
Y1233548D01*
X698746D01*
Y1233637D01*
X698835D01*
Y1233726D01*
X699012D01*
Y1233814D01*
X700433D01*
Y1233726D01*
D02*
G37*
G36*
X689777Y1231062D02*
X689955D01*
Y1230973D01*
X690044D01*
Y1230884D01*
X690133D01*
Y1230795D01*
X690221D01*
Y1230706D01*
X690310D01*
Y1230529D01*
X690399D01*
Y1229108D01*
X690310D01*
Y1228931D01*
X690221D01*
Y1228842D01*
X690133D01*
Y1228753D01*
X690044D01*
Y1228664D01*
X689955D01*
Y1228575D01*
X689777D01*
Y1228486D01*
X688356D01*
Y1228575D01*
X688179D01*
Y1228664D01*
X688090D01*
Y1228753D01*
X688001D01*
Y1228842D01*
X687913D01*
Y1228931D01*
X687824D01*
Y1229108D01*
X687735D01*
Y1230529D01*
X687824D01*
Y1230706D01*
X687913D01*
Y1230795D01*
X688001D01*
Y1230884D01*
X688090D01*
Y1230973D01*
X688179D01*
Y1231062D01*
X688356D01*
Y1231150D01*
X689777D01*
Y1231062D01*
D02*
G37*
G36*
X684449D02*
X684627D01*
Y1230973D01*
X684716D01*
Y1230884D01*
X684805D01*
Y1230795D01*
X684893D01*
Y1230706D01*
X684982D01*
Y1230529D01*
X685071D01*
Y1229108D01*
X684982D01*
Y1228931D01*
X684893D01*
Y1228842D01*
X684805D01*
Y1228753D01*
X684716D01*
Y1228664D01*
X684627D01*
Y1228575D01*
X684449D01*
Y1228486D01*
X683029D01*
Y1228575D01*
X682851D01*
Y1228664D01*
X682762D01*
Y1228753D01*
X682673D01*
Y1228842D01*
X682585D01*
Y1228931D01*
X682496D01*
Y1229108D01*
X682407D01*
Y1229552D01*
Y1229641D01*
Y1230529D01*
X682496D01*
Y1230706D01*
X682585D01*
Y1230795D01*
X682673D01*
Y1230884D01*
X682762D01*
Y1230973D01*
X682851D01*
Y1231062D01*
X683029D01*
Y1231150D01*
X684449D01*
Y1231062D01*
D02*
G37*
G36*
X753711D02*
X753888D01*
Y1230973D01*
X753977D01*
Y1230884D01*
X754066D01*
Y1230795D01*
X754155D01*
Y1230706D01*
X754244D01*
Y1230529D01*
X754333D01*
Y1226444D01*
X754244D01*
Y1226267D01*
X754155D01*
Y1226178D01*
X754066D01*
Y1226089D01*
X753977D01*
Y1226000D01*
X753888D01*
Y1225911D01*
X753711D01*
Y1225823D01*
X752290D01*
Y1225911D01*
X752113D01*
Y1226000D01*
X752024D01*
Y1226089D01*
X751935D01*
Y1226178D01*
X751846D01*
Y1226267D01*
X751757D01*
Y1226444D01*
X751669D01*
Y1230529D01*
X751757D01*
Y1230706D01*
X751846D01*
Y1230795D01*
X751935D01*
Y1230884D01*
X752024D01*
Y1230973D01*
X752113D01*
Y1231062D01*
X752290D01*
Y1231150D01*
X753711D01*
Y1231062D01*
D02*
G37*
G36*
X740391Y1228398D02*
X740569D01*
Y1228309D01*
X740658D01*
Y1228220D01*
X740747D01*
Y1228131D01*
X740835D01*
Y1228043D01*
X740924D01*
Y1227865D01*
X741013D01*
Y1226444D01*
X740924D01*
Y1226355D01*
Y1226267D01*
X740835D01*
Y1226178D01*
X740747D01*
Y1226089D01*
X740658D01*
Y1226000D01*
X740569D01*
Y1225911D01*
X740391D01*
Y1225823D01*
X738971D01*
Y1225911D01*
X738793D01*
Y1226000D01*
X738704D01*
Y1226089D01*
X738615D01*
Y1226178D01*
X738527D01*
Y1226267D01*
X738438D01*
Y1226444D01*
X738349D01*
Y1227865D01*
X738438D01*
Y1228043D01*
X738527D01*
Y1228131D01*
X738615D01*
Y1228220D01*
X738704D01*
Y1228309D01*
X738793D01*
Y1228398D01*
X738971D01*
Y1228486D01*
X740391D01*
Y1228398D01*
D02*
G37*
G36*
X729736Y1236389D02*
X729913D01*
Y1236301D01*
X730002D01*
Y1236212D01*
X730091D01*
Y1236123D01*
X730180D01*
Y1236034D01*
X730269D01*
Y1235857D01*
X730357D01*
Y1233814D01*
X737728D01*
Y1233726D01*
X737905D01*
Y1233637D01*
X737994D01*
Y1233548D01*
X738083D01*
Y1233459D01*
X738171D01*
Y1233370D01*
X738260D01*
Y1233193D01*
X738349D01*
Y1230973D01*
Y1230884D01*
Y1229108D01*
X738260D01*
Y1228931D01*
X738171D01*
Y1228842D01*
X738083D01*
Y1228753D01*
X737994D01*
Y1228664D01*
X737905D01*
Y1228575D01*
X737728D01*
Y1228486D01*
X733021D01*
Y1226444D01*
X732933D01*
Y1226267D01*
X732844D01*
Y1226178D01*
X732755D01*
Y1226089D01*
X732666D01*
Y1226000D01*
X732577D01*
Y1225911D01*
X732400D01*
Y1225823D01*
X728315D01*
Y1225911D01*
X728138D01*
Y1226000D01*
X728049D01*
Y1226089D01*
X727960D01*
Y1226178D01*
X727871D01*
Y1226267D01*
X727782D01*
Y1226444D01*
X727693D01*
Y1228486D01*
X722987D01*
Y1228575D01*
X722810D01*
Y1228664D01*
X722721D01*
Y1228753D01*
X722632D01*
Y1228842D01*
X722543D01*
Y1228931D01*
X722455D01*
Y1229108D01*
X722366D01*
Y1230529D01*
X722455D01*
Y1230706D01*
X722543D01*
Y1230795D01*
X722632D01*
Y1230884D01*
X722721D01*
Y1230973D01*
X722810D01*
Y1231062D01*
X722987D01*
Y1231150D01*
X725030D01*
Y1233193D01*
X725118D01*
Y1233370D01*
X725207D01*
Y1233459D01*
X725296D01*
Y1233548D01*
X725385D01*
Y1233637D01*
X725474D01*
Y1233726D01*
X725651D01*
Y1233814D01*
X727693D01*
Y1235857D01*
X727782D01*
Y1236034D01*
X727871D01*
Y1236123D01*
X727960D01*
Y1236212D01*
X728049D01*
Y1236301D01*
X728138D01*
Y1236389D01*
X728315D01*
Y1236478D01*
X729736D01*
Y1236389D01*
D02*
G37*
G36*
X687113Y1228398D02*
X687291D01*
Y1228309D01*
X687380D01*
Y1228220D01*
X687469D01*
Y1228131D01*
X687557D01*
Y1228043D01*
X687646D01*
Y1227954D01*
Y1227865D01*
X687735D01*
Y1226444D01*
X687646D01*
Y1226267D01*
X687557D01*
Y1226178D01*
X687469D01*
Y1226089D01*
X687380D01*
Y1226000D01*
X687291D01*
Y1225911D01*
X687113D01*
Y1225823D01*
X685693D01*
Y1225911D01*
X685515D01*
Y1226000D01*
X685426D01*
Y1226089D01*
X685337D01*
Y1226178D01*
X685249D01*
Y1226267D01*
X685160D01*
Y1226444D01*
X685071D01*
Y1227865D01*
X685160D01*
Y1228043D01*
X685249D01*
Y1228131D01*
X685337D01*
Y1228220D01*
X685426D01*
Y1228309D01*
X685515D01*
Y1228398D01*
X685693D01*
Y1228486D01*
X687113D01*
Y1228398D01*
D02*
G37*
G36*
X777686D02*
X777864D01*
Y1228309D01*
X777952D01*
Y1228220D01*
X778041D01*
Y1228131D01*
X778130D01*
Y1228043D01*
X778219D01*
Y1227865D01*
X778308D01*
Y1225823D01*
X780350D01*
Y1225734D01*
X780527D01*
Y1225645D01*
X780616D01*
Y1225556D01*
X780705D01*
Y1225467D01*
X780794D01*
Y1225379D01*
X780883D01*
Y1225201D01*
X780972D01*
Y1223780D01*
X780883D01*
Y1223603D01*
X780794D01*
Y1223514D01*
X780705D01*
Y1223425D01*
X780616D01*
Y1223336D01*
X780527D01*
Y1223248D01*
X780350D01*
Y1223159D01*
X776265D01*
Y1223248D01*
X776088D01*
Y1223336D01*
X775999D01*
Y1223425D01*
X775910D01*
Y1223514D01*
X775821D01*
Y1223603D01*
X775732D01*
Y1223780D01*
X775644D01*
Y1225023D01*
Y1225112D01*
Y1225823D01*
X773601D01*
Y1225911D01*
X773424D01*
Y1226000D01*
X773335D01*
Y1226089D01*
X773246D01*
Y1226178D01*
X773157D01*
Y1226267D01*
X773069D01*
Y1226444D01*
X772980D01*
Y1227865D01*
X773069D01*
Y1228043D01*
X773157D01*
Y1228131D01*
X773246D01*
Y1228220D01*
X773335D01*
Y1228309D01*
X773424D01*
Y1228398D01*
X773601D01*
Y1228486D01*
X777686D01*
Y1228398D01*
D02*
G37*
G36*
X735064Y1225734D02*
X735241D01*
Y1225645D01*
X735330D01*
Y1225556D01*
X735419D01*
Y1225467D01*
X735508D01*
Y1225379D01*
X735596D01*
Y1225290D01*
Y1225201D01*
X735685D01*
Y1223780D01*
X735596D01*
Y1223603D01*
X735508D01*
Y1223514D01*
X735419D01*
Y1223425D01*
X735330D01*
Y1223336D01*
X735241D01*
Y1223248D01*
X735064D01*
Y1223159D01*
X733643D01*
Y1223248D01*
X733465D01*
Y1223336D01*
X733376D01*
Y1223425D01*
X733288D01*
Y1223514D01*
X733199D01*
Y1223603D01*
X733110D01*
Y1223780D01*
X733021D01*
Y1225201D01*
X733110D01*
Y1225379D01*
X733199D01*
Y1225467D01*
X733288D01*
Y1225556D01*
X733376D01*
Y1225645D01*
X733465D01*
Y1225734D01*
X733643D01*
Y1225823D01*
X735064D01*
Y1225734D01*
D02*
G37*
G36*
X711088Y1241717D02*
X711266D01*
Y1241628D01*
X711355D01*
Y1241540D01*
X711444D01*
Y1241451D01*
X711533D01*
Y1241362D01*
X711621D01*
Y1241184D01*
X711710D01*
Y1239142D01*
X716416D01*
Y1239053D01*
X716594D01*
Y1238964D01*
X716683D01*
Y1238876D01*
X716771D01*
Y1238787D01*
X716860D01*
Y1238698D01*
X716949D01*
Y1238521D01*
X717038D01*
Y1237100D01*
X716949D01*
Y1236922D01*
X716860D01*
Y1236833D01*
X716771D01*
Y1236745D01*
X716683D01*
Y1236656D01*
X716594D01*
Y1236567D01*
X716416D01*
Y1236478D01*
X714374D01*
Y1229108D01*
X714285D01*
Y1228931D01*
X714196D01*
Y1228842D01*
X714108D01*
Y1228753D01*
X714019D01*
Y1228664D01*
X713930D01*
Y1228575D01*
X713752D01*
Y1228486D01*
X711710D01*
Y1223780D01*
X711621D01*
Y1223603D01*
X711533D01*
Y1223514D01*
X711444D01*
Y1223425D01*
X711355D01*
Y1223336D01*
X711266D01*
Y1223248D01*
X711088D01*
Y1223159D01*
X709668D01*
Y1223248D01*
X709490D01*
Y1223336D01*
X709401D01*
Y1223425D01*
X709313D01*
Y1223514D01*
X709224D01*
Y1223603D01*
X709135D01*
Y1223780D01*
X709046D01*
Y1225823D01*
X704340D01*
Y1225911D01*
X704162D01*
Y1226000D01*
X704073D01*
Y1226089D01*
X703985D01*
Y1226178D01*
X703896D01*
Y1226267D01*
X703807D01*
Y1226355D01*
Y1226444D01*
X703718D01*
Y1230529D01*
X703807D01*
Y1230706D01*
X703896D01*
Y1230795D01*
X703985D01*
Y1230884D01*
X704073D01*
Y1230973D01*
X704162D01*
Y1231062D01*
X704340D01*
Y1231150D01*
X706382D01*
Y1233814D01*
X704340D01*
Y1233903D01*
X704162D01*
Y1233992D01*
X704073D01*
Y1234081D01*
X703985D01*
Y1234169D01*
X703896D01*
Y1234258D01*
X703807D01*
Y1234436D01*
X703718D01*
Y1238521D01*
X703807D01*
Y1238698D01*
X703896D01*
Y1238787D01*
X703985D01*
Y1238876D01*
X704073D01*
Y1238964D01*
X704162D01*
Y1239053D01*
X704340D01*
Y1239142D01*
X706382D01*
Y1241184D01*
X706471D01*
Y1241362D01*
X706560D01*
Y1241451D01*
X706649D01*
Y1241540D01*
X706737D01*
Y1241628D01*
X706826D01*
Y1241717D01*
X707004D01*
Y1241806D01*
X711088D01*
Y1241717D01*
D02*
G37*
G36*
X737728Y1223070D02*
X737905D01*
Y1222981D01*
X737994D01*
Y1222892D01*
X738083D01*
Y1222803D01*
X738171D01*
Y1222715D01*
X738260D01*
Y1222537D01*
X738349D01*
Y1221116D01*
X738260D01*
Y1220939D01*
X738171D01*
Y1220850D01*
X738083D01*
Y1220761D01*
X737994D01*
Y1220672D01*
X737905D01*
Y1220584D01*
X737728D01*
Y1220495D01*
X736307D01*
Y1220584D01*
X736129D01*
Y1220672D01*
X736040D01*
Y1220761D01*
X735952D01*
Y1220850D01*
X735863D01*
Y1220939D01*
X735774D01*
Y1221116D01*
X735685D01*
Y1222537D01*
X735774D01*
Y1222715D01*
X735863D01*
Y1222803D01*
X735952D01*
Y1222892D01*
X736040D01*
Y1222981D01*
X736129D01*
Y1223070D01*
X736307D01*
Y1223159D01*
X737728D01*
Y1223070D01*
D02*
G37*
G36*
X732400D02*
X732577D01*
Y1222981D01*
X732666D01*
Y1222892D01*
X732755D01*
Y1222803D01*
X732844D01*
Y1222715D01*
X732933D01*
Y1222537D01*
X733021D01*
Y1221116D01*
X732933D01*
Y1220939D01*
X732844D01*
Y1220850D01*
X732755D01*
Y1220761D01*
X732666D01*
Y1220672D01*
X732577D01*
Y1220584D01*
X732400D01*
Y1220495D01*
X730979D01*
Y1220584D01*
X730801D01*
Y1220672D01*
X730713D01*
Y1220761D01*
X730624D01*
Y1220850D01*
X730535D01*
Y1220939D01*
X730446D01*
Y1221116D01*
X730357D01*
Y1222537D01*
X730446D01*
Y1222715D01*
X730535D01*
Y1222803D01*
X730624D01*
Y1222892D01*
X730713D01*
Y1222981D01*
X730801D01*
Y1223070D01*
X730979D01*
Y1223159D01*
X732400D01*
Y1223070D01*
D02*
G37*
G36*
X724408D02*
X724586D01*
Y1222981D01*
X724674D01*
Y1222892D01*
X724763D01*
Y1222803D01*
X724852D01*
Y1222715D01*
X724941D01*
Y1222537D01*
X725030D01*
Y1221116D01*
X724941D01*
Y1220939D01*
X724852D01*
Y1220850D01*
X724763D01*
Y1220761D01*
X724674D01*
Y1220672D01*
X724586D01*
Y1220584D01*
X724408D01*
Y1220495D01*
X722987D01*
Y1220584D01*
X722810D01*
Y1220672D01*
X722721D01*
Y1220761D01*
X722632D01*
Y1220850D01*
X722543D01*
Y1220939D01*
X722455D01*
Y1221116D01*
X722366D01*
Y1222537D01*
X722455D01*
Y1222715D01*
X722543D01*
Y1222803D01*
X722632D01*
Y1222892D01*
X722721D01*
Y1222981D01*
X722810D01*
Y1223070D01*
X722987D01*
Y1223159D01*
X724408D01*
Y1223070D01*
D02*
G37*
G36*
X780350Y1220406D02*
X780527D01*
Y1220317D01*
X780616D01*
Y1220228D01*
X780705D01*
Y1220140D01*
X780794D01*
Y1220051D01*
X780883D01*
Y1219873D01*
X780972D01*
Y1218453D01*
X780883D01*
Y1218275D01*
X780794D01*
Y1218186D01*
X780705D01*
Y1218097D01*
X780616D01*
Y1218008D01*
X780527D01*
Y1217920D01*
X780350D01*
Y1217831D01*
X778929D01*
Y1217920D01*
X778752D01*
Y1218008D01*
X778663D01*
Y1218097D01*
X778574D01*
Y1218186D01*
X778485D01*
Y1218275D01*
X778396D01*
Y1218453D01*
X778308D01*
Y1219873D01*
X778396D01*
Y1220051D01*
X778485D01*
Y1220140D01*
X778574D01*
Y1220228D01*
X778663D01*
Y1220317D01*
X778752D01*
Y1220406D01*
X778929D01*
Y1220495D01*
X780350D01*
Y1220406D01*
D02*
G37*
G36*
X721744Y1225734D02*
X721922D01*
Y1225645D01*
X722010D01*
Y1225556D01*
X722099D01*
Y1225467D01*
X722188D01*
Y1225379D01*
X722277D01*
Y1225201D01*
X722366D01*
Y1223780D01*
X722277D01*
Y1223603D01*
X722188D01*
Y1223514D01*
X722099D01*
Y1223425D01*
X722010D01*
Y1223336D01*
X721922D01*
Y1223248D01*
X721744D01*
Y1223159D01*
X719702D01*
Y1221116D01*
X719613D01*
Y1220939D01*
X719524D01*
Y1220850D01*
X719435D01*
Y1220761D01*
X719347D01*
Y1220672D01*
X719258D01*
Y1220584D01*
X719080D01*
Y1220495D01*
X714374D01*
Y1218453D01*
X714285D01*
Y1218275D01*
X714196D01*
Y1218186D01*
X714108D01*
Y1218097D01*
X714019D01*
Y1218008D01*
X713930D01*
Y1217920D01*
X713752D01*
Y1217831D01*
X707004D01*
Y1217920D01*
X706826D01*
Y1218008D01*
X706737D01*
Y1218097D01*
X706649D01*
Y1218186D01*
X706560D01*
Y1218275D01*
X706471D01*
Y1218453D01*
X706382D01*
Y1219873D01*
X706471D01*
Y1220051D01*
X706560D01*
Y1220140D01*
X706649D01*
Y1220228D01*
X706737D01*
Y1220317D01*
X706826D01*
Y1220406D01*
X707004D01*
Y1220495D01*
X711710D01*
Y1222537D01*
X711799D01*
Y1222715D01*
X711888D01*
Y1222803D01*
X711976D01*
Y1222892D01*
X712065D01*
Y1222981D01*
X712154D01*
Y1223070D01*
X712332D01*
Y1223159D01*
X714374D01*
Y1225201D01*
X714463D01*
Y1225379D01*
X714552D01*
Y1225467D01*
X714640D01*
Y1225556D01*
X714729D01*
Y1225645D01*
X714818D01*
Y1225734D01*
X714995D01*
Y1225823D01*
X721744D01*
Y1225734D01*
D02*
G37*
G36*
X695105Y1233726D02*
X695283D01*
Y1233637D01*
X695371D01*
Y1233548D01*
X695460D01*
Y1233459D01*
X695549D01*
Y1233370D01*
X695638D01*
Y1233193D01*
X695727D01*
Y1228486D01*
X700433D01*
Y1228398D01*
X700611D01*
Y1228309D01*
X700699D01*
Y1228220D01*
X700788D01*
Y1228131D01*
X700877D01*
Y1228043D01*
X700966D01*
Y1227865D01*
X701055D01*
Y1226444D01*
X700966D01*
Y1226267D01*
X700877D01*
Y1226178D01*
X700788D01*
Y1226089D01*
X700699D01*
Y1226000D01*
X700611D01*
Y1225911D01*
X700433D01*
Y1225823D01*
X698391D01*
Y1223159D01*
X701055D01*
Y1225201D01*
X701143D01*
Y1225379D01*
X701232D01*
Y1225467D01*
X701321D01*
Y1225556D01*
X701410D01*
Y1225645D01*
X701498D01*
Y1225734D01*
X701676D01*
Y1225823D01*
X703097D01*
Y1225734D01*
X703274D01*
Y1225645D01*
X703363D01*
Y1225556D01*
X703452D01*
Y1225467D01*
X703541D01*
Y1225379D01*
X703630D01*
Y1225201D01*
X703718D01*
Y1223159D01*
X705761D01*
Y1223070D01*
X705938D01*
Y1222981D01*
X706027D01*
Y1222892D01*
X706116D01*
Y1222803D01*
X706205D01*
Y1222715D01*
X706293D01*
Y1222537D01*
X706382D01*
Y1221116D01*
X706293D01*
Y1220939D01*
X706205D01*
Y1220850D01*
X706116D01*
Y1220761D01*
X706027D01*
Y1220672D01*
X705938D01*
Y1220584D01*
X705761D01*
Y1220495D01*
X703718D01*
Y1218453D01*
X703630D01*
Y1218275D01*
X703541D01*
Y1218186D01*
X703452D01*
Y1218097D01*
X703363D01*
Y1218008D01*
X703274D01*
Y1217920D01*
X703097D01*
Y1217831D01*
X701676D01*
Y1217920D01*
X701498D01*
Y1218008D01*
X701410D01*
Y1218097D01*
X701321D01*
Y1218186D01*
X701232D01*
Y1218275D01*
X701143D01*
Y1218453D01*
X701055D01*
Y1220495D01*
X696348D01*
Y1220584D01*
X696171D01*
Y1220672D01*
X696082D01*
Y1220761D01*
X695993D01*
Y1220850D01*
X695904D01*
Y1220939D01*
X695815D01*
Y1221116D01*
X695727D01*
Y1225823D01*
X693063D01*
Y1221116D01*
X692974D01*
Y1220939D01*
X692885D01*
Y1220850D01*
X692796D01*
Y1220761D01*
X692708D01*
Y1220672D01*
X692619D01*
Y1220584D01*
X692441D01*
Y1220495D01*
X690399D01*
Y1218453D01*
X690310D01*
Y1218275D01*
X690221D01*
Y1218186D01*
X690133D01*
Y1218097D01*
X690044D01*
Y1218008D01*
X689955D01*
Y1217920D01*
X689777D01*
Y1217831D01*
X688356D01*
Y1217920D01*
X688179D01*
Y1218008D01*
X688090D01*
Y1218097D01*
X688001D01*
Y1218186D01*
X687913D01*
Y1218275D01*
X687824D01*
Y1218453D01*
X687735D01*
Y1222537D01*
X687824D01*
Y1222715D01*
X687913D01*
Y1222803D01*
X688001D01*
Y1222892D01*
X688090D01*
Y1222981D01*
X688179D01*
Y1223070D01*
X688356D01*
Y1223159D01*
X690399D01*
Y1227865D01*
X690488D01*
Y1228043D01*
X690576D01*
Y1228131D01*
X690665D01*
Y1228220D01*
X690754D01*
Y1228309D01*
X690843D01*
Y1228398D01*
X691020D01*
Y1228486D01*
X693063D01*
Y1231150D01*
X691020D01*
Y1231239D01*
X690843D01*
Y1231328D01*
X690754D01*
Y1231417D01*
X690665D01*
Y1231506D01*
X690576D01*
Y1231594D01*
X690488D01*
Y1231772D01*
X690399D01*
Y1233193D01*
X690488D01*
Y1233370D01*
X690576D01*
Y1233459D01*
X690665D01*
Y1233548D01*
X690754D01*
Y1233637D01*
X690843D01*
Y1233726D01*
X691020D01*
Y1233814D01*
X695105D01*
Y1233726D01*
D02*
G37*
G36*
X684449Y1220406D02*
X684627D01*
Y1220317D01*
X684716D01*
Y1220228D01*
X684805D01*
Y1220140D01*
X684893D01*
Y1220051D01*
X684982D01*
Y1219873D01*
X685071D01*
Y1218453D01*
X684982D01*
Y1218275D01*
X684893D01*
Y1218186D01*
X684805D01*
Y1218097D01*
X684716D01*
Y1218008D01*
X684627D01*
Y1217920D01*
X684449D01*
Y1217831D01*
X683029D01*
Y1217920D01*
X682851D01*
Y1218008D01*
X682762D01*
Y1218097D01*
X682673D01*
Y1218186D01*
X682585D01*
Y1218275D01*
X682496D01*
Y1218453D01*
X682407D01*
Y1218541D01*
Y1218630D01*
Y1219873D01*
X682496D01*
Y1220051D01*
X682585D01*
Y1220140D01*
X682673D01*
Y1220228D01*
X682762D01*
Y1220317D01*
X682851D01*
Y1220406D01*
X683029D01*
Y1220495D01*
X684449D01*
Y1220406D01*
D02*
G37*
G36*
X775022Y1223070D02*
X775200D01*
Y1222981D01*
X775288D01*
Y1222892D01*
X775377D01*
Y1222803D01*
X775466D01*
Y1222715D01*
X775555D01*
Y1222537D01*
X775644D01*
Y1219429D01*
Y1219340D01*
Y1215789D01*
X775555D01*
Y1215611D01*
X775466D01*
Y1215522D01*
X775377D01*
Y1215433D01*
X775288D01*
Y1215345D01*
X775200D01*
Y1215256D01*
X775022D01*
Y1215167D01*
X773601D01*
Y1215256D01*
X773424D01*
Y1215345D01*
X773335D01*
Y1215433D01*
X773246D01*
Y1215522D01*
X773157D01*
Y1215611D01*
X773069D01*
Y1215789D01*
X772980D01*
Y1217831D01*
X770938D01*
Y1217920D01*
X770760D01*
Y1218008D01*
X770671D01*
Y1218097D01*
X770582D01*
Y1218186D01*
X770493D01*
Y1218275D01*
X770405D01*
Y1218453D01*
X770316D01*
Y1219873D01*
X770405D01*
Y1220051D01*
X770493D01*
Y1220140D01*
X770582D01*
Y1220228D01*
X770671D01*
Y1220317D01*
X770760D01*
Y1220406D01*
X770938D01*
Y1220495D01*
X772980D01*
Y1222537D01*
X773069D01*
Y1222715D01*
X773157D01*
Y1222803D01*
X773246D01*
Y1222892D01*
X773335D01*
Y1222981D01*
X773424D01*
Y1223070D01*
X773601D01*
Y1223159D01*
X775022D01*
Y1223070D01*
D02*
G37*
G36*
X769694Y1217742D02*
X769872D01*
Y1217653D01*
X769961D01*
Y1217564D01*
X770050D01*
Y1217476D01*
X770138D01*
Y1217387D01*
X770227D01*
Y1217209D01*
X770316D01*
Y1215789D01*
X770227D01*
Y1215611D01*
X770138D01*
Y1215522D01*
X770050D01*
Y1215433D01*
X769961D01*
Y1215345D01*
X769872D01*
Y1215256D01*
X769694D01*
Y1215167D01*
X768274D01*
Y1215256D01*
X768096D01*
Y1215345D01*
X768007D01*
Y1215433D01*
X767918D01*
Y1215522D01*
X767830D01*
Y1215611D01*
X767741D01*
Y1215789D01*
X767652D01*
Y1217209D01*
X767741D01*
Y1217387D01*
X767830D01*
Y1217476D01*
X767918D01*
Y1217564D01*
X768007D01*
Y1217653D01*
X768096D01*
Y1217742D01*
X768274D01*
Y1217831D01*
X769694D01*
Y1217742D01*
D02*
G37*
G36*
X705761D02*
X705938D01*
Y1217653D01*
X706027D01*
Y1217564D01*
X706116D01*
Y1217476D01*
X706205D01*
Y1217387D01*
X706293D01*
Y1217209D01*
X706382D01*
Y1215789D01*
X706293D01*
Y1215611D01*
X706205D01*
Y1215522D01*
X706116D01*
Y1215433D01*
X706027D01*
Y1215345D01*
X705938D01*
Y1215256D01*
X705761D01*
Y1215167D01*
X704340D01*
Y1215256D01*
X704162D01*
Y1215345D01*
X704073D01*
Y1215433D01*
X703985D01*
Y1215522D01*
X703896D01*
Y1215611D01*
X703807D01*
Y1215789D01*
X703718D01*
Y1215877D01*
Y1215966D01*
Y1217209D01*
X703807D01*
Y1217387D01*
X703896D01*
Y1217476D01*
X703985D01*
Y1217564D01*
X704073D01*
Y1217653D01*
X704162D01*
Y1217742D01*
X704340D01*
Y1217831D01*
X705761D01*
Y1217742D01*
D02*
G37*
G36*
X700433D02*
X700611D01*
Y1217653D01*
X700699D01*
Y1217564D01*
X700788D01*
Y1217476D01*
X700877D01*
Y1217387D01*
X700966D01*
Y1217209D01*
X701055D01*
Y1215789D01*
X700966D01*
Y1215611D01*
X700877D01*
Y1215522D01*
X700788D01*
Y1215433D01*
X700699D01*
Y1215345D01*
X700611D01*
Y1215256D01*
X700433D01*
Y1215167D01*
X699012D01*
Y1215256D01*
X698835D01*
Y1215345D01*
X698746D01*
Y1215433D01*
X698657D01*
Y1215522D01*
X698568D01*
Y1215611D01*
X698479D01*
Y1215789D01*
X698391D01*
Y1217209D01*
X698479D01*
Y1217387D01*
X698568D01*
Y1217476D01*
X698657D01*
Y1217564D01*
X698746D01*
Y1217653D01*
X698835D01*
Y1217742D01*
X699012D01*
Y1217831D01*
X700433D01*
Y1217742D01*
D02*
G37*
G36*
X767030Y1215078D02*
X767208D01*
Y1214989D01*
X767297D01*
Y1214901D01*
X767386D01*
Y1214812D01*
X767474D01*
Y1214723D01*
X767563D01*
Y1214545D01*
X767652D01*
Y1213125D01*
X767563D01*
Y1212947D01*
X767474D01*
Y1212858D01*
X767386D01*
Y1212769D01*
X767297D01*
Y1212681D01*
X767208D01*
Y1212592D01*
X767030D01*
Y1212503D01*
X765610D01*
Y1212592D01*
X765432D01*
Y1212681D01*
X765343D01*
Y1212769D01*
X765255D01*
Y1212858D01*
X765166D01*
Y1212947D01*
X765077D01*
Y1213125D01*
X764988D01*
Y1214545D01*
X765077D01*
Y1214723D01*
X765166D01*
Y1214812D01*
X765255D01*
Y1214901D01*
X765343D01*
Y1214989D01*
X765432D01*
Y1215078D01*
X765610D01*
Y1215167D01*
X767030D01*
Y1215078D01*
D02*
G37*
G36*
X708425D02*
X708602D01*
Y1214989D01*
X708691D01*
Y1214901D01*
X708780D01*
Y1214812D01*
X708869D01*
Y1214723D01*
X708957D01*
Y1214545D01*
X709046D01*
Y1213125D01*
X708957D01*
Y1212947D01*
X708869D01*
Y1212858D01*
X708780D01*
Y1212769D01*
X708691D01*
Y1212681D01*
X708602D01*
Y1212592D01*
X708425D01*
Y1212503D01*
X707004D01*
Y1212592D01*
X706826D01*
Y1212681D01*
X706737D01*
Y1212769D01*
X706649D01*
Y1212858D01*
X706560D01*
Y1212947D01*
X706471D01*
Y1213125D01*
X706382D01*
Y1214545D01*
X706471D01*
Y1214723D01*
X706560D01*
Y1214812D01*
X706649D01*
Y1214901D01*
X706737D01*
Y1214989D01*
X706826D01*
Y1215078D01*
X707004D01*
Y1215167D01*
X708425D01*
Y1215078D01*
D02*
G37*
G36*
X703097D02*
X703274D01*
Y1214989D01*
X703363D01*
Y1214901D01*
X703452D01*
Y1214812D01*
X703541D01*
Y1214723D01*
X703630D01*
Y1214545D01*
X703718D01*
Y1213125D01*
X703630D01*
Y1212947D01*
X703541D01*
Y1212858D01*
X703452D01*
Y1212769D01*
X703363D01*
Y1212681D01*
X703274D01*
Y1212592D01*
X703097D01*
Y1212503D01*
X701676D01*
Y1212592D01*
X701498D01*
Y1212681D01*
X701410D01*
Y1212769D01*
X701321D01*
Y1212858D01*
X701232D01*
Y1212947D01*
X701143D01*
Y1213125D01*
X701055D01*
Y1214545D01*
X701143D01*
Y1214723D01*
X701232D01*
Y1214812D01*
X701321D01*
Y1214901D01*
X701410D01*
Y1214989D01*
X701498D01*
Y1215078D01*
X701676D01*
Y1215167D01*
X703097D01*
Y1215078D01*
D02*
G37*
G36*
X687113Y1217742D02*
X687291D01*
Y1217653D01*
X687380D01*
Y1217564D01*
X687469D01*
Y1217476D01*
X687557D01*
Y1217387D01*
X687646D01*
Y1217209D01*
X687735D01*
Y1216055D01*
Y1215966D01*
Y1213125D01*
X687646D01*
Y1212947D01*
X687557D01*
Y1212858D01*
X687469D01*
Y1212769D01*
X687380D01*
Y1212681D01*
X687291D01*
Y1212592D01*
X687113D01*
Y1212503D01*
X685693D01*
Y1212592D01*
X685515D01*
Y1212681D01*
X685426D01*
Y1212769D01*
X685337D01*
Y1212858D01*
X685249D01*
Y1212947D01*
X685160D01*
Y1213125D01*
X685071D01*
Y1217209D01*
X685160D01*
Y1217387D01*
X685249D01*
Y1217476D01*
X685337D01*
Y1217564D01*
X685426D01*
Y1217653D01*
X685515D01*
Y1217742D01*
X685693D01*
Y1217831D01*
X687113D01*
Y1217742D01*
D02*
G37*
G36*
X700433Y1212414D02*
X700611D01*
Y1212326D01*
X700699D01*
Y1212237D01*
X700788D01*
Y1212148D01*
X700877D01*
Y1212059D01*
X700966D01*
Y1211881D01*
X701055D01*
Y1210461D01*
X700966D01*
Y1210283D01*
X700877D01*
Y1210194D01*
X700788D01*
Y1210106D01*
X700699D01*
Y1210017D01*
X700611D01*
Y1209928D01*
X700433D01*
Y1209839D01*
X699012D01*
Y1209928D01*
X698835D01*
Y1210017D01*
X698746D01*
Y1210106D01*
X698657D01*
Y1210194D01*
X698568D01*
Y1210283D01*
X698479D01*
Y1210461D01*
X698391D01*
Y1211881D01*
X698479D01*
Y1212059D01*
X698568D01*
Y1212148D01*
X698657D01*
Y1212237D01*
X698746D01*
Y1212326D01*
X698835D01*
Y1212414D01*
X699012D01*
Y1212503D01*
X700433D01*
Y1212414D01*
D02*
G37*
G36*
X692441Y1217742D02*
X692619D01*
Y1217653D01*
X692708D01*
Y1217564D01*
X692796D01*
Y1217476D01*
X692885D01*
Y1217387D01*
X692974D01*
Y1217209D01*
X693063D01*
Y1215167D01*
X697769D01*
Y1215078D01*
X697947D01*
Y1214989D01*
X698035D01*
Y1214901D01*
X698124D01*
Y1214812D01*
X698213D01*
Y1214723D01*
X698302D01*
Y1214545D01*
X698391D01*
Y1213125D01*
X698302D01*
Y1212947D01*
X698213D01*
Y1212858D01*
X698124D01*
Y1212769D01*
X698035D01*
Y1212681D01*
X697947D01*
Y1212592D01*
X697769D01*
Y1212503D01*
X695727D01*
Y1210461D01*
X695638D01*
Y1210283D01*
X695549D01*
Y1210194D01*
X695460D01*
Y1210106D01*
X695371D01*
Y1210017D01*
X695283D01*
Y1209928D01*
X695105D01*
Y1209839D01*
X691020D01*
Y1209928D01*
X690843D01*
Y1210017D01*
X690754D01*
Y1210106D01*
X690665D01*
Y1210194D01*
X690576D01*
Y1210283D01*
X690488D01*
Y1210461D01*
X690399D01*
Y1217209D01*
X690488D01*
Y1217387D01*
X690576D01*
Y1217476D01*
X690665D01*
Y1217564D01*
X690754D01*
Y1217653D01*
X690843D01*
Y1217742D01*
X691020D01*
Y1217831D01*
X692441D01*
Y1217742D01*
D02*
G37*
G36*
X772358Y1215078D02*
X772536D01*
Y1214989D01*
X772625D01*
Y1214901D01*
X772713D01*
Y1214812D01*
X772802D01*
Y1214723D01*
X772891D01*
Y1214545D01*
X772980D01*
Y1205133D01*
X772891D01*
Y1204955D01*
X772802D01*
Y1204867D01*
X772713D01*
Y1204778D01*
X772625D01*
Y1204689D01*
X772536D01*
Y1204600D01*
X772358D01*
Y1204511D01*
X768274D01*
Y1204600D01*
X768096D01*
Y1204689D01*
X768007D01*
Y1204778D01*
X767918D01*
Y1204867D01*
X767830D01*
Y1204955D01*
X767741D01*
Y1205133D01*
X767652D01*
Y1210638D01*
Y1210727D01*
Y1211881D01*
X767741D01*
Y1212059D01*
X767830D01*
Y1212148D01*
X767918D01*
Y1212237D01*
X768007D01*
Y1212326D01*
X768096D01*
Y1212414D01*
X768274D01*
Y1212503D01*
X770316D01*
Y1214545D01*
X770405D01*
Y1214723D01*
X770493D01*
Y1214812D01*
X770582D01*
Y1214901D01*
X770671D01*
Y1214989D01*
X770760D01*
Y1215078D01*
X770938D01*
Y1215167D01*
X772358D01*
Y1215078D01*
D02*
G37*
G36*
X748383Y1207086D02*
X748561D01*
Y1206998D01*
X748650D01*
Y1206909D01*
X748738D01*
Y1206820D01*
X748827D01*
Y1206731D01*
X748916D01*
Y1206554D01*
X749005D01*
Y1205133D01*
X748916D01*
Y1204955D01*
X748827D01*
Y1204867D01*
X748738D01*
Y1204778D01*
X748650D01*
Y1204689D01*
X748561D01*
Y1204600D01*
X748383D01*
Y1204511D01*
X746962D01*
Y1204600D01*
X746785D01*
Y1204689D01*
X746696D01*
Y1204778D01*
X746607D01*
Y1204867D01*
X746518D01*
Y1204955D01*
X746430D01*
Y1205133D01*
X746341D01*
Y1206554D01*
X746430D01*
Y1206731D01*
X746518D01*
Y1206820D01*
X746607D01*
Y1206909D01*
X746696D01*
Y1206998D01*
X746785D01*
Y1207086D01*
X746962D01*
Y1207175D01*
X748383D01*
Y1207086D01*
D02*
G37*
G36*
X713752Y1212414D02*
X713930D01*
Y1212326D01*
X714019D01*
Y1212237D01*
X714108D01*
Y1212148D01*
X714196D01*
Y1212059D01*
X714285D01*
Y1211881D01*
X714374D01*
Y1207175D01*
X716416D01*
Y1207086D01*
X716594D01*
Y1206998D01*
X716683D01*
Y1206909D01*
X716771D01*
Y1206820D01*
X716860D01*
Y1206731D01*
X716949D01*
Y1206554D01*
X717038D01*
Y1200249D01*
Y1200160D01*
Y1197141D01*
X716949D01*
Y1196964D01*
X716860D01*
Y1196875D01*
X716771D01*
Y1196786D01*
X716683D01*
Y1196697D01*
X716594D01*
Y1196609D01*
X716416D01*
Y1196520D01*
X709046D01*
Y1193856D01*
X711088D01*
Y1193767D01*
X711266D01*
Y1193678D01*
X711355D01*
Y1193589D01*
X711444D01*
Y1193501D01*
X711533D01*
Y1193412D01*
X711621D01*
Y1193234D01*
X711710D01*
Y1189149D01*
X711621D01*
Y1188972D01*
X711533D01*
Y1188883D01*
X711444D01*
Y1188794D01*
X711355D01*
Y1188706D01*
X711266D01*
Y1188617D01*
X711088D01*
Y1188528D01*
X704340D01*
Y1188617D01*
X704162D01*
Y1188706D01*
X704073D01*
Y1188794D01*
X703985D01*
Y1188883D01*
X703896D01*
Y1188972D01*
X703807D01*
Y1189149D01*
X703718D01*
Y1191192D01*
X701676D01*
Y1191281D01*
X701498D01*
Y1191369D01*
X701410D01*
Y1191458D01*
X701321D01*
Y1191547D01*
X701232D01*
Y1191636D01*
X701143D01*
Y1191813D01*
X701055D01*
Y1193856D01*
X699012D01*
Y1193945D01*
X698835D01*
Y1194033D01*
X698746D01*
Y1194122D01*
X698657D01*
Y1194211D01*
X698568D01*
Y1194300D01*
X698479D01*
Y1194477D01*
X698391D01*
Y1195898D01*
X698479D01*
Y1196076D01*
X698568D01*
Y1196164D01*
X698657D01*
Y1196253D01*
X698746D01*
Y1196342D01*
X698835D01*
Y1196431D01*
X699012D01*
Y1196520D01*
X703097D01*
Y1196431D01*
X703274D01*
Y1196342D01*
X703363D01*
Y1196253D01*
X703452D01*
Y1196164D01*
X703541D01*
Y1196076D01*
X703630D01*
Y1195898D01*
X703718D01*
Y1193856D01*
X706382D01*
Y1198562D01*
X706471D01*
Y1198740D01*
X706560D01*
Y1198828D01*
X706649D01*
Y1198917D01*
X706737D01*
Y1199006D01*
X706826D01*
Y1199095D01*
X707004D01*
Y1199184D01*
X714374D01*
Y1204511D01*
X711710D01*
Y1202469D01*
X711621D01*
Y1202291D01*
X711533D01*
Y1202203D01*
X711444D01*
Y1202114D01*
X711355D01*
Y1202025D01*
X711266D01*
Y1201936D01*
X711088D01*
Y1201848D01*
X703718D01*
Y1199805D01*
X703630D01*
Y1199628D01*
X703541D01*
Y1199539D01*
X703452D01*
Y1199450D01*
X703363D01*
Y1199361D01*
X703274D01*
Y1199272D01*
X703097D01*
Y1199184D01*
X699012D01*
Y1199272D01*
X698835D01*
Y1199361D01*
X698746D01*
Y1199450D01*
X698657D01*
Y1199539D01*
X698568D01*
Y1199628D01*
X698479D01*
Y1199805D01*
X698391D01*
Y1201226D01*
X698479D01*
Y1201404D01*
X698568D01*
Y1201492D01*
X698657D01*
Y1201581D01*
X698746D01*
Y1201670D01*
X698835D01*
Y1201759D01*
X699012D01*
Y1201848D01*
X701055D01*
Y1204511D01*
X699012D01*
Y1204600D01*
X698835D01*
Y1204689D01*
X698746D01*
Y1204778D01*
X698657D01*
Y1204867D01*
X698568D01*
Y1204955D01*
X698479D01*
Y1205133D01*
X698391D01*
Y1206554D01*
X698479D01*
Y1206731D01*
X698568D01*
Y1206820D01*
X698657D01*
Y1206909D01*
X698746D01*
Y1206998D01*
X698835D01*
Y1207086D01*
X699012D01*
Y1207175D01*
X701055D01*
Y1209218D01*
X701143D01*
Y1209395D01*
X701232D01*
Y1209484D01*
X701321D01*
Y1209573D01*
X701410D01*
Y1209662D01*
X701498D01*
Y1209750D01*
X701676D01*
Y1209839D01*
X705761D01*
Y1209750D01*
X705938D01*
Y1209662D01*
X706027D01*
Y1209573D01*
X706116D01*
Y1209484D01*
X706205D01*
Y1209395D01*
X706293D01*
Y1209218D01*
X706382D01*
Y1204511D01*
X709046D01*
Y1206554D01*
X709135D01*
Y1206731D01*
X709224D01*
Y1206820D01*
X709313D01*
Y1206909D01*
X709401D01*
Y1206998D01*
X709490D01*
Y1207086D01*
X709668D01*
Y1207175D01*
X711710D01*
Y1209839D01*
X709668D01*
Y1209928D01*
X709490D01*
Y1210017D01*
X709401D01*
Y1210106D01*
X709313D01*
Y1210194D01*
X709224D01*
Y1210283D01*
X709135D01*
Y1210461D01*
X709046D01*
Y1211881D01*
X709135D01*
Y1212059D01*
X709224D01*
Y1212148D01*
X709313D01*
Y1212237D01*
X709401D01*
Y1212326D01*
X709490D01*
Y1212414D01*
X709668D01*
Y1212503D01*
X713752D01*
Y1212414D01*
D02*
G37*
G36*
X780350D02*
X780527D01*
Y1212326D01*
X780616D01*
Y1212237D01*
X780705D01*
Y1212148D01*
X780794D01*
Y1212059D01*
X780883D01*
Y1211881D01*
X780972D01*
Y1203979D01*
Y1203890D01*
Y1202469D01*
X780883D01*
Y1202291D01*
X780794D01*
Y1202203D01*
X780705D01*
Y1202114D01*
X780616D01*
Y1202025D01*
X780527D01*
Y1201936D01*
X780350D01*
Y1201848D01*
X778929D01*
Y1201936D01*
X778752D01*
Y1202025D01*
X778663D01*
Y1202114D01*
X778574D01*
Y1202203D01*
X778485D01*
Y1202291D01*
X778396D01*
Y1202469D01*
X778308D01*
Y1204511D01*
X776265D01*
Y1204600D01*
X776088D01*
Y1204689D01*
X775999D01*
Y1204778D01*
X775910D01*
Y1204867D01*
X775821D01*
Y1204955D01*
X775732D01*
Y1205133D01*
X775644D01*
Y1206554D01*
X775732D01*
Y1206731D01*
X775821D01*
Y1206820D01*
X775910D01*
Y1206909D01*
X775999D01*
Y1206998D01*
X776088D01*
Y1207086D01*
X776265D01*
Y1207175D01*
X778308D01*
Y1211881D01*
X778396D01*
Y1212059D01*
X778485D01*
Y1212148D01*
X778574D01*
Y1212237D01*
X778663D01*
Y1212326D01*
X778752D01*
Y1212414D01*
X778929D01*
Y1212503D01*
X780350D01*
Y1212414D01*
D02*
G37*
G36*
X767030Y1204423D02*
X767208D01*
Y1204334D01*
X767297D01*
Y1204245D01*
X767386D01*
Y1204156D01*
X767474D01*
Y1204067D01*
X767563D01*
Y1203890D01*
X767652D01*
Y1202469D01*
X767563D01*
Y1202291D01*
X767474D01*
Y1202203D01*
X767386D01*
Y1202114D01*
X767297D01*
Y1202025D01*
X767208D01*
Y1201936D01*
X767030D01*
Y1201848D01*
X762946D01*
Y1201936D01*
X762768D01*
Y1202025D01*
X762679D01*
Y1202114D01*
X762591D01*
Y1202203D01*
X762502D01*
Y1202291D01*
X762413D01*
Y1202469D01*
X762324D01*
Y1202824D01*
Y1202913D01*
Y1203890D01*
X762413D01*
Y1204067D01*
X762502D01*
Y1204156D01*
X762591D01*
Y1204245D01*
X762679D01*
Y1204334D01*
X762768D01*
Y1204423D01*
X762946D01*
Y1204511D01*
X767030D01*
Y1204423D01*
D02*
G37*
G36*
X751047D02*
X751225D01*
Y1204334D01*
X751313D01*
Y1204245D01*
X751402D01*
Y1204156D01*
X751491D01*
Y1204067D01*
X751580D01*
Y1203890D01*
X751669D01*
Y1202469D01*
X751580D01*
Y1202291D01*
X751491D01*
Y1202203D01*
X751402D01*
Y1202114D01*
X751313D01*
Y1202025D01*
X751225D01*
Y1201936D01*
X751047D01*
Y1201848D01*
X749626D01*
Y1201936D01*
X749449D01*
Y1202025D01*
X749360D01*
Y1202114D01*
X749271D01*
Y1202203D01*
X749182D01*
Y1202291D01*
X749093D01*
Y1202469D01*
X749005D01*
Y1203890D01*
X749093D01*
Y1204067D01*
X749182D01*
Y1204156D01*
X749271D01*
Y1204245D01*
X749360D01*
Y1204334D01*
X749449D01*
Y1204423D01*
X749626D01*
Y1204511D01*
X751047D01*
Y1204423D01*
D02*
G37*
G36*
X775022Y1201759D02*
X775200D01*
Y1201670D01*
X775288D01*
Y1201581D01*
X775377D01*
Y1201492D01*
X775466D01*
Y1201404D01*
X775555D01*
Y1201226D01*
X775644D01*
Y1199805D01*
X775555D01*
Y1199628D01*
X775466D01*
Y1199539D01*
X775377D01*
Y1199450D01*
X775288D01*
Y1199361D01*
X775200D01*
Y1199272D01*
X775022D01*
Y1199184D01*
X770938D01*
Y1199272D01*
X770760D01*
Y1199361D01*
X770671D01*
Y1199450D01*
X770582D01*
Y1199539D01*
X770493D01*
Y1199628D01*
X770405D01*
Y1199805D01*
X770316D01*
Y1200871D01*
Y1200959D01*
Y1201226D01*
X770405D01*
Y1201404D01*
X770493D01*
Y1201492D01*
X770582D01*
Y1201581D01*
X770671D01*
Y1201670D01*
X770760D01*
Y1201759D01*
X770938D01*
Y1201848D01*
X775022D01*
Y1201759D01*
D02*
G37*
G36*
X780350Y1199095D02*
X780527D01*
Y1199006D01*
X780616D01*
Y1198917D01*
X780705D01*
Y1198828D01*
X780794D01*
Y1198740D01*
X780883D01*
Y1198562D01*
X780972D01*
Y1197141D01*
X780883D01*
Y1196964D01*
X780794D01*
Y1196875D01*
X780705D01*
Y1196786D01*
X780616D01*
Y1196697D01*
X780527D01*
Y1196609D01*
X780350D01*
Y1196520D01*
X778929D01*
Y1196609D01*
X778752D01*
Y1196697D01*
X778663D01*
Y1196786D01*
X778574D01*
Y1196875D01*
X778485D01*
Y1196964D01*
X778396D01*
Y1197141D01*
X778308D01*
Y1198562D01*
X778396D01*
Y1198740D01*
X778485D01*
Y1198828D01*
X778574D01*
Y1198917D01*
X778663D01*
Y1199006D01*
X778752D01*
Y1199095D01*
X778929D01*
Y1199184D01*
X780350D01*
Y1199095D01*
D02*
G37*
G36*
X759039D02*
X759216D01*
Y1199006D01*
X759305D01*
Y1198917D01*
X759394D01*
Y1198828D01*
X759483D01*
Y1198740D01*
X759572D01*
Y1198562D01*
X759660D01*
Y1197141D01*
X759572D01*
Y1196964D01*
X759483D01*
Y1196875D01*
X759394D01*
Y1196786D01*
X759305D01*
Y1196697D01*
X759216D01*
Y1196609D01*
X759039D01*
Y1196520D01*
X757618D01*
Y1196609D01*
X757440D01*
Y1196697D01*
X757352D01*
Y1196786D01*
X757263D01*
Y1196875D01*
X757174D01*
Y1196964D01*
X757085D01*
Y1197141D01*
X756996D01*
Y1198562D01*
X757085D01*
Y1198740D01*
X757174D01*
Y1198828D01*
X757263D01*
Y1198917D01*
X757352D01*
Y1199006D01*
X757440D01*
Y1199095D01*
X757618D01*
Y1199184D01*
X759039D01*
Y1199095D01*
D02*
G37*
G36*
X697769D02*
X697947D01*
Y1199006D01*
X698035D01*
Y1198917D01*
X698124D01*
Y1198828D01*
X698213D01*
Y1198740D01*
X698302D01*
Y1198562D01*
X698391D01*
Y1197141D01*
X698302D01*
Y1196964D01*
X698213D01*
Y1196875D01*
X698124D01*
Y1196786D01*
X698035D01*
Y1196697D01*
X697947D01*
Y1196609D01*
X697769D01*
Y1196520D01*
X696348D01*
Y1196609D01*
X696171D01*
Y1196697D01*
X696082D01*
Y1196786D01*
X695993D01*
Y1196875D01*
X695904D01*
Y1196964D01*
X695815D01*
Y1197141D01*
X695727D01*
Y1197852D01*
Y1197940D01*
Y1198562D01*
X695815D01*
Y1198740D01*
X695904D01*
Y1198828D01*
X695993D01*
Y1198917D01*
X696082D01*
Y1199006D01*
X696171D01*
Y1199095D01*
X696348D01*
Y1199184D01*
X697769D01*
Y1199095D01*
D02*
G37*
G36*
X732844Y1219518D02*
X733643D01*
Y1219429D01*
X734353D01*
Y1219340D01*
X735152D01*
Y1219252D01*
X735774D01*
Y1219163D01*
X736573D01*
Y1219074D01*
X737283D01*
Y1218985D01*
X738083D01*
Y1218896D01*
X738793D01*
Y1218808D01*
X739592D01*
Y1218719D01*
X740303D01*
Y1218630D01*
X741013D01*
Y1218541D01*
X741279D01*
Y1218453D01*
X741368D01*
Y1218364D01*
X741457D01*
Y1214368D01*
X741723D01*
Y1214457D01*
X741990D01*
Y1214545D01*
X742079D01*
Y1214634D01*
X742256D01*
Y1214723D01*
X742345D01*
Y1214812D01*
X742434D01*
Y1214901D01*
X742523D01*
Y1214989D01*
X742700D01*
Y1215078D01*
X742789D01*
Y1215167D01*
X742878D01*
Y1215256D01*
X742967D01*
Y1215345D01*
X743055D01*
Y1215433D01*
X743233D01*
Y1215522D01*
X743322D01*
Y1215611D01*
X743410D01*
Y1215700D01*
X743499D01*
Y1215789D01*
X743677D01*
Y1215877D01*
X743766D01*
Y1215966D01*
X743855D01*
Y1216055D01*
X744032D01*
Y1216144D01*
X744121D01*
Y1216233D01*
X744210D01*
Y1216321D01*
X744298D01*
Y1216410D01*
X744476D01*
Y1216499D01*
X744565D01*
Y1216588D01*
X744654D01*
Y1216676D01*
X744743D01*
Y1216765D01*
X745098D01*
Y1216676D01*
X745186D01*
Y1216588D01*
X745275D01*
Y1216321D01*
X745186D01*
Y1216144D01*
X745098D01*
Y1216055D01*
X745009D01*
Y1215966D01*
X744920D01*
Y1215877D01*
X744831D01*
Y1215700D01*
X744743D01*
Y1215611D01*
X744654D01*
Y1215522D01*
X744565D01*
Y1215433D01*
X744476D01*
Y1215256D01*
X744387D01*
Y1215167D01*
X744298D01*
Y1215078D01*
X744210D01*
Y1214901D01*
X744121D01*
Y1214812D01*
X744032D01*
Y1214723D01*
X743943D01*
Y1214545D01*
X743855D01*
Y1214457D01*
X743766D01*
Y1214368D01*
X743677D01*
Y1214279D01*
X743588D01*
Y1214190D01*
X743499D01*
Y1213924D01*
X744298D01*
Y1213835D01*
X744743D01*
Y1213746D01*
X744831D01*
Y1213657D01*
X744743D01*
Y1213569D01*
X744654D01*
Y1213480D01*
X744565D01*
Y1213391D01*
X744476D01*
Y1213302D01*
X744387D01*
Y1213213D01*
X744298D01*
Y1213036D01*
X744210D01*
Y1212947D01*
X744121D01*
Y1212858D01*
X744032D01*
Y1212681D01*
X743943D01*
Y1212592D01*
X743855D01*
Y1212503D01*
X743766D01*
Y1212326D01*
X743677D01*
Y1212148D01*
X743588D01*
Y1212059D01*
X743499D01*
Y1211881D01*
X743410D01*
Y1211793D01*
X743322D01*
Y1211615D01*
X743233D01*
Y1211526D01*
X743144D01*
Y1211349D01*
X743055D01*
Y1211171D01*
X742967D01*
Y1211082D01*
X742878D01*
Y1210905D01*
X742789D01*
Y1210816D01*
X742700D01*
Y1210638D01*
X742611D01*
Y1210461D01*
X742523D01*
Y1210372D01*
X742434D01*
Y1210194D01*
X742345D01*
Y1210106D01*
X742256D01*
Y1210017D01*
X742167D01*
Y1209839D01*
X742079D01*
Y1209750D01*
X741990D01*
Y1209573D01*
X741901D01*
Y1209484D01*
X741812D01*
Y1209395D01*
X741723D01*
Y1209306D01*
X741635D01*
Y1209129D01*
X741546D01*
Y1209040D01*
X741457D01*
Y1205843D01*
X742345D01*
Y1205754D01*
X742523D01*
Y1205666D01*
X742611D01*
Y1205577D01*
X742700D01*
Y1205488D01*
X742789D01*
Y1205399D01*
X742878D01*
Y1205311D01*
X742967D01*
Y1205222D01*
X743055D01*
Y1205133D01*
X743144D01*
Y1205044D01*
X743233D01*
Y1204955D01*
X743322D01*
Y1204778D01*
X743410D01*
Y1204423D01*
X743322D01*
Y1204334D01*
X743233D01*
Y1204245D01*
X743144D01*
Y1204156D01*
X743055D01*
Y1204067D01*
X742878D01*
Y1203979D01*
X742789D01*
Y1203890D01*
X742700D01*
Y1203801D01*
X742611D01*
Y1203712D01*
X742523D01*
Y1203623D01*
X742434D01*
Y1203535D01*
X742345D01*
Y1203446D01*
X742167D01*
Y1203357D01*
X742079D01*
Y1203268D01*
X741990D01*
Y1203179D01*
X741901D01*
Y1203091D01*
X741812D01*
Y1203002D01*
X741723D01*
Y1202913D01*
X741635D01*
Y1202824D01*
X741457D01*
Y1202735D01*
X741368D01*
Y1202647D01*
X741279D01*
Y1202558D01*
X741191D01*
Y1202469D01*
X741102D01*
Y1202380D01*
X741013D01*
Y1202291D01*
X740924D01*
Y1202203D01*
X740835D01*
Y1202114D01*
X740658D01*
Y1202025D01*
X740569D01*
Y1201936D01*
X740480D01*
Y1201848D01*
X740391D01*
Y1201759D01*
X740303D01*
Y1201670D01*
X740214D01*
Y1201581D01*
X740125D01*
Y1201492D01*
X739947D01*
Y1201404D01*
X739859D01*
Y1201315D01*
X739770D01*
Y1201226D01*
X739681D01*
Y1201137D01*
X739592D01*
Y1201048D01*
X739503D01*
Y1200959D01*
X739415D01*
Y1200871D01*
X739326D01*
Y1200782D01*
X739148D01*
Y1200693D01*
X739060D01*
Y1200604D01*
X738971D01*
Y1200516D01*
X738882D01*
Y1200427D01*
X738793D01*
Y1200338D01*
X738704D01*
Y1200249D01*
X738527D01*
Y1200160D01*
X738438D01*
Y1200071D01*
X738349D01*
Y1199983D01*
X738260D01*
Y1199894D01*
X738171D01*
Y1199805D01*
X738083D01*
Y1199716D01*
X737994D01*
Y1199628D01*
X737816D01*
Y1199539D01*
X737728D01*
Y1199450D01*
X737639D01*
Y1199361D01*
X737550D01*
Y1199272D01*
X737461D01*
Y1199184D01*
X737283D01*
Y1199095D01*
X737195D01*
Y1199006D01*
X737106D01*
Y1198917D01*
X737017D01*
Y1198828D01*
X736928D01*
Y1198740D01*
X736840D01*
Y1198651D01*
X736751D01*
Y1198562D01*
X736573D01*
Y1198473D01*
X736484D01*
Y1198384D01*
X736396D01*
Y1198296D01*
X736307D01*
Y1198207D01*
X736218D01*
Y1198118D01*
X736129D01*
Y1198029D01*
X735952D01*
Y1197940D01*
X735863D01*
Y1197852D01*
X735774D01*
Y1197763D01*
X735685D01*
Y1197674D01*
X735596D01*
Y1197585D01*
X735508D01*
Y1197496D01*
X735330D01*
Y1197408D01*
X734975D01*
Y1197319D01*
X734442D01*
Y1197230D01*
X733732D01*
Y1197141D01*
X733199D01*
Y1197052D01*
X733021D01*
Y1196697D01*
X732933D01*
Y1196431D01*
X732844D01*
Y1196342D01*
X732755D01*
Y1196164D01*
X732666D01*
Y1196076D01*
X732577D01*
Y1195987D01*
X732488D01*
Y1195898D01*
X732311D01*
Y1195809D01*
X732222D01*
Y1195721D01*
X731956D01*
Y1195632D01*
X731512D01*
Y1195543D01*
X731245D01*
Y1195632D01*
X730801D01*
Y1195721D01*
X730624D01*
Y1195809D01*
X730446D01*
Y1195898D01*
X730269D01*
Y1195987D01*
X730180D01*
Y1196164D01*
X730091D01*
Y1196253D01*
X730002D01*
Y1196431D01*
X729913D01*
Y1196520D01*
X729825D01*
Y1196609D01*
X729381D01*
Y1196520D01*
X728759D01*
Y1196431D01*
X728049D01*
Y1196342D01*
X727516D01*
Y1196253D01*
X726805D01*
Y1196164D01*
X726273D01*
Y1196076D01*
X725651D01*
Y1195987D01*
X725474D01*
Y1196076D01*
X725207D01*
Y1196164D01*
X725118D01*
Y1196253D01*
X725030D01*
Y1196342D01*
X724941D01*
Y1196520D01*
X724763D01*
Y1196609D01*
X724674D01*
Y1196786D01*
X724586D01*
Y1196875D01*
X724497D01*
Y1196964D01*
X724408D01*
Y1197052D01*
X724319D01*
Y1197141D01*
X724230D01*
Y1197230D01*
X724142D01*
Y1197319D01*
X724053D01*
Y1197408D01*
X723964D01*
Y1197496D01*
X723875D01*
Y1197674D01*
X723698D01*
Y1197763D01*
X723609D01*
Y1197852D01*
X723520D01*
Y1197940D01*
X723431D01*
Y1198118D01*
X723342D01*
Y1198207D01*
X723254D01*
Y1198296D01*
X723165D01*
Y1198384D01*
X723076D01*
Y1198473D01*
X722987D01*
Y1198562D01*
X722898D01*
Y1198651D01*
X722810D01*
Y1198740D01*
X722721D01*
Y1198828D01*
X722632D01*
Y1198917D01*
X722543D01*
Y1199006D01*
X722455D01*
Y1199184D01*
X722366D01*
Y1199272D01*
X722188D01*
Y1199450D01*
X722099D01*
Y1199539D01*
X722010D01*
Y1199628D01*
X721922D01*
Y1199716D01*
X721833D01*
Y1199805D01*
X721744D01*
Y1199894D01*
X721655D01*
Y1199983D01*
X721566D01*
Y1200071D01*
X721478D01*
Y1200160D01*
X721389D01*
Y1200249D01*
X721300D01*
Y1200338D01*
X721211D01*
Y1200427D01*
X721123D01*
Y1200516D01*
X721034D01*
Y1200604D01*
X720945D01*
Y1200782D01*
X720856D01*
Y1200871D01*
X720767D01*
Y1200959D01*
X720678D01*
Y1201048D01*
X720590D01*
Y1201137D01*
X720501D01*
Y1201226D01*
X720412D01*
Y1201315D01*
X720323D01*
Y1201404D01*
X720235D01*
Y1201492D01*
X720146D01*
Y1201581D01*
X720057D01*
Y1201759D01*
X719879D01*
Y1201936D01*
X719702D01*
Y1202114D01*
X719613D01*
Y1202203D01*
X719524D01*
Y1202291D01*
X719435D01*
Y1202380D01*
X719347D01*
Y1202469D01*
X719258D01*
Y1202558D01*
X719169D01*
Y1202647D01*
X719080D01*
Y1202735D01*
X718991D01*
Y1202913D01*
X718814D01*
Y1203091D01*
X718636D01*
Y1203268D01*
X718547D01*
Y1203357D01*
X718459D01*
Y1203446D01*
X718370D01*
Y1203535D01*
X718281D01*
Y1203623D01*
X718192D01*
Y1203801D01*
X718103D01*
Y1204156D01*
X718192D01*
Y1204245D01*
X718281D01*
Y1204334D01*
X718370D01*
Y1204423D01*
X718459D01*
Y1204511D01*
X718547D01*
Y1204600D01*
X718636D01*
Y1204689D01*
X718725D01*
Y1204778D01*
X718814D01*
Y1204867D01*
X718903D01*
Y1204955D01*
X718991D01*
Y1205044D01*
X719080D01*
Y1205133D01*
X719169D01*
Y1205222D01*
X719258D01*
Y1205311D01*
X720412D01*
Y1208685D01*
X720501D01*
Y1209484D01*
X720412D01*
Y1210283D01*
X720501D01*
Y1218719D01*
X720590D01*
Y1218896D01*
X720856D01*
Y1218985D01*
X722277D01*
Y1219074D01*
X723609D01*
Y1219163D01*
X725030D01*
Y1219252D01*
X726361D01*
Y1219340D01*
X727782D01*
Y1219429D01*
X729203D01*
Y1219518D01*
X730624D01*
Y1219607D01*
X732844D01*
Y1219518D01*
D02*
G37*
G36*
X733643Y1195543D02*
X733732D01*
Y1195454D01*
X733820D01*
Y1195365D01*
X733998D01*
Y1195188D01*
X734087D01*
Y1195010D01*
X733998D01*
Y1194921D01*
X733909D01*
Y1194833D01*
X733820D01*
Y1194744D01*
X733732D01*
Y1194655D01*
X733643D01*
Y1194566D01*
X733465D01*
Y1194477D01*
X733288D01*
Y1194389D01*
X733199D01*
Y1194300D01*
X733021D01*
Y1194211D01*
X732755D01*
Y1194122D01*
X732488D01*
Y1194033D01*
X732222D01*
Y1193945D01*
X730624D01*
Y1194033D01*
X730357D01*
Y1194122D01*
X730002D01*
Y1194211D01*
X729825D01*
Y1194300D01*
X729647D01*
Y1194389D01*
X729469D01*
Y1194477D01*
X729292D01*
Y1194566D01*
X729203D01*
Y1194655D01*
X729114D01*
Y1194744D01*
X729025D01*
Y1194833D01*
X728848D01*
Y1194921D01*
X728759D01*
Y1195010D01*
X728670D01*
Y1195188D01*
X728759D01*
Y1195365D01*
X728848D01*
Y1195454D01*
X729025D01*
Y1195543D01*
X729114D01*
Y1195632D01*
X729292D01*
Y1195543D01*
X729469D01*
Y1195454D01*
X729558D01*
Y1195365D01*
X729647D01*
Y1195276D01*
X729736D01*
Y1195188D01*
X729913D01*
Y1195099D01*
X730091D01*
Y1195010D01*
X730269D01*
Y1194921D01*
X730535D01*
Y1194833D01*
X730979D01*
Y1194744D01*
X731778D01*
Y1194833D01*
X732222D01*
Y1194921D01*
X732488D01*
Y1195010D01*
X732666D01*
Y1195099D01*
X732844D01*
Y1195188D01*
X733021D01*
Y1195276D01*
X733110D01*
Y1195365D01*
X733199D01*
Y1195454D01*
X733288D01*
Y1195543D01*
X733465D01*
Y1195632D01*
X733643D01*
Y1195543D01*
D02*
G37*
G36*
X753711Y1199095D02*
X753888D01*
Y1199006D01*
X753977D01*
Y1198917D01*
X754066D01*
Y1198828D01*
X754155D01*
Y1198740D01*
X754244D01*
Y1198562D01*
X754333D01*
Y1193856D01*
X756375D01*
Y1193767D01*
X756552D01*
Y1193678D01*
X756641D01*
Y1193589D01*
X756730D01*
Y1193501D01*
X756819D01*
Y1193412D01*
X756908D01*
Y1193234D01*
X756996D01*
Y1191813D01*
X756908D01*
Y1191636D01*
X756819D01*
Y1191547D01*
X756730D01*
Y1191458D01*
X756641D01*
Y1191369D01*
X756552D01*
Y1191281D01*
X756375D01*
Y1191192D01*
X754333D01*
Y1186486D01*
X754244D01*
Y1186308D01*
X754155D01*
Y1186219D01*
X754066D01*
Y1186130D01*
X753977D01*
Y1186042D01*
X753888D01*
Y1185953D01*
X753711D01*
Y1185864D01*
X751669D01*
Y1181158D01*
X751580D01*
Y1180980D01*
X751491D01*
Y1180891D01*
X751402D01*
Y1180803D01*
X751313D01*
Y1180714D01*
X751225D01*
Y1180625D01*
X751047D01*
Y1180536D01*
X749626D01*
Y1180625D01*
X749449D01*
Y1180714D01*
X749360D01*
Y1180803D01*
X749271D01*
Y1180891D01*
X749182D01*
Y1180980D01*
X749093D01*
Y1181158D01*
X749005D01*
Y1183200D01*
X744298D01*
Y1183289D01*
X744121D01*
Y1183378D01*
X744032D01*
Y1183466D01*
X743943D01*
Y1183555D01*
X743855D01*
Y1183644D01*
X743766D01*
Y1183822D01*
X743677D01*
Y1185242D01*
X743766D01*
Y1185420D01*
X743855D01*
Y1185509D01*
X743943D01*
Y1185598D01*
X744032D01*
Y1185686D01*
X744121D01*
Y1185775D01*
X744298D01*
Y1185864D01*
X746341D01*
Y1188528D01*
X741635D01*
Y1188617D01*
X741457D01*
Y1188706D01*
X741368D01*
Y1188794D01*
X741279D01*
Y1188883D01*
X741191D01*
Y1188972D01*
X741102D01*
Y1189149D01*
X741013D01*
Y1190570D01*
X741102D01*
Y1190748D01*
X741191D01*
Y1190837D01*
X741279D01*
Y1190926D01*
X741368D01*
Y1191014D01*
X741457D01*
Y1191103D01*
X741635D01*
Y1191192D01*
X746341D01*
Y1195898D01*
X746430D01*
Y1196076D01*
X746518D01*
Y1196164D01*
X746607D01*
Y1196253D01*
X746696D01*
Y1196342D01*
X746785D01*
Y1196431D01*
X746962D01*
Y1196520D01*
X748383D01*
Y1196431D01*
X748561D01*
Y1196342D01*
X748650D01*
Y1196253D01*
X748738D01*
Y1196164D01*
X748827D01*
Y1196076D01*
X748916D01*
Y1195898D01*
X749005D01*
Y1193856D01*
X751669D01*
Y1198562D01*
X751757D01*
Y1198740D01*
X751846D01*
Y1198828D01*
X751935D01*
Y1198917D01*
X752024D01*
Y1199006D01*
X752113D01*
Y1199095D01*
X752290D01*
Y1199184D01*
X753711D01*
Y1199095D01*
D02*
G37*
G36*
X689777Y1209750D02*
X689955D01*
Y1209662D01*
X690044D01*
Y1209573D01*
X690133D01*
Y1209484D01*
X690221D01*
Y1209395D01*
X690310D01*
Y1209218D01*
X690399D01*
Y1207797D01*
X690310D01*
Y1207619D01*
X690221D01*
Y1207531D01*
X690133D01*
Y1207442D01*
X690044D01*
Y1207353D01*
X689955D01*
Y1207264D01*
X689777D01*
Y1207175D01*
X687735D01*
Y1196520D01*
X690399D01*
Y1203890D01*
X690488D01*
Y1204067D01*
X690576D01*
Y1204156D01*
X690665D01*
Y1204245D01*
X690754D01*
Y1204334D01*
X690843D01*
Y1204423D01*
X691020D01*
Y1204511D01*
X695105D01*
Y1204423D01*
X695283D01*
Y1204334D01*
X695371D01*
Y1204245D01*
X695460D01*
Y1204156D01*
X695549D01*
Y1204067D01*
X695638D01*
Y1203890D01*
X695727D01*
Y1202469D01*
X695638D01*
Y1202291D01*
X695549D01*
Y1202203D01*
X695460D01*
Y1202114D01*
X695371D01*
Y1202025D01*
X695283D01*
Y1201936D01*
X695105D01*
Y1201848D01*
X693063D01*
Y1194477D01*
X692974D01*
Y1194300D01*
X692885D01*
Y1194211D01*
X692796D01*
Y1194122D01*
X692708D01*
Y1194033D01*
X692619D01*
Y1193945D01*
X692441D01*
Y1193856D01*
X685693D01*
Y1193945D01*
X685515D01*
Y1194033D01*
X685426D01*
Y1194122D01*
X685337D01*
Y1194211D01*
X685249D01*
Y1194300D01*
X685160D01*
Y1194477D01*
X685071D01*
Y1196520D01*
X683029D01*
Y1196609D01*
X682851D01*
Y1196697D01*
X682762D01*
Y1196786D01*
X682673D01*
Y1196875D01*
X682585D01*
Y1196964D01*
X682496D01*
Y1197141D01*
X682407D01*
Y1201226D01*
X682496D01*
Y1201404D01*
X682585D01*
Y1201492D01*
X682673D01*
Y1201581D01*
X682762D01*
Y1201670D01*
X682851D01*
Y1201759D01*
X683029D01*
Y1201848D01*
X685071D01*
Y1204511D01*
X683029D01*
Y1204600D01*
X682851D01*
Y1204689D01*
X682762D01*
Y1204778D01*
X682673D01*
Y1204867D01*
X682585D01*
Y1204955D01*
X682496D01*
Y1205133D01*
X682407D01*
Y1209218D01*
X682496D01*
Y1209395D01*
X682585D01*
Y1209484D01*
X682673D01*
Y1209573D01*
X682762D01*
Y1209662D01*
X682851D01*
Y1209750D01*
X683029D01*
Y1209839D01*
X689777D01*
Y1209750D01*
D02*
G37*
G36*
X734886Y1194300D02*
X735064D01*
Y1194211D01*
X735152D01*
Y1194122D01*
X735241D01*
Y1193945D01*
X735330D01*
Y1193767D01*
X735241D01*
Y1193678D01*
X735152D01*
Y1193589D01*
X735064D01*
Y1193501D01*
X734975D01*
Y1193412D01*
X734797D01*
Y1193323D01*
X734708D01*
Y1193234D01*
X734620D01*
Y1193145D01*
X734442D01*
Y1193057D01*
X734353D01*
Y1192968D01*
X734176D01*
Y1192879D01*
X733998D01*
Y1192790D01*
X733820D01*
Y1192701D01*
X733643D01*
Y1192613D01*
X733376D01*
Y1192524D01*
X733199D01*
Y1192435D01*
X732844D01*
Y1192346D01*
X732488D01*
Y1192257D01*
X731867D01*
Y1192169D01*
X730890D01*
Y1192257D01*
X730269D01*
Y1192346D01*
X729913D01*
Y1192435D01*
X729647D01*
Y1192524D01*
X729381D01*
Y1192613D01*
X729203D01*
Y1192701D01*
X729025D01*
Y1192790D01*
X728848D01*
Y1192879D01*
X728670D01*
Y1192968D01*
X728493D01*
Y1193057D01*
X728315D01*
Y1193145D01*
X728226D01*
Y1193234D01*
X728049D01*
Y1193323D01*
X727960D01*
Y1193412D01*
X727871D01*
Y1193501D01*
X727693D01*
Y1193589D01*
X727605D01*
Y1193678D01*
X727516D01*
Y1193856D01*
X727427D01*
Y1194033D01*
X727516D01*
Y1194122D01*
X727605D01*
Y1194211D01*
X727693D01*
Y1194300D01*
X727871D01*
Y1194389D01*
X728049D01*
Y1194300D01*
X728138D01*
Y1194211D01*
X728226D01*
Y1194122D01*
X728404D01*
Y1194033D01*
X728493D01*
Y1193945D01*
X728581D01*
Y1193856D01*
X728759D01*
Y1193767D01*
X728937D01*
Y1193678D01*
X729025D01*
Y1193589D01*
X729203D01*
Y1193501D01*
X729381D01*
Y1193412D01*
X729647D01*
Y1193323D01*
X729825D01*
Y1193234D01*
X730180D01*
Y1193145D01*
X730624D01*
Y1193057D01*
X732133D01*
Y1193145D01*
X732577D01*
Y1193234D01*
X732844D01*
Y1193323D01*
X733110D01*
Y1193412D01*
X733288D01*
Y1193501D01*
X733465D01*
Y1193589D01*
X733643D01*
Y1193678D01*
X733820D01*
Y1193767D01*
X733998D01*
Y1193856D01*
X734087D01*
Y1193945D01*
X734264D01*
Y1194033D01*
X734353D01*
Y1194122D01*
X734442D01*
Y1194211D01*
X734620D01*
Y1194300D01*
X734708D01*
Y1194389D01*
X734886D01*
Y1194300D01*
D02*
G37*
G36*
X695105Y1193767D02*
X695283D01*
Y1193678D01*
X695371D01*
Y1193589D01*
X695460D01*
Y1193501D01*
X695549D01*
Y1193412D01*
X695638D01*
Y1193234D01*
X695727D01*
Y1191813D01*
X695638D01*
Y1191636D01*
X695549D01*
Y1191547D01*
X695460D01*
Y1191458D01*
X695371D01*
Y1191369D01*
X695283D01*
Y1191281D01*
X695105D01*
Y1191192D01*
X693684D01*
Y1191281D01*
X693507D01*
Y1191369D01*
X693418D01*
Y1191458D01*
X693329D01*
Y1191547D01*
X693240D01*
Y1191636D01*
X693151D01*
Y1191813D01*
X693063D01*
Y1193234D01*
X693151D01*
Y1193412D01*
X693240D01*
Y1193501D01*
X693329D01*
Y1193589D01*
X693418D01*
Y1193678D01*
X693507D01*
Y1193767D01*
X693684D01*
Y1193856D01*
X695105D01*
Y1193767D01*
D02*
G37*
G36*
X777686Y1196431D02*
X777864D01*
Y1196342D01*
X777952D01*
Y1196253D01*
X778041D01*
Y1196164D01*
X778130D01*
Y1196076D01*
X778219D01*
Y1195898D01*
X778308D01*
Y1193856D01*
X780350D01*
Y1193767D01*
X780527D01*
Y1193678D01*
X780616D01*
Y1193589D01*
X780705D01*
Y1193501D01*
X780794D01*
Y1193412D01*
X780883D01*
Y1193234D01*
X780972D01*
Y1191813D01*
X780883D01*
Y1191636D01*
X780794D01*
Y1191547D01*
X780705D01*
Y1191458D01*
X780616D01*
Y1191369D01*
X780527D01*
Y1191281D01*
X780350D01*
Y1191192D01*
X778308D01*
Y1188528D01*
X780350D01*
Y1188439D01*
X780527D01*
Y1188350D01*
X780616D01*
Y1188262D01*
X780705D01*
Y1188173D01*
X780794D01*
Y1188084D01*
X780883D01*
Y1187906D01*
X780972D01*
Y1186486D01*
X780883D01*
Y1186308D01*
X780794D01*
Y1186219D01*
X780705D01*
Y1186130D01*
X780616D01*
Y1186042D01*
X780527D01*
Y1185953D01*
X780350D01*
Y1185864D01*
X772980D01*
Y1183822D01*
X772891D01*
Y1183644D01*
X772802D01*
Y1183555D01*
X772713D01*
Y1183466D01*
X772625D01*
Y1183378D01*
X772536D01*
Y1183289D01*
X772358D01*
Y1183200D01*
X770938D01*
Y1183289D01*
X770760D01*
Y1183378D01*
X770671D01*
Y1183466D01*
X770582D01*
Y1183555D01*
X770493D01*
Y1183644D01*
X770405D01*
Y1183822D01*
X770316D01*
Y1185864D01*
X768274D01*
Y1185953D01*
X768096D01*
Y1186042D01*
X768007D01*
Y1186130D01*
X767918D01*
Y1186219D01*
X767830D01*
Y1186308D01*
X767741D01*
Y1186486D01*
X767652D01*
Y1191192D01*
X764988D01*
Y1189149D01*
X764899D01*
Y1188972D01*
X764810D01*
Y1188883D01*
X764722D01*
Y1188794D01*
X764633D01*
Y1188706D01*
X764544D01*
Y1188617D01*
X764367D01*
Y1188528D01*
X760282D01*
Y1188617D01*
X760104D01*
Y1188706D01*
X760015D01*
Y1188794D01*
X759927D01*
Y1188883D01*
X759838D01*
Y1188972D01*
X759749D01*
Y1189149D01*
X759660D01*
Y1190570D01*
X759749D01*
Y1190748D01*
X759838D01*
Y1190837D01*
X759927D01*
Y1190926D01*
X760015D01*
Y1191014D01*
X760104D01*
Y1191103D01*
X760282D01*
Y1191192D01*
X762324D01*
Y1193856D01*
X760282D01*
Y1193945D01*
X760104D01*
Y1194033D01*
X760015D01*
Y1194122D01*
X759927D01*
Y1194211D01*
X759838D01*
Y1194300D01*
X759749D01*
Y1194477D01*
X759660D01*
Y1195898D01*
X759749D01*
Y1196076D01*
X759838D01*
Y1196164D01*
X759927D01*
Y1196253D01*
X760015D01*
Y1196342D01*
X760104D01*
Y1196431D01*
X760282D01*
Y1196520D01*
X764367D01*
Y1196431D01*
X764544D01*
Y1196342D01*
X764633D01*
Y1196253D01*
X764722D01*
Y1196164D01*
X764810D01*
Y1196076D01*
X764899D01*
Y1195898D01*
X764988D01*
Y1193856D01*
X769694D01*
Y1193767D01*
X769872D01*
Y1193678D01*
X769961D01*
Y1193589D01*
X770050D01*
Y1193501D01*
X770138D01*
Y1193412D01*
X770227D01*
Y1193234D01*
X770316D01*
Y1188528D01*
X772980D01*
Y1195898D01*
X773069D01*
Y1196076D01*
X773157D01*
Y1196164D01*
X773246D01*
Y1196253D01*
X773335D01*
Y1196342D01*
X773424D01*
Y1196431D01*
X773601D01*
Y1196520D01*
X777686D01*
Y1196431D01*
D02*
G37*
G36*
X719080Y1191103D02*
X719258D01*
Y1191014D01*
X719347D01*
Y1190926D01*
X719435D01*
Y1190837D01*
X719524D01*
Y1190748D01*
X719613D01*
Y1190570D01*
X719702D01*
Y1189149D01*
X719613D01*
Y1188972D01*
X719524D01*
Y1188883D01*
X719435D01*
Y1188794D01*
X719347D01*
Y1188706D01*
X719258D01*
Y1188617D01*
X719080D01*
Y1188528D01*
X714995D01*
Y1188617D01*
X714818D01*
Y1188706D01*
X714729D01*
Y1188794D01*
X714640D01*
Y1188883D01*
X714552D01*
Y1188972D01*
X714463D01*
Y1189149D01*
X714374D01*
Y1190570D01*
X714463D01*
Y1190748D01*
X714552D01*
Y1190837D01*
X714640D01*
Y1190926D01*
X714729D01*
Y1191014D01*
X714818D01*
Y1191103D01*
X714995D01*
Y1191192D01*
X719080D01*
Y1191103D01*
D02*
G37*
G36*
X692441D02*
X692619D01*
Y1191014D01*
X692708D01*
Y1190926D01*
X692796D01*
Y1190837D01*
X692885D01*
Y1190748D01*
X692974D01*
Y1190570D01*
X693063D01*
Y1189149D01*
X692974D01*
Y1188972D01*
X692885D01*
Y1188883D01*
X692796D01*
Y1188794D01*
X692708D01*
Y1188706D01*
X692619D01*
Y1188617D01*
X692441D01*
Y1188528D01*
X688356D01*
Y1188617D01*
X688179D01*
Y1188706D01*
X688090D01*
Y1188794D01*
X688001D01*
Y1188883D01*
X687913D01*
Y1188972D01*
X687824D01*
Y1189149D01*
X687735D01*
Y1190570D01*
X687824D01*
Y1190748D01*
X687913D01*
Y1190837D01*
X688001D01*
Y1190926D01*
X688090D01*
Y1191014D01*
X688179D01*
Y1191103D01*
X688356D01*
Y1191192D01*
X692441D01*
Y1191103D01*
D02*
G37*
G36*
X684449D02*
X684627D01*
Y1191014D01*
X684716D01*
Y1190926D01*
X684805D01*
Y1190837D01*
X684893D01*
Y1190748D01*
X684982D01*
Y1190570D01*
X685071D01*
Y1189149D01*
X684982D01*
Y1188972D01*
X684893D01*
Y1188883D01*
X684805D01*
Y1188794D01*
X684716D01*
Y1188706D01*
X684627D01*
Y1188617D01*
X684449D01*
Y1188528D01*
X683029D01*
Y1188617D01*
X682851D01*
Y1188706D01*
X682762D01*
Y1188794D01*
X682673D01*
Y1188883D01*
X682585D01*
Y1188972D01*
X682496D01*
Y1189149D01*
X682407D01*
Y1190570D01*
X682496D01*
Y1190748D01*
X682585D01*
Y1190837D01*
X682673D01*
Y1190926D01*
X682762D01*
Y1191014D01*
X682851D01*
Y1191103D01*
X683029D01*
Y1191192D01*
X684449D01*
Y1191103D01*
D02*
G37*
G36*
X759039Y1188439D02*
X759216D01*
Y1188350D01*
X759305D01*
Y1188262D01*
X759394D01*
Y1188173D01*
X759483D01*
Y1188084D01*
X759572D01*
Y1187906D01*
X759660D01*
Y1187196D01*
Y1187107D01*
Y1186486D01*
X759572D01*
Y1186308D01*
X759483D01*
Y1186219D01*
X759394D01*
Y1186130D01*
X759305D01*
Y1186042D01*
X759216D01*
Y1185953D01*
X759039D01*
Y1185864D01*
X757618D01*
Y1185953D01*
X757440D01*
Y1186042D01*
X757352D01*
Y1186130D01*
X757263D01*
Y1186219D01*
X757174D01*
Y1186308D01*
X757085D01*
Y1186486D01*
X756996D01*
Y1187906D01*
X757085D01*
Y1188084D01*
X757174D01*
Y1188173D01*
X757263D01*
Y1188262D01*
X757352D01*
Y1188350D01*
X757440D01*
Y1188439D01*
X757618D01*
Y1188528D01*
X759039D01*
Y1188439D01*
D02*
G37*
G36*
X727072D02*
X727250D01*
Y1188350D01*
X727338D01*
Y1188262D01*
X727427D01*
Y1188173D01*
X727516D01*
Y1188084D01*
X727605D01*
Y1187906D01*
X727693D01*
Y1186486D01*
X727605D01*
Y1186308D01*
X727516D01*
Y1186219D01*
X727427D01*
Y1186130D01*
X727338D01*
Y1186042D01*
X727250D01*
Y1185953D01*
X727072D01*
Y1185864D01*
X722366D01*
Y1184976D01*
Y1184887D01*
Y1183200D01*
X724408D01*
Y1183111D01*
X724586D01*
Y1183023D01*
X724674D01*
Y1182934D01*
X724763D01*
Y1182845D01*
X724852D01*
Y1182756D01*
X724941D01*
Y1182579D01*
X725030D01*
Y1178494D01*
X724941D01*
Y1178316D01*
X724852D01*
Y1178227D01*
X724763D01*
Y1178139D01*
X724674D01*
Y1178050D01*
X724586D01*
Y1177961D01*
X724408D01*
Y1177872D01*
X722987D01*
Y1177961D01*
X722810D01*
Y1178050D01*
X722721D01*
Y1178139D01*
X722632D01*
Y1178227D01*
X722543D01*
Y1178316D01*
X722455D01*
Y1178494D01*
X722366D01*
Y1180536D01*
X720323D01*
Y1180625D01*
X720146D01*
Y1180714D01*
X720057D01*
Y1180803D01*
X719968D01*
Y1180891D01*
X719879D01*
Y1180980D01*
X719791D01*
Y1181158D01*
X719702D01*
Y1183200D01*
X717038D01*
Y1181158D01*
X716949D01*
Y1180980D01*
X716860D01*
Y1180891D01*
X716771D01*
Y1180803D01*
X716683D01*
Y1180714D01*
X716594D01*
Y1180625D01*
X716416D01*
Y1180536D01*
X714995D01*
Y1180625D01*
X714818D01*
Y1180714D01*
X714729D01*
Y1180803D01*
X714640D01*
Y1180891D01*
X714552D01*
Y1180980D01*
X714463D01*
Y1181158D01*
X714374D01*
Y1183200D01*
X712332D01*
Y1183289D01*
X712154D01*
Y1183378D01*
X712065D01*
Y1183466D01*
X711976D01*
Y1183555D01*
X711888D01*
Y1183644D01*
X711799D01*
Y1183822D01*
X711710D01*
Y1187906D01*
X711799D01*
Y1188084D01*
X711888D01*
Y1188173D01*
X711976D01*
Y1188262D01*
X712065D01*
Y1188350D01*
X712154D01*
Y1188439D01*
X712332D01*
Y1188528D01*
X713752D01*
Y1188439D01*
X713930D01*
Y1188350D01*
X714019D01*
Y1188262D01*
X714108D01*
Y1188173D01*
X714196D01*
Y1188084D01*
X714285D01*
Y1187906D01*
X714374D01*
Y1185864D01*
X719702D01*
Y1187906D01*
X719791D01*
Y1188084D01*
X719879D01*
Y1188173D01*
X719968D01*
Y1188262D01*
X720057D01*
Y1188350D01*
X720146D01*
Y1188439D01*
X720323D01*
Y1188528D01*
X727072D01*
Y1188439D01*
D02*
G37*
G36*
X703097D02*
X703274D01*
Y1188350D01*
X703363D01*
Y1188262D01*
X703452D01*
Y1188173D01*
X703541D01*
Y1188084D01*
X703630D01*
Y1187906D01*
X703718D01*
Y1186486D01*
X703630D01*
Y1186308D01*
X703541D01*
Y1186219D01*
X703452D01*
Y1186130D01*
X703363D01*
Y1186042D01*
X703274D01*
Y1185953D01*
X703097D01*
Y1185864D01*
X701676D01*
Y1185953D01*
X701498D01*
Y1186042D01*
X701410D01*
Y1186130D01*
X701321D01*
Y1186219D01*
X701232D01*
Y1186308D01*
X701143D01*
Y1186486D01*
X701055D01*
Y1187906D01*
X701143D01*
Y1188084D01*
X701232D01*
Y1188173D01*
X701321D01*
Y1188262D01*
X701410D01*
Y1188350D01*
X701498D01*
Y1188439D01*
X701676D01*
Y1188528D01*
X703097D01*
Y1188439D01*
D02*
G37*
G36*
X761703Y1185775D02*
X761880D01*
Y1185686D01*
X761969D01*
Y1185598D01*
X762058D01*
Y1185509D01*
X762147D01*
Y1185420D01*
X762235D01*
Y1185242D01*
X762324D01*
Y1183822D01*
X762235D01*
Y1183644D01*
X762147D01*
Y1183555D01*
X762058D01*
Y1183466D01*
X761969D01*
Y1183378D01*
X761880D01*
Y1183289D01*
X761703D01*
Y1183200D01*
X760282D01*
Y1183289D01*
X760104D01*
Y1183378D01*
X760015D01*
Y1183466D01*
X759927D01*
Y1183555D01*
X759838D01*
Y1183644D01*
X759749D01*
Y1183822D01*
X759660D01*
Y1185242D01*
X759749D01*
Y1185420D01*
X759838D01*
Y1185509D01*
X759927D01*
Y1185598D01*
X760015D01*
Y1185686D01*
X760104D01*
Y1185775D01*
X760282D01*
Y1185864D01*
X761703D01*
Y1185775D01*
D02*
G37*
G36*
X735064Y1191103D02*
X735241D01*
Y1191014D01*
X735330D01*
Y1190926D01*
X735419D01*
Y1190837D01*
X735508D01*
Y1190748D01*
X735596D01*
Y1190570D01*
X735685D01*
Y1186486D01*
X735596D01*
Y1186308D01*
X735508D01*
Y1186219D01*
X735419D01*
Y1186130D01*
X735330D01*
Y1186042D01*
X735241D01*
Y1185953D01*
X735064D01*
Y1185864D01*
X733021D01*
Y1183822D01*
X732933D01*
Y1183644D01*
X732844D01*
Y1183555D01*
X732755D01*
Y1183466D01*
X732666D01*
Y1183378D01*
X732577D01*
Y1183289D01*
X732400D01*
Y1183200D01*
X730979D01*
Y1183289D01*
X730801D01*
Y1183378D01*
X730713D01*
Y1183466D01*
X730624D01*
Y1183555D01*
X730535D01*
Y1183644D01*
X730446D01*
Y1183822D01*
X730357D01*
Y1187906D01*
X730446D01*
Y1188084D01*
X730535D01*
Y1188173D01*
X730624D01*
Y1188262D01*
X730713D01*
Y1188350D01*
X730801D01*
Y1188439D01*
X730979D01*
Y1188528D01*
X733021D01*
Y1188706D01*
Y1188794D01*
Y1190570D01*
X733110D01*
Y1190748D01*
X733199D01*
Y1190837D01*
X733288D01*
Y1190926D01*
X733376D01*
Y1191014D01*
X733465D01*
Y1191103D01*
X733643D01*
Y1191192D01*
X735064D01*
Y1191103D01*
D02*
G37*
G36*
X700433D02*
X700611D01*
Y1191014D01*
X700699D01*
Y1190926D01*
X700788D01*
Y1190837D01*
X700877D01*
Y1190748D01*
X700966D01*
Y1190570D01*
X701055D01*
Y1189149D01*
X700966D01*
Y1188972D01*
X700877D01*
Y1188883D01*
X700788D01*
Y1188794D01*
X700699D01*
Y1188706D01*
X700611D01*
Y1188617D01*
X700433D01*
Y1188528D01*
X698391D01*
Y1185864D01*
X700433D01*
Y1185775D01*
X700611D01*
Y1185686D01*
X700699D01*
Y1185598D01*
X700788D01*
Y1185509D01*
X700877D01*
Y1185420D01*
X700966D01*
Y1185242D01*
X701055D01*
Y1183822D01*
X700966D01*
Y1183644D01*
X700877D01*
Y1183555D01*
X700788D01*
Y1183466D01*
X700699D01*
Y1183378D01*
X700611D01*
Y1183289D01*
X700433D01*
Y1183200D01*
X691020D01*
Y1183289D01*
X690843D01*
Y1183378D01*
X690754D01*
Y1183466D01*
X690665D01*
Y1183555D01*
X690576D01*
Y1183644D01*
X690488D01*
Y1183822D01*
X690399D01*
Y1185242D01*
X690488D01*
Y1185420D01*
X690576D01*
Y1185509D01*
X690665D01*
Y1185598D01*
X690754D01*
Y1185686D01*
X690843D01*
Y1185775D01*
X691020D01*
Y1185864D01*
X695727D01*
Y1190570D01*
X695815D01*
Y1190748D01*
X695904D01*
Y1190837D01*
X695993D01*
Y1190926D01*
X696082D01*
Y1191014D01*
X696171D01*
Y1191103D01*
X696348D01*
Y1191192D01*
X700433D01*
Y1191103D01*
D02*
G37*
G36*
X777686Y1183111D02*
X777864D01*
Y1183023D01*
X777952D01*
Y1182934D01*
X778041D01*
Y1182845D01*
X778130D01*
Y1182756D01*
X778219D01*
Y1182579D01*
X778308D01*
Y1181158D01*
X778219D01*
Y1180980D01*
X778130D01*
Y1180891D01*
X778041D01*
Y1180803D01*
X777952D01*
Y1180714D01*
X777864D01*
Y1180625D01*
X777686D01*
Y1180536D01*
X776265D01*
Y1180625D01*
X776088D01*
Y1180714D01*
X775999D01*
Y1180803D01*
X775910D01*
Y1180891D01*
X775821D01*
Y1180980D01*
X775732D01*
Y1181158D01*
X775644D01*
Y1182579D01*
X775732D01*
Y1182756D01*
X775821D01*
Y1182845D01*
X775910D01*
Y1182934D01*
X775999D01*
Y1183023D01*
X776088D01*
Y1183111D01*
X776265D01*
Y1183200D01*
X777686D01*
Y1183111D01*
D02*
G37*
G36*
X767030D02*
X767208D01*
Y1183023D01*
X767297D01*
Y1182934D01*
X767386D01*
Y1182845D01*
X767474D01*
Y1182756D01*
X767563D01*
Y1182579D01*
X767652D01*
Y1181158D01*
X767563D01*
Y1180980D01*
X767474D01*
Y1180891D01*
X767386D01*
Y1180803D01*
X767297D01*
Y1180714D01*
X767208D01*
Y1180625D01*
X767030D01*
Y1180536D01*
X765610D01*
Y1180625D01*
X765432D01*
Y1180714D01*
X765343D01*
Y1180803D01*
X765255D01*
Y1180891D01*
X765166D01*
Y1180980D01*
X765077D01*
Y1181158D01*
X764988D01*
Y1182579D01*
X765077D01*
Y1182756D01*
X765166D01*
Y1182845D01*
X765255D01*
Y1182934D01*
X765343D01*
Y1183023D01*
X765432D01*
Y1183111D01*
X765610D01*
Y1183200D01*
X767030D01*
Y1183111D01*
D02*
G37*
G36*
X737728Y1185775D02*
X737905D01*
Y1185686D01*
X737994D01*
Y1185598D01*
X738083D01*
Y1185509D01*
X738171D01*
Y1185420D01*
X738260D01*
Y1185242D01*
X738349D01*
Y1181158D01*
X738260D01*
Y1180980D01*
X738171D01*
Y1180891D01*
X738083D01*
Y1180803D01*
X737994D01*
Y1180714D01*
X737905D01*
Y1180625D01*
X737728D01*
Y1180536D01*
X736307D01*
Y1180625D01*
X736129D01*
Y1180714D01*
X736040D01*
Y1180803D01*
X735952D01*
Y1180891D01*
X735863D01*
Y1180980D01*
X735774D01*
Y1181158D01*
X735685D01*
Y1183466D01*
Y1183555D01*
Y1185242D01*
X735774D01*
Y1185420D01*
X735863D01*
Y1185509D01*
X735952D01*
Y1185598D01*
X736040D01*
Y1185686D01*
X736129D01*
Y1185775D01*
X736307D01*
Y1185864D01*
X737728D01*
Y1185775D01*
D02*
G37*
G36*
X708425D02*
X708602D01*
Y1185686D01*
X708691D01*
Y1185598D01*
X708780D01*
Y1185509D01*
X708869D01*
Y1185420D01*
X708957D01*
Y1185242D01*
X709046D01*
Y1183200D01*
X711088D01*
Y1183111D01*
X711266D01*
Y1183023D01*
X711355D01*
Y1182934D01*
X711444D01*
Y1182845D01*
X711533D01*
Y1182756D01*
X711621D01*
Y1182579D01*
X711710D01*
Y1181158D01*
X711621D01*
Y1180980D01*
X711533D01*
Y1180891D01*
X711444D01*
Y1180803D01*
X711355D01*
Y1180714D01*
X711266D01*
Y1180625D01*
X711088D01*
Y1180536D01*
X709046D01*
Y1175830D01*
X708957D01*
Y1175652D01*
X708869D01*
Y1175564D01*
X708780D01*
Y1175475D01*
X708691D01*
Y1175386D01*
X708602D01*
Y1175297D01*
X708425D01*
Y1175208D01*
X706382D01*
Y1173166D01*
X706293D01*
Y1172989D01*
X706205D01*
Y1172900D01*
X706116D01*
Y1172811D01*
X706027D01*
Y1172722D01*
X705938D01*
Y1172633D01*
X705761D01*
Y1172544D01*
X704340D01*
Y1172633D01*
X704162D01*
Y1172722D01*
X704073D01*
Y1172811D01*
X703985D01*
Y1172900D01*
X703896D01*
Y1172989D01*
X703807D01*
Y1173166D01*
X703718D01*
Y1177872D01*
X699012D01*
Y1177961D01*
X698835D01*
Y1178050D01*
X698746D01*
Y1178139D01*
X698657D01*
Y1178227D01*
X698568D01*
Y1178316D01*
X698479D01*
Y1178494D01*
X698391D01*
Y1179915D01*
X698479D01*
Y1180092D01*
X698568D01*
Y1180181D01*
X698657D01*
Y1180270D01*
X698746D01*
Y1180359D01*
X698835D01*
Y1180447D01*
X699012D01*
Y1180536D01*
X701055D01*
Y1182579D01*
X701143D01*
Y1182756D01*
X701232D01*
Y1182845D01*
X701321D01*
Y1182934D01*
X701410D01*
Y1183023D01*
X701498D01*
Y1183111D01*
X701676D01*
Y1183200D01*
X703097D01*
Y1183111D01*
X703274D01*
Y1183023D01*
X703363D01*
Y1182934D01*
X703452D01*
Y1182845D01*
X703541D01*
Y1182756D01*
X703630D01*
Y1182579D01*
X703718D01*
Y1180536D01*
X706382D01*
Y1185242D01*
X706471D01*
Y1185420D01*
X706560D01*
Y1185509D01*
X706649D01*
Y1185598D01*
X706737D01*
Y1185686D01*
X706826D01*
Y1185775D01*
X707004D01*
Y1185864D01*
X708425D01*
Y1185775D01*
D02*
G37*
G36*
X687113Y1188439D02*
X687291D01*
Y1188350D01*
X687380D01*
Y1188262D01*
X687469D01*
Y1188173D01*
X687557D01*
Y1188084D01*
X687646D01*
Y1187906D01*
X687735D01*
Y1181158D01*
X687646D01*
Y1180980D01*
X687557D01*
Y1180891D01*
X687469D01*
Y1180803D01*
X687380D01*
Y1180714D01*
X687291D01*
Y1180625D01*
X687113D01*
Y1180536D01*
X685693D01*
Y1180625D01*
X685515D01*
Y1180714D01*
X685426D01*
Y1180803D01*
X685337D01*
Y1180891D01*
X685249D01*
Y1180980D01*
X685160D01*
Y1181158D01*
X685071D01*
Y1183200D01*
X683029D01*
Y1183289D01*
X682851D01*
Y1183378D01*
X682762D01*
Y1183466D01*
X682673D01*
Y1183555D01*
X682585D01*
Y1183644D01*
X682496D01*
Y1183822D01*
X682407D01*
Y1185242D01*
X682496D01*
Y1185420D01*
X682585D01*
Y1185509D01*
X682673D01*
Y1185598D01*
X682762D01*
Y1185686D01*
X682851D01*
Y1185775D01*
X683029D01*
Y1185864D01*
X685071D01*
Y1187906D01*
X685160D01*
Y1188084D01*
X685249D01*
Y1188173D01*
X685337D01*
Y1188262D01*
X685426D01*
Y1188350D01*
X685515D01*
Y1188439D01*
X685693D01*
Y1188528D01*
X687113D01*
Y1188439D01*
D02*
G37*
G36*
X769694Y1180447D02*
X769872D01*
Y1180359D01*
X769961D01*
Y1180270D01*
X770050D01*
Y1180181D01*
X770138D01*
Y1180092D01*
X770227D01*
Y1179915D01*
X770316D01*
Y1178494D01*
X770227D01*
Y1178316D01*
X770138D01*
Y1178227D01*
X770050D01*
Y1178139D01*
X769961D01*
Y1178050D01*
X769872D01*
Y1177961D01*
X769694D01*
Y1177872D01*
X768274D01*
Y1177961D01*
X768096D01*
Y1178050D01*
X768007D01*
Y1178139D01*
X767918D01*
Y1178227D01*
X767830D01*
Y1178316D01*
X767741D01*
Y1178494D01*
X767652D01*
Y1179915D01*
X767741D01*
Y1180092D01*
X767830D01*
Y1180181D01*
X767918D01*
Y1180270D01*
X768007D01*
Y1180359D01*
X768096D01*
Y1180447D01*
X768274D01*
Y1180536D01*
X769694D01*
Y1180447D01*
D02*
G37*
G36*
X735064D02*
X735241D01*
Y1180359D01*
X735330D01*
Y1180270D01*
X735419D01*
Y1180181D01*
X735508D01*
Y1180092D01*
X735596D01*
Y1179915D01*
X735685D01*
Y1178494D01*
X735596D01*
Y1178316D01*
X735508D01*
Y1178227D01*
X735419D01*
Y1178139D01*
X735330D01*
Y1178050D01*
X735241D01*
Y1177961D01*
X735064D01*
Y1177872D01*
X733643D01*
Y1177961D01*
X733465D01*
Y1178050D01*
X733376D01*
Y1178139D01*
X733288D01*
Y1178227D01*
X733199D01*
Y1178316D01*
X733110D01*
Y1178405D01*
Y1178494D01*
X733021D01*
Y1179915D01*
X733110D01*
Y1180092D01*
X733199D01*
Y1180181D01*
X733288D01*
Y1180270D01*
X733376D01*
Y1180359D01*
X733465D01*
Y1180447D01*
X733643D01*
Y1180536D01*
X735064D01*
Y1180447D01*
D02*
G37*
G36*
X713752D02*
X713930D01*
Y1180359D01*
X714019D01*
Y1180270D01*
X714108D01*
Y1180181D01*
X714196D01*
Y1180092D01*
X714285D01*
Y1179915D01*
X714374D01*
Y1178494D01*
X714285D01*
Y1178316D01*
X714196D01*
Y1178227D01*
X714108D01*
Y1178139D01*
X714019D01*
Y1178050D01*
X713930D01*
Y1177961D01*
X713752D01*
Y1177872D01*
X712332D01*
Y1177961D01*
X712154D01*
Y1178050D01*
X712065D01*
Y1178139D01*
X711976D01*
Y1178227D01*
X711888D01*
Y1178316D01*
X711799D01*
Y1178494D01*
X711710D01*
Y1179915D01*
X711799D01*
Y1180092D01*
X711888D01*
Y1180181D01*
X711976D01*
Y1180270D01*
X712065D01*
Y1180359D01*
X712154D01*
Y1180447D01*
X712332D01*
Y1180536D01*
X713752D01*
Y1180447D01*
D02*
G37*
G36*
X692441D02*
X692619D01*
Y1180359D01*
X692708D01*
Y1180270D01*
X692796D01*
Y1180181D01*
X692885D01*
Y1180092D01*
X692974D01*
Y1179915D01*
X693063D01*
Y1178494D01*
X692974D01*
Y1178316D01*
X692885D01*
Y1178227D01*
X692796D01*
Y1178139D01*
X692708D01*
Y1178050D01*
X692619D01*
Y1177961D01*
X692441D01*
Y1177872D01*
X688356D01*
Y1177961D01*
X688179D01*
Y1178050D01*
X688090D01*
Y1178139D01*
X688001D01*
Y1178227D01*
X687913D01*
Y1178316D01*
X687824D01*
Y1178494D01*
X687735D01*
Y1179915D01*
X687824D01*
Y1180092D01*
X687913D01*
Y1180181D01*
X688001D01*
Y1180270D01*
X688090D01*
Y1180359D01*
X688179D01*
Y1180447D01*
X688356D01*
Y1180536D01*
X692441D01*
Y1180447D01*
D02*
G37*
G36*
X719080Y1177784D02*
X719258D01*
Y1177695D01*
X719347D01*
Y1177606D01*
X719435D01*
Y1177517D01*
X719524D01*
Y1177428D01*
X719613D01*
Y1177251D01*
X719702D01*
Y1175830D01*
X719613D01*
Y1175652D01*
X719524D01*
Y1175564D01*
X719435D01*
Y1175475D01*
X719347D01*
Y1175386D01*
X719258D01*
Y1175297D01*
X719080D01*
Y1175208D01*
X717659D01*
Y1175297D01*
X717482D01*
Y1175386D01*
X717393D01*
Y1175475D01*
X717304D01*
Y1175564D01*
X717215D01*
Y1175652D01*
X717127D01*
Y1175830D01*
X717038D01*
Y1177251D01*
X717127D01*
Y1177428D01*
X717215D01*
Y1177517D01*
X717304D01*
Y1177606D01*
X717393D01*
Y1177695D01*
X717482D01*
Y1177784D01*
X717659D01*
Y1177872D01*
X719080D01*
Y1177784D01*
D02*
G37*
G36*
X759039Y1183111D02*
X759216D01*
Y1183023D01*
X759305D01*
Y1182934D01*
X759394D01*
Y1182845D01*
X759483D01*
Y1182756D01*
X759572D01*
Y1182579D01*
X759660D01*
Y1180536D01*
X764367D01*
Y1180447D01*
X764544D01*
Y1180359D01*
X764633D01*
Y1180270D01*
X764722D01*
Y1180181D01*
X764810D01*
Y1180092D01*
X764899D01*
Y1179915D01*
X764988D01*
Y1178494D01*
X764899D01*
Y1178316D01*
X764810D01*
Y1178227D01*
X764722D01*
Y1178139D01*
X764633D01*
Y1178050D01*
X764544D01*
Y1177961D01*
X764367D01*
Y1177872D01*
X759660D01*
Y1176718D01*
Y1176629D01*
Y1173166D01*
X759572D01*
Y1172989D01*
X759483D01*
Y1172900D01*
X759394D01*
Y1172811D01*
X759305D01*
Y1172722D01*
X759216D01*
Y1172633D01*
X759039D01*
Y1172544D01*
X757618D01*
Y1172633D01*
X757440D01*
Y1172722D01*
X757352D01*
Y1172811D01*
X757263D01*
Y1172900D01*
X757174D01*
Y1172989D01*
X757085D01*
Y1173166D01*
X756996D01*
Y1175208D01*
X754954D01*
Y1175297D01*
X754777D01*
Y1175386D01*
X754688D01*
Y1175475D01*
X754599D01*
Y1175564D01*
X754510D01*
Y1175652D01*
X754421D01*
Y1175830D01*
X754333D01*
Y1177872D01*
X752290D01*
Y1177961D01*
X752113D01*
Y1178050D01*
X752024D01*
Y1178139D01*
X751935D01*
Y1178227D01*
X751846D01*
Y1178316D01*
X751757D01*
Y1178494D01*
X751669D01*
Y1179915D01*
X751757D01*
Y1180092D01*
X751846D01*
Y1180181D01*
X751935D01*
Y1180270D01*
X752024D01*
Y1180359D01*
X752113D01*
Y1180447D01*
X752290D01*
Y1180536D01*
X756996D01*
Y1182579D01*
X757085D01*
Y1182756D01*
X757174D01*
Y1182845D01*
X757263D01*
Y1182934D01*
X757352D01*
Y1183023D01*
X757440D01*
Y1183111D01*
X757618D01*
Y1183200D01*
X759039D01*
Y1183111D01*
D02*
G37*
G36*
X732400Y1175120D02*
X732577D01*
Y1175031D01*
X732666D01*
Y1174942D01*
X732755D01*
Y1174853D01*
X732844D01*
Y1174764D01*
X732933D01*
Y1174587D01*
X733021D01*
Y1173166D01*
X732933D01*
Y1172989D01*
X732844D01*
Y1172900D01*
X732755D01*
Y1172811D01*
X732666D01*
Y1172722D01*
X732577D01*
Y1172633D01*
X732400D01*
Y1172544D01*
X730979D01*
Y1172633D01*
X730801D01*
Y1172722D01*
X730713D01*
Y1172811D01*
X730624D01*
Y1172900D01*
X730535D01*
Y1172989D01*
X730446D01*
Y1173166D01*
X730357D01*
Y1174587D01*
X730446D01*
Y1174764D01*
X730535D01*
Y1174853D01*
X730624D01*
Y1174942D01*
X730713D01*
Y1175031D01*
X730801D01*
Y1175120D01*
X730979D01*
Y1175208D01*
X732400D01*
Y1175120D01*
D02*
G37*
G36*
X729736Y1183111D02*
X729913D01*
Y1183023D01*
X730002D01*
Y1182934D01*
X730091D01*
Y1182845D01*
X730180D01*
Y1182756D01*
X730269D01*
Y1182579D01*
X730357D01*
Y1181868D01*
Y1181779D01*
Y1175830D01*
X730269D01*
Y1175652D01*
X730180D01*
Y1175564D01*
X730091D01*
Y1175475D01*
X730002D01*
Y1175386D01*
X729913D01*
Y1175297D01*
X729736D01*
Y1175208D01*
X727693D01*
Y1173166D01*
X727605D01*
Y1172989D01*
X727516D01*
Y1172900D01*
X727427D01*
Y1172811D01*
X727338D01*
Y1172722D01*
X727250D01*
Y1172633D01*
X727072D01*
Y1172544D01*
X725651D01*
Y1172633D01*
X725474D01*
Y1172722D01*
X725385D01*
Y1172811D01*
X725296D01*
Y1172900D01*
X725207D01*
Y1172989D01*
X725118D01*
Y1173166D01*
X725030D01*
Y1177251D01*
X725118D01*
Y1177428D01*
X725207D01*
Y1177517D01*
X725296D01*
Y1177606D01*
X725385D01*
Y1177695D01*
X725474D01*
Y1177784D01*
X725651D01*
Y1177872D01*
X727693D01*
Y1182579D01*
X727782D01*
Y1182756D01*
X727871D01*
Y1182845D01*
X727960D01*
Y1182934D01*
X728049D01*
Y1183023D01*
X728138D01*
Y1183111D01*
X728315D01*
Y1183200D01*
X729736D01*
Y1183111D01*
D02*
G37*
G36*
X721744Y1175120D02*
X721922D01*
Y1175031D01*
X722010D01*
Y1174942D01*
X722099D01*
Y1174853D01*
X722188D01*
Y1174764D01*
X722277D01*
Y1174587D01*
X722366D01*
Y1173166D01*
X722277D01*
Y1172989D01*
X722188D01*
Y1172900D01*
X722099D01*
Y1172811D01*
X722010D01*
Y1172722D01*
X721922D01*
Y1172633D01*
X721744D01*
Y1172544D01*
X720323D01*
Y1172633D01*
X720146D01*
Y1172722D01*
X720057D01*
Y1172811D01*
X719968D01*
Y1172900D01*
X719879D01*
Y1172989D01*
X719791D01*
Y1173166D01*
X719702D01*
Y1174587D01*
X719791D01*
Y1174764D01*
X719879D01*
Y1174853D01*
X719968D01*
Y1174942D01*
X720057D01*
Y1175031D01*
X720146D01*
Y1175120D01*
X720323D01*
Y1175208D01*
X721744D01*
Y1175120D01*
D02*
G37*
G36*
X716416D02*
X716594D01*
Y1175031D01*
X716683D01*
Y1174942D01*
X716771D01*
Y1174853D01*
X716860D01*
Y1174764D01*
X716949D01*
Y1174587D01*
X717038D01*
Y1173166D01*
X716949D01*
Y1172989D01*
X716860D01*
Y1172900D01*
X716771D01*
Y1172811D01*
X716683D01*
Y1172722D01*
X716594D01*
Y1172633D01*
X716416D01*
Y1172544D01*
X714995D01*
Y1172633D01*
X714818D01*
Y1172722D01*
X714729D01*
Y1172811D01*
X714640D01*
Y1172900D01*
X714552D01*
Y1172989D01*
X714463D01*
Y1173166D01*
X714374D01*
Y1174409D01*
Y1174498D01*
Y1174587D01*
X714463D01*
Y1174764D01*
X714552D01*
Y1174853D01*
X714640D01*
Y1174942D01*
X714729D01*
Y1175031D01*
X714818D01*
Y1175120D01*
X714995D01*
Y1175208D01*
X716416D01*
Y1175120D01*
D02*
G37*
G36*
X753711D02*
X753888D01*
Y1175031D01*
X753977D01*
Y1174942D01*
X754066D01*
Y1174853D01*
X754155D01*
Y1174764D01*
X754244D01*
Y1174587D01*
X754333D01*
Y1170502D01*
X754244D01*
Y1170325D01*
X754155D01*
Y1170236D01*
X754066D01*
Y1170147D01*
X753977D01*
Y1170058D01*
X753888D01*
Y1169969D01*
X753711D01*
Y1169881D01*
X752290D01*
Y1169969D01*
X752113D01*
Y1170058D01*
X752024D01*
Y1170147D01*
X751935D01*
Y1170236D01*
X751846D01*
Y1170325D01*
X751757D01*
Y1170502D01*
X751669D01*
Y1174587D01*
X751757D01*
Y1174764D01*
X751846D01*
Y1174853D01*
X751935D01*
Y1174942D01*
X752024D01*
Y1175031D01*
X752113D01*
Y1175120D01*
X752290D01*
Y1175208D01*
X753711D01*
Y1175120D01*
D02*
G37*
G36*
X743055Y1183111D02*
X743233D01*
Y1183023D01*
X743322D01*
Y1182934D01*
X743410D01*
Y1182845D01*
X743499D01*
Y1182756D01*
X743588D01*
Y1182579D01*
X743677D01*
Y1180536D01*
X748383D01*
Y1180447D01*
X748561D01*
Y1180359D01*
X748650D01*
Y1180270D01*
X748738D01*
Y1180181D01*
X748827D01*
Y1180092D01*
X748916D01*
Y1179915D01*
X749005D01*
Y1170502D01*
X748916D01*
Y1170325D01*
X748827D01*
Y1170236D01*
X748738D01*
Y1170147D01*
X748650D01*
Y1170058D01*
X748561D01*
Y1169969D01*
X748383D01*
Y1169881D01*
X746962D01*
Y1169969D01*
X746785D01*
Y1170058D01*
X746696D01*
Y1170147D01*
X746607D01*
Y1170236D01*
X746518D01*
Y1170325D01*
X746430D01*
Y1170502D01*
X746341D01*
Y1177872D01*
X741013D01*
Y1175830D01*
X740924D01*
Y1175652D01*
X740835D01*
Y1175564D01*
X740747D01*
Y1175475D01*
X740658D01*
Y1175386D01*
X740569D01*
Y1175297D01*
X740391D01*
Y1175208D01*
X738349D01*
Y1170502D01*
X738260D01*
Y1170325D01*
X738171D01*
Y1170236D01*
X738083D01*
Y1170147D01*
X737994D01*
Y1170058D01*
X737905D01*
Y1169969D01*
X737728D01*
Y1169881D01*
X735685D01*
Y1159847D01*
X735596D01*
Y1159669D01*
X735508D01*
Y1159580D01*
X735419D01*
Y1159491D01*
X735330D01*
Y1159403D01*
X735241D01*
Y1159314D01*
X735064D01*
Y1159225D01*
X733643D01*
Y1159314D01*
X733465D01*
Y1159403D01*
X733376D01*
Y1159491D01*
X733288D01*
Y1159580D01*
X733199D01*
Y1159669D01*
X733110D01*
Y1159847D01*
X733021D01*
Y1161889D01*
X730357D01*
Y1157183D01*
X730269D01*
Y1157005D01*
X730180D01*
Y1156916D01*
X730091D01*
Y1156827D01*
X730002D01*
Y1156739D01*
X729913D01*
Y1156650D01*
X729736D01*
Y1156561D01*
X728315D01*
Y1156650D01*
X728138D01*
Y1156739D01*
X728049D01*
Y1156827D01*
X727960D01*
Y1156916D01*
X727871D01*
Y1157005D01*
X727782D01*
Y1157183D01*
X727693D01*
Y1167217D01*
X725030D01*
Y1162511D01*
X724941D01*
Y1162333D01*
X724852D01*
Y1162244D01*
X724763D01*
Y1162155D01*
X724674D01*
Y1162066D01*
X724586D01*
Y1161978D01*
X724408D01*
Y1161889D01*
X720323D01*
Y1161978D01*
X720146D01*
Y1162066D01*
X720057D01*
Y1162155D01*
X719968D01*
Y1162244D01*
X719879D01*
Y1162333D01*
X719791D01*
Y1162511D01*
X719702D01*
Y1163931D01*
X719791D01*
Y1164109D01*
X719879D01*
Y1164198D01*
X719968D01*
Y1164286D01*
X720057D01*
Y1164375D01*
X720146D01*
Y1164464D01*
X720323D01*
Y1164553D01*
X722366D01*
Y1167217D01*
X720323D01*
Y1167306D01*
X720146D01*
Y1167394D01*
X720057D01*
Y1167483D01*
X719968D01*
Y1167572D01*
X719879D01*
Y1167661D01*
X719791D01*
Y1167838D01*
X719702D01*
Y1169259D01*
X719791D01*
Y1169437D01*
X719879D01*
Y1169525D01*
X719968D01*
Y1169614D01*
X720057D01*
Y1169703D01*
X720146D01*
Y1169792D01*
X720323D01*
Y1169881D01*
X733021D01*
Y1171923D01*
X733110D01*
Y1172101D01*
X733199D01*
Y1172189D01*
X733288D01*
Y1172278D01*
X733376D01*
Y1172367D01*
X733465D01*
Y1172456D01*
X733643D01*
Y1172544D01*
X735685D01*
Y1177251D01*
X735774D01*
Y1177428D01*
X735863D01*
Y1177517D01*
X735952D01*
Y1177606D01*
X736040D01*
Y1177695D01*
X736129D01*
Y1177784D01*
X736307D01*
Y1177872D01*
X738349D01*
Y1179915D01*
X738438D01*
Y1180092D01*
X738527D01*
Y1180181D01*
X738615D01*
Y1180270D01*
X738704D01*
Y1180359D01*
X738793D01*
Y1180447D01*
X738971D01*
Y1180536D01*
X741013D01*
Y1182579D01*
X741102D01*
Y1182756D01*
X741191D01*
Y1182845D01*
X741279D01*
Y1182934D01*
X741368D01*
Y1183023D01*
X741457D01*
Y1183111D01*
X741635D01*
Y1183200D01*
X743055D01*
Y1183111D01*
D02*
G37*
G36*
Y1175120D02*
X743233D01*
Y1175031D01*
X743322D01*
Y1174942D01*
X743410D01*
Y1174853D01*
X743499D01*
Y1174764D01*
X743588D01*
Y1174587D01*
X743677D01*
Y1170502D01*
X743588D01*
Y1170325D01*
X743499D01*
Y1170236D01*
X743410D01*
Y1170147D01*
X743322D01*
Y1170058D01*
X743233D01*
Y1169969D01*
X743055D01*
Y1169881D01*
X741635D01*
Y1169969D01*
X741457D01*
Y1170058D01*
X741368D01*
Y1170147D01*
X741279D01*
Y1170236D01*
X741191D01*
Y1170325D01*
X741102D01*
Y1170502D01*
X741013D01*
Y1174321D01*
Y1174409D01*
Y1174587D01*
X741102D01*
Y1174764D01*
X741191D01*
Y1174853D01*
X741279D01*
Y1174942D01*
X741368D01*
Y1175031D01*
X741457D01*
Y1175120D01*
X741635D01*
Y1175208D01*
X743055D01*
Y1175120D01*
D02*
G37*
G36*
X719080Y1172456D02*
X719258D01*
Y1172367D01*
X719347D01*
Y1172278D01*
X719435D01*
Y1172189D01*
X719524D01*
Y1172101D01*
X719613D01*
Y1171923D01*
X719702D01*
Y1171657D01*
Y1171568D01*
Y1170502D01*
X719613D01*
Y1170325D01*
X719524D01*
Y1170236D01*
X719435D01*
Y1170147D01*
X719347D01*
Y1170058D01*
X719258D01*
Y1169969D01*
X719080D01*
Y1169881D01*
X717659D01*
Y1169969D01*
X717482D01*
Y1170058D01*
X717393D01*
Y1170147D01*
X717304D01*
Y1170236D01*
X717215D01*
Y1170325D01*
X717127D01*
Y1170502D01*
X717038D01*
Y1171923D01*
X717127D01*
Y1172101D01*
X717215D01*
Y1172189D01*
X717304D01*
Y1172278D01*
X717393D01*
Y1172367D01*
X717482D01*
Y1172456D01*
X717659D01*
Y1172544D01*
X719080D01*
Y1172456D01*
D02*
G37*
G36*
X711088Y1175120D02*
X711266D01*
Y1175031D01*
X711355D01*
Y1174942D01*
X711444D01*
Y1174853D01*
X711533D01*
Y1174764D01*
X711621D01*
Y1174587D01*
X711710D01*
Y1171923D01*
Y1171834D01*
Y1170502D01*
X711621D01*
Y1170325D01*
X711533D01*
Y1170236D01*
X711444D01*
Y1170147D01*
X711355D01*
Y1170058D01*
X711266D01*
Y1169969D01*
X711088D01*
Y1169881D01*
X709668D01*
Y1169969D01*
X709490D01*
Y1170058D01*
X709401D01*
Y1170147D01*
X709313D01*
Y1170236D01*
X709224D01*
Y1170325D01*
X709135D01*
Y1170502D01*
X709046D01*
Y1174587D01*
X709135D01*
Y1174764D01*
X709224D01*
Y1174853D01*
X709313D01*
Y1174942D01*
X709401D01*
Y1175031D01*
X709490D01*
Y1175120D01*
X709668D01*
Y1175208D01*
X711088D01*
Y1175120D01*
D02*
G37*
G36*
X756375Y1169792D02*
X756552D01*
Y1169703D01*
X756641D01*
Y1169614D01*
X756730D01*
Y1169525D01*
X756819D01*
Y1169437D01*
X756908D01*
Y1169259D01*
X756996D01*
Y1167838D01*
X756908D01*
Y1167661D01*
X756819D01*
Y1167572D01*
X756730D01*
Y1167483D01*
X756641D01*
Y1167394D01*
X756552D01*
Y1167306D01*
X756375D01*
Y1167217D01*
X754954D01*
Y1167306D01*
X754777D01*
Y1167394D01*
X754688D01*
Y1167483D01*
X754599D01*
Y1167572D01*
X754510D01*
Y1167661D01*
X754421D01*
Y1167838D01*
X754333D01*
Y1169259D01*
X754421D01*
Y1169437D01*
X754510D01*
Y1169525D01*
X754599D01*
Y1169614D01*
X754688D01*
Y1169703D01*
X754777D01*
Y1169792D01*
X754954D01*
Y1169881D01*
X756375D01*
Y1169792D01*
D02*
G37*
G36*
X745719D02*
X745897D01*
Y1169703D01*
X745986D01*
Y1169614D01*
X746074D01*
Y1169525D01*
X746163D01*
Y1169437D01*
X746252D01*
Y1169259D01*
X746341D01*
Y1168282D01*
Y1168194D01*
Y1167838D01*
X746252D01*
Y1167661D01*
X746163D01*
Y1167572D01*
X746074D01*
Y1167483D01*
X745986D01*
Y1167394D01*
X745897D01*
Y1167306D01*
X745719D01*
Y1167217D01*
X744298D01*
Y1167306D01*
X744121D01*
Y1167394D01*
X744032D01*
Y1167483D01*
X743943D01*
Y1167572D01*
X743855D01*
Y1167661D01*
X743766D01*
Y1167838D01*
X743677D01*
Y1169259D01*
X743766D01*
Y1169437D01*
X743855D01*
Y1169525D01*
X743943D01*
Y1169614D01*
X744032D01*
Y1169703D01*
X744121D01*
Y1169792D01*
X744298D01*
Y1169881D01*
X745719D01*
Y1169792D01*
D02*
G37*
G36*
X708425D02*
X708602D01*
Y1169703D01*
X708691D01*
Y1169614D01*
X708780D01*
Y1169525D01*
X708869D01*
Y1169437D01*
X708957D01*
Y1169259D01*
X709046D01*
Y1167838D01*
X708957D01*
Y1167661D01*
X708869D01*
Y1167572D01*
X708780D01*
Y1167483D01*
X708691D01*
Y1167394D01*
X708602D01*
Y1167306D01*
X708425D01*
Y1167217D01*
X704340D01*
Y1167306D01*
X704162D01*
Y1167394D01*
X704073D01*
Y1167483D01*
X703985D01*
Y1167572D01*
X703896D01*
Y1167661D01*
X703807D01*
Y1167838D01*
X703718D01*
Y1169259D01*
X703807D01*
Y1169437D01*
X703896D01*
Y1169525D01*
X703985D01*
Y1169614D01*
X704073D01*
Y1169703D01*
X704162D01*
Y1169792D01*
X704340D01*
Y1169881D01*
X708425D01*
Y1169792D01*
D02*
G37*
G36*
X713752D02*
X713930D01*
Y1169703D01*
X714019D01*
Y1169614D01*
X714108D01*
Y1169525D01*
X714196D01*
Y1169437D01*
X714285D01*
Y1169259D01*
X714374D01*
Y1165174D01*
X714285D01*
Y1164997D01*
X714196D01*
Y1164908D01*
X714108D01*
Y1164819D01*
X714019D01*
Y1164730D01*
X713930D01*
Y1164642D01*
X713752D01*
Y1164553D01*
X709668D01*
Y1164642D01*
X709490D01*
Y1164730D01*
X709401D01*
Y1164819D01*
X709313D01*
Y1164908D01*
X709224D01*
Y1164997D01*
X709135D01*
Y1165174D01*
X709046D01*
Y1166595D01*
X709135D01*
Y1166773D01*
X709224D01*
Y1166861D01*
X709313D01*
Y1166950D01*
X709401D01*
Y1167039D01*
X709490D01*
Y1167128D01*
X709668D01*
Y1167217D01*
X711710D01*
Y1169259D01*
X711799D01*
Y1169437D01*
X711888D01*
Y1169525D01*
X711976D01*
Y1169614D01*
X712065D01*
Y1169703D01*
X712154D01*
Y1169792D01*
X712332D01*
Y1169881D01*
X713752D01*
Y1169792D01*
D02*
G37*
G36*
X743055Y1164464D02*
X743233D01*
Y1164375D01*
X743322D01*
Y1164286D01*
X743410D01*
Y1164198D01*
X743499D01*
Y1164109D01*
X743588D01*
Y1163931D01*
X743677D01*
Y1162511D01*
X743588D01*
Y1162333D01*
X743499D01*
Y1162244D01*
X743410D01*
Y1162155D01*
X743322D01*
Y1162066D01*
X743233D01*
Y1161978D01*
X743055D01*
Y1161889D01*
X738971D01*
Y1161978D01*
X738793D01*
Y1162066D01*
X738704D01*
Y1162155D01*
X738615D01*
Y1162244D01*
X738527D01*
Y1162333D01*
X738438D01*
Y1162511D01*
X738349D01*
Y1163931D01*
X738438D01*
Y1164109D01*
X738527D01*
Y1164198D01*
X738615D01*
Y1164286D01*
X738704D01*
Y1164375D01*
X738793D01*
Y1164464D01*
X738971D01*
Y1164553D01*
X743055D01*
Y1164464D01*
D02*
G37*
G36*
X759039Y1161800D02*
X759216D01*
Y1161711D01*
X759305D01*
Y1161622D01*
X759394D01*
Y1161534D01*
X759483D01*
Y1161445D01*
X759572D01*
Y1161267D01*
X759660D01*
Y1159847D01*
X759572D01*
Y1159669D01*
X759483D01*
Y1159580D01*
X759394D01*
Y1159491D01*
X759305D01*
Y1159403D01*
X759216D01*
Y1159314D01*
X759039D01*
Y1159225D01*
X757618D01*
Y1159314D01*
X757440D01*
Y1159403D01*
X757352D01*
Y1159491D01*
X757263D01*
Y1159580D01*
X757174D01*
Y1159669D01*
X757085D01*
Y1159847D01*
X756996D01*
Y1161267D01*
X757085D01*
Y1161445D01*
X757174D01*
Y1161534D01*
X757263D01*
Y1161622D01*
X757352D01*
Y1161711D01*
X757440D01*
Y1161800D01*
X757618D01*
Y1161889D01*
X759039D01*
Y1161800D01*
D02*
G37*
G36*
X751047Y1169792D02*
X751225D01*
Y1169703D01*
X751313D01*
Y1169614D01*
X751402D01*
Y1169525D01*
X751491D01*
Y1169437D01*
X751580D01*
Y1169259D01*
X751669D01*
Y1167217D01*
X753711D01*
Y1167128D01*
X753888D01*
Y1167039D01*
X753977D01*
Y1166950D01*
X754066D01*
Y1166861D01*
X754155D01*
Y1166773D01*
X754244D01*
Y1166595D01*
X754333D01*
Y1162511D01*
X754244D01*
Y1162333D01*
X754155D01*
Y1162244D01*
X754066D01*
Y1162155D01*
X753977D01*
Y1162066D01*
X753888D01*
Y1161978D01*
X753711D01*
Y1161889D01*
X751669D01*
Y1157183D01*
X751580D01*
Y1157005D01*
X751491D01*
Y1156916D01*
X751402D01*
Y1156827D01*
X751313D01*
Y1156739D01*
X751225D01*
Y1156650D01*
X751047D01*
Y1156561D01*
X744298D01*
Y1156650D01*
X744121D01*
Y1156739D01*
X744032D01*
Y1156827D01*
X743943D01*
Y1156916D01*
X743855D01*
Y1157005D01*
X743766D01*
Y1157183D01*
X743677D01*
Y1161267D01*
X743766D01*
Y1161445D01*
X743855D01*
Y1161534D01*
X743943D01*
Y1161622D01*
X744032D01*
Y1161711D01*
X744121D01*
Y1161800D01*
X744298D01*
Y1161889D01*
X745719D01*
Y1161800D01*
X745897D01*
Y1161711D01*
X745986D01*
Y1161622D01*
X746074D01*
Y1161534D01*
X746163D01*
Y1161445D01*
X746252D01*
Y1161267D01*
X746341D01*
Y1159225D01*
X749005D01*
Y1164553D01*
X746962D01*
Y1164642D01*
X746785D01*
Y1164730D01*
X746696D01*
Y1164819D01*
X746607D01*
Y1164908D01*
X746518D01*
Y1164997D01*
X746430D01*
Y1165174D01*
X746341D01*
Y1166595D01*
X746430D01*
Y1166773D01*
X746518D01*
Y1166861D01*
X746607D01*
Y1166950D01*
X746696D01*
Y1167039D01*
X746785D01*
Y1167128D01*
X746962D01*
Y1167217D01*
X749005D01*
Y1169259D01*
X749093D01*
Y1169437D01*
X749182D01*
Y1169525D01*
X749271D01*
Y1169614D01*
X749360D01*
Y1169703D01*
X749449D01*
Y1169792D01*
X749626D01*
Y1169881D01*
X751047D01*
Y1169792D01*
D02*
G37*
G36*
X716416Y1161800D02*
X716594D01*
Y1161711D01*
X716683D01*
Y1161622D01*
X716771D01*
Y1161534D01*
X716860D01*
Y1161445D01*
X716949D01*
Y1161356D01*
Y1161267D01*
X717038D01*
Y1159847D01*
X716949D01*
Y1159669D01*
X716860D01*
Y1159580D01*
X716771D01*
Y1159491D01*
X716683D01*
Y1159403D01*
X716594D01*
Y1159314D01*
X716416D01*
Y1159225D01*
X707004D01*
Y1159314D01*
X706826D01*
Y1159403D01*
X706737D01*
Y1159491D01*
X706649D01*
Y1159580D01*
X706560D01*
Y1159669D01*
X706471D01*
Y1159847D01*
X706382D01*
Y1161267D01*
X706471D01*
Y1161445D01*
X706560D01*
Y1161534D01*
X706649D01*
Y1161622D01*
X706737D01*
Y1161711D01*
X706826D01*
Y1161800D01*
X707004D01*
Y1161889D01*
X716416D01*
Y1161800D01*
D02*
G37*
G36*
X775288Y1175120D02*
X775910D01*
Y1175031D01*
X776265D01*
Y1174942D01*
X776532D01*
Y1174853D01*
X776798D01*
Y1174764D01*
X777065D01*
Y1174676D01*
X777242D01*
Y1174587D01*
X777420D01*
Y1174498D01*
X777597D01*
Y1174409D01*
X777775D01*
Y1174321D01*
X777952D01*
Y1174232D01*
X778041D01*
Y1174143D01*
X778219D01*
Y1174054D01*
X778308D01*
Y1173965D01*
X778485D01*
Y1173876D01*
X778574D01*
Y1173788D01*
X778663D01*
Y1173699D01*
X778752D01*
Y1173610D01*
X778840D01*
Y1173521D01*
X779018D01*
Y1173432D01*
X779107D01*
Y1173344D01*
X779196D01*
Y1173255D01*
X779284D01*
Y1173166D01*
X779373D01*
Y1172989D01*
X779462D01*
Y1172900D01*
X779551D01*
Y1172811D01*
X779640D01*
Y1172722D01*
X779728D01*
Y1172544D01*
X779817D01*
Y1172456D01*
X779906D01*
Y1172278D01*
X779995D01*
Y1172189D01*
X780084D01*
Y1172012D01*
X780172D01*
Y1171834D01*
X780261D01*
Y1171745D01*
X780350D01*
Y1171479D01*
X780439D01*
Y1171301D01*
X780527D01*
Y1171124D01*
X780616D01*
Y1170857D01*
X780705D01*
Y1170591D01*
X780794D01*
Y1170147D01*
X780883D01*
Y1169614D01*
X780972D01*
Y1166062D01*
Y1165974D01*
Y1162155D01*
X780883D01*
Y1161534D01*
X780794D01*
Y1161179D01*
X780705D01*
Y1160912D01*
X780616D01*
Y1160646D01*
X780527D01*
Y1160468D01*
X780439D01*
Y1160202D01*
X780350D01*
Y1160024D01*
X780261D01*
Y1159847D01*
X780172D01*
Y1159758D01*
X780084D01*
Y1159580D01*
X779995D01*
Y1159403D01*
X779906D01*
Y1159314D01*
X779817D01*
Y1159225D01*
X779728D01*
Y1159047D01*
X779640D01*
Y1158959D01*
X779551D01*
Y1158870D01*
X779462D01*
Y1158781D01*
X779373D01*
Y1158603D01*
X779284D01*
Y1158515D01*
X779196D01*
Y1158426D01*
X779107D01*
Y1158337D01*
X779018D01*
Y1158248D01*
X778929D01*
Y1158159D01*
X778752D01*
Y1158071D01*
X778663D01*
Y1157982D01*
X778574D01*
Y1157893D01*
X778485D01*
Y1157804D01*
X778308D01*
Y1157716D01*
X778219D01*
Y1157627D01*
X778041D01*
Y1157538D01*
X777952D01*
Y1157449D01*
X777775D01*
Y1157360D01*
X777597D01*
Y1157271D01*
X777420D01*
Y1157183D01*
X777242D01*
Y1157094D01*
X777065D01*
Y1157005D01*
X776798D01*
Y1156916D01*
X776620D01*
Y1156827D01*
X776265D01*
Y1156739D01*
X775910D01*
Y1156650D01*
X775377D01*
Y1156561D01*
X767918D01*
Y1156650D01*
X767386D01*
Y1156739D01*
X767030D01*
Y1156827D01*
X766675D01*
Y1156916D01*
X766498D01*
Y1157005D01*
X766231D01*
Y1157094D01*
X766054D01*
Y1157183D01*
X765876D01*
Y1157271D01*
X765698D01*
Y1157360D01*
X765521D01*
Y1157449D01*
X765343D01*
Y1157538D01*
X765255D01*
Y1157627D01*
X765077D01*
Y1157716D01*
X764988D01*
Y1157804D01*
X764810D01*
Y1157893D01*
X764722D01*
Y1157982D01*
X764633D01*
Y1158071D01*
X764544D01*
Y1158159D01*
X764367D01*
Y1158248D01*
X764278D01*
Y1158337D01*
X764189D01*
Y1158426D01*
X764100D01*
Y1158515D01*
X764011D01*
Y1158603D01*
X763923D01*
Y1158781D01*
X763834D01*
Y1158870D01*
X763745D01*
Y1158959D01*
X763656D01*
Y1159047D01*
X763567D01*
Y1159225D01*
X763479D01*
Y1159314D01*
X763390D01*
Y1159403D01*
X763301D01*
Y1159580D01*
X763212D01*
Y1159758D01*
X763123D01*
Y1159847D01*
X763035D01*
Y1160024D01*
X762946D01*
Y1160202D01*
X762857D01*
Y1160468D01*
X762768D01*
Y1160646D01*
X762679D01*
Y1160912D01*
X762591D01*
Y1161179D01*
X762502D01*
Y1161534D01*
X762413D01*
Y1162155D01*
X762324D01*
Y1175208D01*
X775288D01*
Y1175120D01*
D02*
G37*
G36*
X737728Y1159136D02*
X737905D01*
Y1159047D01*
X737994D01*
Y1158959D01*
X738083D01*
Y1158870D01*
X738171D01*
Y1158781D01*
X738260D01*
Y1158603D01*
X738349D01*
Y1157183D01*
X738260D01*
Y1157005D01*
X738171D01*
Y1156916D01*
X738083D01*
Y1156827D01*
X737994D01*
Y1156739D01*
X737905D01*
Y1156650D01*
X737728D01*
Y1156561D01*
X736307D01*
Y1156650D01*
X736129D01*
Y1156739D01*
X736040D01*
Y1156827D01*
X735952D01*
Y1156916D01*
X735863D01*
Y1157005D01*
X735774D01*
Y1157183D01*
X735685D01*
Y1158603D01*
X735774D01*
Y1158781D01*
X735863D01*
Y1158870D01*
X735952D01*
Y1158959D01*
X736040D01*
Y1159047D01*
X736129D01*
Y1159136D01*
X736307D01*
Y1159225D01*
X737728D01*
Y1159136D01*
D02*
G37*
G36*
X721744D02*
X721922D01*
Y1159047D01*
X722010D01*
Y1158959D01*
X722099D01*
Y1158870D01*
X722188D01*
Y1158781D01*
X722277D01*
Y1158603D01*
X722366D01*
Y1157183D01*
X722277D01*
Y1157005D01*
X722188D01*
Y1156916D01*
X722099D01*
Y1156827D01*
X722010D01*
Y1156739D01*
X721922D01*
Y1156650D01*
X721744D01*
Y1156561D01*
X717659D01*
Y1156650D01*
X717482D01*
Y1156739D01*
X717393D01*
Y1156827D01*
X717304D01*
Y1156916D01*
X717215D01*
Y1157005D01*
X717127D01*
Y1157183D01*
X717038D01*
Y1158603D01*
X717127D01*
Y1158781D01*
X717215D01*
Y1158870D01*
X717304D01*
Y1158959D01*
X717393D01*
Y1159047D01*
X717482D01*
Y1159136D01*
X717659D01*
Y1159225D01*
X721744D01*
Y1159136D01*
D02*
G37*
G36*
X701055Y1162155D02*
X700966D01*
Y1161534D01*
X700877D01*
Y1161179D01*
X700788D01*
Y1160912D01*
X700699D01*
Y1160646D01*
X700611D01*
Y1160468D01*
X700522D01*
Y1160202D01*
X700433D01*
Y1160024D01*
X700344D01*
Y1159847D01*
X700255D01*
Y1159758D01*
X700166D01*
Y1159580D01*
X700078D01*
Y1159403D01*
X699989D01*
Y1159314D01*
X699900D01*
Y1159225D01*
X699811D01*
Y1159047D01*
X699723D01*
Y1158959D01*
X699634D01*
Y1158870D01*
X699545D01*
Y1158781D01*
X699456D01*
Y1158603D01*
X699367D01*
Y1158515D01*
X699278D01*
Y1158426D01*
X699190D01*
Y1158337D01*
X699101D01*
Y1158248D01*
X699012D01*
Y1158159D01*
X698835D01*
Y1158071D01*
X698746D01*
Y1157982D01*
X698657D01*
Y1157893D01*
X698568D01*
Y1157804D01*
X698391D01*
Y1157716D01*
X698302D01*
Y1157627D01*
X698124D01*
Y1157538D01*
X698035D01*
Y1157449D01*
X697858D01*
Y1157360D01*
X697680D01*
Y1157271D01*
X697503D01*
Y1157183D01*
X697325D01*
Y1157094D01*
X697147D01*
Y1157005D01*
X696881D01*
Y1156916D01*
X696703D01*
Y1156827D01*
X696348D01*
Y1156739D01*
X695993D01*
Y1156650D01*
X695460D01*
Y1156561D01*
X688001D01*
Y1156650D01*
X687469D01*
Y1156739D01*
X687113D01*
Y1156827D01*
X686758D01*
Y1156916D01*
X686581D01*
Y1157005D01*
X686314D01*
Y1157094D01*
X686137D01*
Y1157183D01*
X685959D01*
Y1157271D01*
X685781D01*
Y1157360D01*
X685604D01*
Y1157449D01*
X685426D01*
Y1157538D01*
X685337D01*
Y1157627D01*
X685160D01*
Y1157716D01*
X685071D01*
Y1157804D01*
X684893D01*
Y1157893D01*
X684805D01*
Y1157982D01*
X684716D01*
Y1158071D01*
X684627D01*
Y1158159D01*
X684449D01*
Y1158248D01*
X684361D01*
Y1158337D01*
X684272D01*
Y1158426D01*
X684183D01*
Y1158515D01*
X684094D01*
Y1158603D01*
X684006D01*
Y1158781D01*
X683917D01*
Y1158870D01*
X683828D01*
Y1158959D01*
X683739D01*
Y1159047D01*
X683650D01*
Y1159225D01*
X683561D01*
Y1159314D01*
X683473D01*
Y1159403D01*
X683384D01*
Y1159580D01*
X683295D01*
Y1159758D01*
X683206D01*
Y1159847D01*
X683118D01*
Y1160024D01*
X683029D01*
Y1160202D01*
X682940D01*
Y1160468D01*
X682851D01*
Y1160646D01*
X682762D01*
Y1160912D01*
X682673D01*
Y1161179D01*
X682585D01*
Y1161534D01*
X682496D01*
Y1162155D01*
X682407D01*
Y1164908D01*
Y1164997D01*
Y1169614D01*
X682496D01*
Y1170236D01*
X682585D01*
Y1170591D01*
X682673D01*
Y1170857D01*
X682762D01*
Y1171124D01*
X682851D01*
Y1171301D01*
X682940D01*
Y1171568D01*
X683029D01*
Y1171745D01*
X683118D01*
Y1171923D01*
X683206D01*
Y1172012D01*
X683295D01*
Y1172189D01*
X683384D01*
Y1172367D01*
X683473D01*
Y1172456D01*
X683561D01*
Y1172544D01*
X683650D01*
Y1172722D01*
X683739D01*
Y1172811D01*
X683828D01*
Y1172900D01*
X683917D01*
Y1172989D01*
X684006D01*
Y1173166D01*
X684094D01*
Y1173255D01*
X684183D01*
Y1173344D01*
X684272D01*
Y1173432D01*
X684361D01*
Y1173521D01*
X684538D01*
Y1173610D01*
X684627D01*
Y1173699D01*
X684716D01*
Y1173788D01*
X684805D01*
Y1173876D01*
X684893D01*
Y1173965D01*
X685071D01*
Y1174054D01*
X685160D01*
Y1174143D01*
X685337D01*
Y1174232D01*
X685426D01*
Y1174321D01*
X685604D01*
Y1174409D01*
X685781D01*
Y1174498D01*
X685959D01*
Y1174587D01*
X686137D01*
Y1174676D01*
X686314D01*
Y1174764D01*
X686581D01*
Y1174853D01*
X686847D01*
Y1174942D01*
X687113D01*
Y1175031D01*
X687469D01*
Y1175120D01*
X688090D01*
Y1175208D01*
X701055D01*
Y1162155D01*
D02*
G37*
%LPC*%
G36*
X767652Y1247134D02*
X764988D01*
Y1244470D01*
X767652D01*
Y1247134D01*
D02*
G37*
G36*
Y1241806D02*
X759660D01*
Y1238876D01*
Y1238787D01*
Y1233814D01*
X767652D01*
Y1241806D01*
D02*
G37*
%LPD*%
G36*
X764367Y1239053D02*
X764544D01*
Y1238964D01*
X764633D01*
Y1238876D01*
X764722D01*
Y1238787D01*
X764810D01*
Y1238698D01*
X764899D01*
Y1238521D01*
X764988D01*
Y1237100D01*
X764899D01*
Y1236922D01*
X764810D01*
Y1236833D01*
X764722D01*
Y1236745D01*
X764633D01*
Y1236656D01*
X764544D01*
Y1236567D01*
X764367D01*
Y1236478D01*
X762946D01*
Y1236567D01*
X762768D01*
Y1236656D01*
X762679D01*
Y1236745D01*
X762591D01*
Y1236833D01*
X762502D01*
Y1236922D01*
X762413D01*
Y1237100D01*
X762324D01*
Y1238521D01*
X762413D01*
Y1238698D01*
X762502D01*
Y1238787D01*
X762591D01*
Y1238876D01*
X762679D01*
Y1238964D01*
X762768D01*
Y1239053D01*
X762946D01*
Y1239142D01*
X764367D01*
Y1239053D01*
D02*
G37*
%LPC*%
G36*
X694661Y1252373D02*
X688801D01*
Y1252284D01*
X688001D01*
Y1252195D01*
X687646D01*
Y1252106D01*
X687380D01*
Y1252018D01*
X687202D01*
Y1251929D01*
X687025D01*
Y1251840D01*
X686847D01*
Y1251751D01*
X686758D01*
Y1251662D01*
X686669D01*
Y1251574D01*
X686492D01*
Y1251485D01*
X686403D01*
Y1251396D01*
X686314D01*
Y1251307D01*
X686225D01*
Y1251218D01*
X686137D01*
Y1251130D01*
X686048D01*
Y1251041D01*
X685959D01*
Y1250952D01*
X685870D01*
Y1250775D01*
X685781D01*
Y1250686D01*
X685693D01*
Y1250508D01*
X685604D01*
Y1250331D01*
X685515D01*
Y1250153D01*
X685426D01*
Y1249886D01*
X685337D01*
Y1249620D01*
X685249D01*
Y1241984D01*
X685337D01*
Y1241717D01*
X685426D01*
Y1241451D01*
X685515D01*
Y1241273D01*
X685604D01*
Y1241096D01*
X685693D01*
Y1240918D01*
X685781D01*
Y1240829D01*
X685870D01*
Y1240652D01*
X685959D01*
Y1240563D01*
X686048D01*
Y1240474D01*
X686137D01*
Y1240385D01*
X686225D01*
Y1240296D01*
X686314D01*
Y1240208D01*
X686403D01*
Y1240119D01*
X686492D01*
Y1240030D01*
X686669D01*
Y1239941D01*
X686758D01*
Y1239853D01*
X686936D01*
Y1239764D01*
X687025D01*
Y1239675D01*
X687202D01*
Y1239586D01*
X687380D01*
Y1239497D01*
X687646D01*
Y1239408D01*
X688001D01*
Y1239320D01*
X698213D01*
Y1249620D01*
X698124D01*
Y1249886D01*
X698035D01*
Y1250153D01*
X697947D01*
Y1250331D01*
X697858D01*
Y1250508D01*
X697769D01*
Y1250686D01*
X697680D01*
Y1250775D01*
X697591D01*
Y1250952D01*
X697503D01*
Y1251041D01*
X697414D01*
Y1251130D01*
X697325D01*
Y1251218D01*
X697236D01*
Y1251307D01*
X697147D01*
Y1251396D01*
X697059D01*
Y1251485D01*
X696970D01*
Y1251574D01*
X696792D01*
Y1251662D01*
X696703D01*
Y1251751D01*
X696615D01*
Y1251840D01*
X696437D01*
Y1251929D01*
X696259D01*
Y1252018D01*
X696082D01*
Y1252106D01*
X695815D01*
Y1252195D01*
X695460D01*
Y1252284D01*
X694661D01*
Y1252373D01*
D02*
G37*
%LPD*%
G36*
X693951Y1249709D02*
X694306D01*
Y1249620D01*
X694483D01*
Y1249531D01*
X694661D01*
Y1249443D01*
X694750D01*
Y1249354D01*
X694928D01*
Y1249265D01*
X695016D01*
Y1249176D01*
X695105D01*
Y1249087D01*
X695194D01*
Y1248998D01*
X695283D01*
Y1248910D01*
X695371D01*
Y1248732D01*
X695460D01*
Y1248555D01*
X695549D01*
Y1248377D01*
X695638D01*
Y1248022D01*
X695727D01*
Y1241806D01*
X689511D01*
Y1241895D01*
X689156D01*
Y1241984D01*
X688978D01*
Y1242072D01*
X688801D01*
Y1242161D01*
X688712D01*
Y1242250D01*
X688534D01*
Y1242339D01*
X688445D01*
Y1242428D01*
X688356D01*
Y1242516D01*
X688268D01*
Y1242605D01*
X688179D01*
Y1242694D01*
X688090D01*
Y1242872D01*
X688001D01*
Y1243049D01*
X687913D01*
Y1243227D01*
X687824D01*
Y1243582D01*
X687735D01*
Y1248022D01*
X687824D01*
Y1248377D01*
X687913D01*
Y1248555D01*
X688001D01*
Y1248732D01*
X688090D01*
Y1248910D01*
X688179D01*
Y1248998D01*
X688268D01*
Y1249087D01*
X688356D01*
Y1249176D01*
X688445D01*
Y1249265D01*
X688534D01*
Y1249354D01*
X688712D01*
Y1249443D01*
X688801D01*
Y1249531D01*
X688978D01*
Y1249620D01*
X689156D01*
Y1249709D01*
X689511D01*
Y1249798D01*
X693951D01*
Y1249709D01*
D02*
G37*
%LPC*%
G36*
X735685Y1216854D02*
X735241D01*
Y1216676D01*
X735152D01*
Y1216410D01*
X735241D01*
Y1216321D01*
X735508D01*
Y1216410D01*
X735685D01*
Y1216854D01*
D02*
G37*
G36*
X733909D02*
X733554D01*
Y1216765D01*
X733465D01*
Y1216321D01*
X733998D01*
Y1216499D01*
X734087D01*
Y1216588D01*
X733998D01*
Y1216765D01*
X733909D01*
Y1216854D01*
D02*
G37*
G36*
X726095D02*
X725740D01*
Y1216765D01*
X725651D01*
Y1216676D01*
X725562D01*
Y1216233D01*
X725651D01*
Y1216144D01*
X725829D01*
Y1216055D01*
X725918D01*
Y1216144D01*
X726095D01*
Y1216233D01*
X726184D01*
Y1216765D01*
X726095D01*
Y1216854D01*
D02*
G37*
G36*
X730269Y1214723D02*
X729825D01*
Y1214634D01*
X729736D01*
Y1214545D01*
X729647D01*
Y1214013D01*
X729736D01*
Y1213924D01*
X729913D01*
Y1213835D01*
X730091D01*
Y1213924D01*
X730269D01*
Y1214013D01*
X730357D01*
Y1214190D01*
X730446D01*
Y1214545D01*
X730357D01*
Y1214634D01*
X730269D01*
Y1214723D01*
D02*
G37*
G36*
X723520Y1214457D02*
X723165D01*
Y1214368D01*
X723076D01*
Y1214279D01*
X722987D01*
Y1213924D01*
X723076D01*
Y1213835D01*
X723165D01*
Y1213746D01*
X723520D01*
Y1213835D01*
X723609D01*
Y1214368D01*
X723520D01*
Y1214457D01*
D02*
G37*
G36*
X731956Y1218719D02*
X730979D01*
Y1218630D01*
X729381D01*
Y1218541D01*
X728581D01*
Y1218453D01*
X728493D01*
Y1216055D01*
X728581D01*
Y1215789D01*
X728670D01*
Y1215700D01*
X728759D01*
Y1215611D01*
X728848D01*
Y1215522D01*
X728937D01*
Y1215345D01*
X729025D01*
Y1215256D01*
X729114D01*
Y1215167D01*
X729469D01*
Y1215256D01*
X729558D01*
Y1215345D01*
X729825D01*
Y1215433D01*
X730269D01*
Y1215345D01*
X730535D01*
Y1215256D01*
X730624D01*
Y1215167D01*
X730713D01*
Y1215078D01*
X730801D01*
Y1214989D01*
X730890D01*
Y1214901D01*
X730979D01*
Y1214634D01*
X731068D01*
Y1214013D01*
X730979D01*
Y1213835D01*
X730890D01*
Y1213657D01*
X730801D01*
Y1213569D01*
X730713D01*
Y1213480D01*
X730624D01*
Y1213391D01*
X730535D01*
Y1213302D01*
X730357D01*
Y1213213D01*
X729647D01*
Y1213302D01*
X729558D01*
Y1213391D01*
X729381D01*
Y1213480D01*
X729292D01*
Y1213569D01*
X729203D01*
Y1213657D01*
X729114D01*
Y1213835D01*
X729025D01*
Y1214190D01*
X728937D01*
Y1214545D01*
X728848D01*
Y1214634D01*
X728759D01*
Y1214723D01*
X728670D01*
Y1214812D01*
X728581D01*
Y1214901D01*
X728493D01*
Y1214989D01*
X728404D01*
Y1215078D01*
X728315D01*
Y1215167D01*
X728226D01*
Y1215345D01*
X728138D01*
Y1215433D01*
X728049D01*
Y1215522D01*
X727960D01*
Y1215789D01*
X727871D01*
Y1218453D01*
X726628D01*
Y1218364D01*
X725296D01*
Y1218275D01*
X724586D01*
Y1218186D01*
X724497D01*
Y1216765D01*
X724586D01*
Y1216676D01*
X724941D01*
Y1216765D01*
X725030D01*
Y1217032D01*
X725118D01*
Y1217121D01*
X725207D01*
Y1217209D01*
X725296D01*
Y1217298D01*
X725385D01*
Y1217387D01*
X725562D01*
Y1217476D01*
X726273D01*
Y1217387D01*
X726450D01*
Y1217298D01*
X726539D01*
Y1217209D01*
X726628D01*
Y1217121D01*
X726717D01*
Y1217032D01*
X726805D01*
Y1216765D01*
X726894D01*
Y1216233D01*
X726805D01*
Y1215966D01*
X726717D01*
Y1215789D01*
X726628D01*
Y1215700D01*
X726539D01*
Y1215611D01*
X726361D01*
Y1215522D01*
X726273D01*
Y1215433D01*
X726184D01*
Y1214457D01*
X726095D01*
Y1214368D01*
X726184D01*
Y1214279D01*
X727427D01*
Y1214190D01*
X727605D01*
Y1214101D01*
X727693D01*
Y1214013D01*
X727782D01*
Y1213924D01*
X727871D01*
Y1213835D01*
X727960D01*
Y1213746D01*
X728049D01*
Y1213657D01*
X728138D01*
Y1213569D01*
X728226D01*
Y1213480D01*
X728315D01*
Y1213391D01*
X728404D01*
Y1213302D01*
X728493D01*
Y1213213D01*
X728581D01*
Y1213125D01*
X728670D01*
Y1213036D01*
X728759D01*
Y1212947D01*
X728848D01*
Y1212858D01*
X728937D01*
Y1212769D01*
X729025D01*
Y1212681D01*
X729114D01*
Y1212592D01*
X729203D01*
Y1212503D01*
X729292D01*
Y1212414D01*
X729381D01*
Y1212326D01*
X729469D01*
Y1212237D01*
X729558D01*
Y1212148D01*
X729647D01*
Y1212059D01*
X729736D01*
Y1211970D01*
X729825D01*
Y1212059D01*
X730269D01*
Y1211970D01*
X730535D01*
Y1211881D01*
X730624D01*
Y1211793D01*
X730801D01*
Y1211615D01*
X730890D01*
Y1211526D01*
X730979D01*
Y1211349D01*
X731068D01*
Y1210549D01*
X730979D01*
Y1210372D01*
X730890D01*
Y1210194D01*
X730801D01*
Y1210106D01*
X730713D01*
Y1210017D01*
X730535D01*
Y1209928D01*
X730269D01*
Y1209839D01*
X729825D01*
Y1209928D01*
X729558D01*
Y1210017D01*
X729469D01*
Y1210106D01*
X729381D01*
Y1210194D01*
X729292D01*
Y1210283D01*
X729203D01*
Y1210372D01*
X729114D01*
Y1210549D01*
X729025D01*
Y1211349D01*
X729114D01*
Y1211704D01*
X729025D01*
Y1211793D01*
X728937D01*
Y1211881D01*
X728848D01*
Y1211970D01*
X728759D01*
Y1212059D01*
X728670D01*
Y1212148D01*
X728581D01*
Y1212237D01*
X728493D01*
Y1212326D01*
X728404D01*
Y1212414D01*
X728315D01*
Y1212503D01*
X728226D01*
Y1212592D01*
X728138D01*
Y1212681D01*
X728049D01*
Y1212769D01*
X727960D01*
Y1212858D01*
X727871D01*
Y1212947D01*
X727782D01*
Y1213036D01*
X727693D01*
Y1213125D01*
X727605D01*
Y1213302D01*
X727516D01*
Y1213391D01*
X727427D01*
Y1213480D01*
X727338D01*
Y1213569D01*
X727161D01*
Y1213657D01*
X724230D01*
Y1213569D01*
X724142D01*
Y1213391D01*
X724053D01*
Y1213302D01*
X723964D01*
Y1213213D01*
X723875D01*
Y1213125D01*
X723698D01*
Y1213036D01*
X722898D01*
Y1213125D01*
X722810D01*
Y1213213D01*
X722632D01*
Y1213391D01*
X722543D01*
Y1213480D01*
X722455D01*
Y1213746D01*
X722366D01*
Y1214545D01*
X722455D01*
Y1214723D01*
X722543D01*
Y1214812D01*
X722632D01*
Y1214901D01*
X722721D01*
Y1215078D01*
X722898D01*
Y1215167D01*
X723165D01*
Y1215256D01*
X723520D01*
Y1215167D01*
X723786D01*
Y1215078D01*
X723875D01*
Y1214989D01*
X723964D01*
Y1214901D01*
X724053D01*
Y1214812D01*
X724142D01*
Y1214634D01*
X724230D01*
Y1214457D01*
X724319D01*
Y1214279D01*
X725474D01*
Y1214368D01*
X725562D01*
Y1214545D01*
X725474D01*
Y1215522D01*
X725385D01*
Y1215611D01*
X725296D01*
Y1215700D01*
X725207D01*
Y1215789D01*
X725118D01*
Y1215877D01*
X725030D01*
Y1215966D01*
X724941D01*
Y1216055D01*
X724053D01*
Y1216144D01*
X723964D01*
Y1216233D01*
X723875D01*
Y1218186D01*
X722987D01*
Y1216676D01*
X722898D01*
Y1216410D01*
X722810D01*
Y1216233D01*
X722721D01*
Y1216144D01*
X722632D01*
Y1216055D01*
X722366D01*
Y1217387D01*
X722277D01*
Y1217831D01*
X722366D01*
Y1218008D01*
X722277D01*
Y1218097D01*
X721389D01*
Y1213213D01*
X721300D01*
Y1204423D01*
X721389D01*
Y1204334D01*
X721478D01*
Y1204245D01*
X721566D01*
Y1204156D01*
X721655D01*
Y1203979D01*
X721744D01*
Y1203890D01*
X721833D01*
Y1203801D01*
X721922D01*
Y1203712D01*
X722010D01*
Y1203623D01*
X722099D01*
Y1203535D01*
X722188D01*
Y1203446D01*
X722277D01*
Y1203357D01*
X722366D01*
Y1203268D01*
X722455D01*
Y1203179D01*
X722543D01*
Y1203091D01*
X722632D01*
Y1203002D01*
X722721D01*
Y1202913D01*
X722810D01*
Y1202824D01*
X722898D01*
Y1202735D01*
X722987D01*
Y1202647D01*
X723076D01*
Y1202558D01*
X723165D01*
Y1202469D01*
X723254D01*
Y1202380D01*
X723342D01*
Y1202291D01*
X723431D01*
Y1202203D01*
X723520D01*
Y1202025D01*
X723609D01*
Y1201936D01*
X723698D01*
Y1201848D01*
X723786D01*
Y1201759D01*
X723875D01*
Y1201670D01*
X723964D01*
Y1201581D01*
X724053D01*
Y1201492D01*
X724142D01*
Y1201404D01*
X724230D01*
Y1201315D01*
X724319D01*
Y1201226D01*
X724408D01*
Y1201137D01*
X724497D01*
Y1201048D01*
X724586D01*
Y1200959D01*
X724674D01*
Y1200871D01*
X724763D01*
Y1200782D01*
X724852D01*
Y1200693D01*
X724941D01*
Y1200604D01*
X725030D01*
Y1200516D01*
X725118D01*
Y1200427D01*
X725207D01*
Y1200338D01*
X725296D01*
Y1200160D01*
X725385D01*
Y1200071D01*
X725474D01*
Y1199983D01*
X725562D01*
Y1199894D01*
X725651D01*
Y1199805D01*
X725740D01*
Y1199716D01*
X725829D01*
Y1199628D01*
X726006D01*
Y1199716D01*
X726184D01*
Y1199805D01*
X726273D01*
Y1199894D01*
X726361D01*
Y1199983D01*
X726450D01*
Y1200071D01*
X726539D01*
Y1200160D01*
X726628D01*
Y1200249D01*
X726717D01*
Y1200338D01*
X726805D01*
Y1200427D01*
X726894D01*
Y1200516D01*
X726983D01*
Y1200604D01*
X727161D01*
Y1200693D01*
X727250D01*
Y1200782D01*
X727338D01*
Y1200871D01*
X727427D01*
Y1200959D01*
X727516D01*
Y1201048D01*
X727605D01*
Y1201137D01*
X727693D01*
Y1201226D01*
X727782D01*
Y1201315D01*
X727960D01*
Y1201404D01*
X728049D01*
Y1201492D01*
X728138D01*
Y1201581D01*
X728226D01*
Y1201670D01*
X728315D01*
Y1201759D01*
X728404D01*
Y1201848D01*
X728581D01*
Y1201936D01*
X728670D01*
Y1202025D01*
X728759D01*
Y1202114D01*
X728848D01*
Y1202203D01*
X728937D01*
Y1202291D01*
X729025D01*
Y1202380D01*
X729114D01*
Y1202469D01*
X729203D01*
Y1202558D01*
X729292D01*
Y1202647D01*
X729381D01*
Y1202735D01*
X729558D01*
Y1202824D01*
X729647D01*
Y1202913D01*
X729736D01*
Y1203002D01*
X729825D01*
Y1203091D01*
X729913D01*
Y1203179D01*
X730002D01*
Y1203268D01*
X730091D01*
Y1203357D01*
X730180D01*
Y1203446D01*
X730357D01*
Y1203535D01*
X730446D01*
Y1203623D01*
X730535D01*
Y1203712D01*
X730624D01*
Y1203801D01*
X730713D01*
Y1203890D01*
X730801D01*
Y1203979D01*
X730890D01*
Y1204067D01*
X730979D01*
Y1204156D01*
X731157D01*
Y1204245D01*
X731245D01*
Y1204334D01*
X731334D01*
Y1204423D01*
X731423D01*
Y1204511D01*
X731512D01*
Y1204600D01*
X731600D01*
Y1204689D01*
X731689D01*
Y1204778D01*
X731867D01*
Y1204867D01*
X731956D01*
Y1218719D01*
D02*
G37*
G36*
X730357Y1211260D02*
X729736D01*
Y1211082D01*
X729647D01*
Y1210727D01*
X729736D01*
Y1210638D01*
X729825D01*
Y1210549D01*
X730180D01*
Y1210638D01*
X730357D01*
Y1210816D01*
X730446D01*
Y1210993D01*
Y1211082D01*
X730357D01*
Y1211260D01*
D02*
G37*
G36*
X739415Y1216233D02*
X738882D01*
Y1216144D01*
X736840D01*
Y1216055D01*
X736484D01*
Y1215966D01*
X736573D01*
Y1215877D01*
X737017D01*
Y1215789D01*
X737550D01*
Y1215700D01*
X737905D01*
Y1215611D01*
X737994D01*
Y1215522D01*
X738083D01*
Y1215345D01*
X738171D01*
Y1215256D01*
X738260D01*
Y1215078D01*
X738349D01*
Y1214989D01*
X738438D01*
Y1214812D01*
X738527D01*
Y1214723D01*
X738615D01*
Y1214545D01*
X738704D01*
Y1214457D01*
X738793D01*
Y1214279D01*
X738882D01*
Y1214190D01*
X738971D01*
Y1214013D01*
X738793D01*
Y1213924D01*
X738438D01*
Y1213835D01*
X738171D01*
Y1213746D01*
X737905D01*
Y1213657D01*
X737728D01*
Y1213569D01*
X737550D01*
Y1213480D01*
X737372D01*
Y1213391D01*
X737195D01*
Y1213302D01*
X737106D01*
Y1213213D01*
X737017D01*
Y1213125D01*
X736840D01*
Y1213036D01*
X736751D01*
Y1212947D01*
X736662D01*
Y1212858D01*
X736573D01*
Y1212769D01*
X736484D01*
Y1212681D01*
X736396D01*
Y1212592D01*
X736307D01*
Y1212503D01*
X736218D01*
Y1212414D01*
X736129D01*
Y1212237D01*
X736040D01*
Y1212148D01*
X735952D01*
Y1211970D01*
X735863D01*
Y1211881D01*
X735774D01*
Y1211704D01*
X735685D01*
Y1211526D01*
X735596D01*
Y1211260D01*
X735508D01*
Y1210993D01*
X735419D01*
Y1210638D01*
X735330D01*
Y1209040D01*
X735419D01*
Y1208596D01*
X735508D01*
Y1208241D01*
X735419D01*
Y1208063D01*
X735330D01*
Y1207974D01*
X735241D01*
Y1207886D01*
X735064D01*
Y1207797D01*
X734797D01*
Y1207708D01*
X734620D01*
Y1207619D01*
X734353D01*
Y1207531D01*
X734176D01*
Y1207353D01*
X734353D01*
Y1207264D01*
X734531D01*
Y1207175D01*
X734797D01*
Y1207086D01*
X735419D01*
Y1206998D01*
X735596D01*
Y1206820D01*
X735685D01*
Y1206731D01*
X735774D01*
Y1206554D01*
X735863D01*
Y1206465D01*
X735952D01*
Y1206376D01*
X736040D01*
Y1206287D01*
X736129D01*
Y1206199D01*
X736307D01*
Y1206110D01*
X736396D01*
Y1206021D01*
X736573D01*
Y1205932D01*
X736840D01*
Y1205843D01*
X737372D01*
Y1205754D01*
X737550D01*
Y1205843D01*
X737994D01*
Y1205932D01*
X738260D01*
Y1206021D01*
X738438D01*
Y1206110D01*
X738527D01*
Y1206199D01*
X738704D01*
Y1206287D01*
X738793D01*
Y1206376D01*
X738882D01*
Y1206465D01*
X738971D01*
Y1206554D01*
X739060D01*
Y1206643D01*
X739148D01*
Y1206731D01*
X739237D01*
Y1206909D01*
X739326D01*
Y1206998D01*
X739415D01*
Y1207264D01*
X739503D01*
Y1207442D01*
X739592D01*
Y1207708D01*
X739681D01*
Y1207974D01*
X739770D01*
Y1208152D01*
X739859D01*
Y1208241D01*
X739947D01*
Y1208330D01*
X740036D01*
Y1208418D01*
X740125D01*
Y1208507D01*
X740214D01*
Y1208685D01*
X740303D01*
Y1208774D01*
X740391D01*
Y1208862D01*
X740480D01*
Y1208951D01*
X740569D01*
Y1209040D01*
X740658D01*
Y1209129D01*
X740747D01*
Y1209218D01*
X740835D01*
Y1209306D01*
X740924D01*
Y1209484D01*
X741013D01*
Y1209573D01*
X741102D01*
Y1209662D01*
X741191D01*
Y1209750D01*
X741279D01*
Y1209928D01*
X741368D01*
Y1210017D01*
X741457D01*
Y1210106D01*
X741546D01*
Y1210283D01*
X741635D01*
Y1210372D01*
X741723D01*
Y1210461D01*
X741812D01*
Y1210638D01*
X741901D01*
Y1210727D01*
X741990D01*
Y1210905D01*
X742079D01*
Y1210993D01*
X742167D01*
Y1211171D01*
X742256D01*
Y1211260D01*
X742345D01*
Y1211438D01*
X742434D01*
Y1211526D01*
X742523D01*
Y1211704D01*
X742611D01*
Y1211793D01*
X742700D01*
Y1211970D01*
X742789D01*
Y1212148D01*
X742878D01*
Y1212237D01*
X742967D01*
Y1212414D01*
X743055D01*
Y1212592D01*
X743144D01*
Y1212681D01*
X743233D01*
Y1212858D01*
X743322D01*
Y1212947D01*
X743410D01*
Y1213036D01*
X743322D01*
Y1213125D01*
X743055D01*
Y1213036D01*
X742700D01*
Y1212947D01*
X742256D01*
Y1212858D01*
X741723D01*
Y1212769D01*
X741368D01*
Y1212681D01*
X741102D01*
Y1212592D01*
X740835D01*
Y1212503D01*
X740569D01*
Y1212414D01*
X740391D01*
Y1212326D01*
X740214D01*
Y1212237D01*
X740036D01*
Y1212148D01*
X739859D01*
Y1212059D01*
X739770D01*
Y1211970D01*
X739592D01*
Y1211881D01*
X739503D01*
Y1211793D01*
X739326D01*
Y1211704D01*
X739237D01*
Y1211615D01*
X739148D01*
Y1211526D01*
X739060D01*
Y1211438D01*
X738882D01*
Y1211349D01*
X738793D01*
Y1211171D01*
X738704D01*
Y1211082D01*
X738615D01*
Y1210993D01*
X738527D01*
Y1210905D01*
X738438D01*
Y1210727D01*
X738349D01*
Y1210549D01*
X738260D01*
Y1210372D01*
X738171D01*
Y1210106D01*
X738083D01*
Y1209750D01*
X737905D01*
Y1210017D01*
X737816D01*
Y1211082D01*
X737905D01*
Y1211260D01*
X737994D01*
Y1211438D01*
X738083D01*
Y1211615D01*
X738171D01*
Y1211704D01*
X738260D01*
Y1211881D01*
X738349D01*
Y1211970D01*
X738438D01*
Y1212059D01*
X738527D01*
Y1212148D01*
X738615D01*
Y1212237D01*
X738704D01*
Y1212326D01*
X738882D01*
Y1212414D01*
X738971D01*
Y1212503D01*
X739148D01*
Y1212592D01*
X739237D01*
Y1212681D01*
X739415D01*
Y1212769D01*
X739503D01*
Y1212858D01*
X739681D01*
Y1212947D01*
X739859D01*
Y1213036D01*
X740036D01*
Y1213125D01*
X740214D01*
Y1213213D01*
X740480D01*
Y1213302D01*
X740658D01*
Y1213391D01*
X740924D01*
Y1213480D01*
X741013D01*
Y1213569D01*
X740924D01*
Y1213657D01*
X740835D01*
Y1213746D01*
X740569D01*
Y1213835D01*
X740303D01*
Y1213924D01*
X739859D01*
Y1214013D01*
X739770D01*
Y1214101D01*
X739681D01*
Y1214190D01*
X739592D01*
Y1214279D01*
X739503D01*
Y1214457D01*
X739415D01*
Y1214545D01*
X739326D01*
Y1214723D01*
X739237D01*
Y1214812D01*
X739148D01*
Y1214989D01*
X739060D01*
Y1215078D01*
X738971D01*
Y1215256D01*
X738882D01*
Y1215345D01*
X738793D01*
Y1215522D01*
X738704D01*
Y1215611D01*
X738615D01*
Y1215700D01*
X738704D01*
Y1215789D01*
X738793D01*
Y1215877D01*
X739060D01*
Y1215966D01*
X739237D01*
Y1216055D01*
X739415D01*
Y1216233D01*
D02*
G37*
G36*
X732844Y1204423D02*
X732666D01*
Y1204334D01*
X732488D01*
Y1204245D01*
X732400D01*
Y1204156D01*
X732311D01*
Y1204067D01*
X732222D01*
Y1203979D01*
X732133D01*
Y1203890D01*
X732045D01*
Y1203801D01*
X731956D01*
Y1203712D01*
X731867D01*
Y1203623D01*
X731689D01*
Y1203535D01*
X731600D01*
Y1203446D01*
X731512D01*
Y1203357D01*
X731423D01*
Y1203268D01*
X731334D01*
Y1203179D01*
X731245D01*
Y1203091D01*
X731157D01*
Y1203002D01*
X731068D01*
Y1202913D01*
X730890D01*
Y1202824D01*
X730801D01*
Y1202735D01*
X730713D01*
Y1202647D01*
X730624D01*
Y1202558D01*
X730535D01*
Y1202469D01*
X730446D01*
Y1202380D01*
X730357D01*
Y1202291D01*
X730180D01*
Y1202203D01*
X730091D01*
Y1202114D01*
X730002D01*
Y1202025D01*
X729913D01*
Y1201936D01*
X729825D01*
Y1201848D01*
X729736D01*
Y1201759D01*
X729647D01*
Y1201670D01*
X729469D01*
Y1201581D01*
X729381D01*
Y1201492D01*
X729292D01*
Y1201404D01*
X729203D01*
Y1201315D01*
X729114D01*
Y1201226D01*
X729025D01*
Y1201137D01*
X728937D01*
Y1201048D01*
X728848D01*
Y1200959D01*
X728670D01*
Y1200871D01*
X728581D01*
Y1200782D01*
X728493D01*
Y1200693D01*
X728404D01*
Y1200604D01*
X728315D01*
Y1200516D01*
X728226D01*
Y1200427D01*
X728138D01*
Y1200338D01*
X728049D01*
Y1200249D01*
X727871D01*
Y1200160D01*
X727782D01*
Y1200071D01*
X727693D01*
Y1199983D01*
X727605D01*
Y1199894D01*
X727516D01*
Y1199805D01*
X727427D01*
Y1199716D01*
X727338D01*
Y1199628D01*
X727161D01*
Y1199539D01*
X727072D01*
Y1199450D01*
X726983D01*
Y1199361D01*
X726894D01*
Y1199272D01*
X726805D01*
Y1199184D01*
X726717D01*
Y1199095D01*
X726628D01*
Y1199006D01*
X726450D01*
Y1198917D01*
X726361D01*
Y1198828D01*
X726273D01*
Y1198740D01*
X726184D01*
Y1198651D01*
X726095D01*
Y1198562D01*
X726006D01*
Y1198473D01*
X725918D01*
Y1198384D01*
X725829D01*
Y1198296D01*
X725474D01*
Y1198384D01*
X725385D01*
Y1198473D01*
X725296D01*
Y1198562D01*
X725207D01*
Y1198651D01*
X725118D01*
Y1198740D01*
X725030D01*
Y1198828D01*
X724941D01*
Y1198917D01*
X724852D01*
Y1199006D01*
X724763D01*
Y1199095D01*
X724674D01*
Y1199184D01*
X724586D01*
Y1199272D01*
X724497D01*
Y1199450D01*
X724408D01*
Y1199539D01*
X724319D01*
Y1199628D01*
X724230D01*
Y1199716D01*
X724142D01*
Y1199805D01*
X724053D01*
Y1199894D01*
X723964D01*
Y1199983D01*
X723875D01*
Y1200071D01*
X723786D01*
Y1200160D01*
X723698D01*
Y1200249D01*
X723609D01*
Y1200338D01*
X723520D01*
Y1200427D01*
X723431D01*
Y1200516D01*
X723342D01*
Y1200604D01*
X723254D01*
Y1200693D01*
X723165D01*
Y1200782D01*
X723076D01*
Y1200959D01*
X722987D01*
Y1201048D01*
X722898D01*
Y1201137D01*
X722810D01*
Y1201226D01*
X722721D01*
Y1201315D01*
X722632D01*
Y1201404D01*
X722543D01*
Y1201492D01*
X722455D01*
Y1201581D01*
X722366D01*
Y1201670D01*
X722277D01*
Y1201759D01*
X722188D01*
Y1201848D01*
X722099D01*
Y1201936D01*
X722010D01*
Y1202025D01*
X721922D01*
Y1202114D01*
X721833D01*
Y1202203D01*
X721744D01*
Y1202291D01*
X721655D01*
Y1202469D01*
X721566D01*
Y1202558D01*
X721478D01*
Y1202647D01*
X721389D01*
Y1202735D01*
X721300D01*
Y1202824D01*
X721211D01*
Y1202913D01*
X721123D01*
Y1203002D01*
X721034D01*
Y1203091D01*
X720945D01*
Y1203179D01*
X720856D01*
Y1203268D01*
X720767D01*
Y1203357D01*
X720678D01*
Y1203446D01*
X720590D01*
Y1203535D01*
X720501D01*
Y1203623D01*
X720412D01*
Y1203712D01*
X720323D01*
Y1203801D01*
X720235D01*
Y1203890D01*
X720146D01*
Y1204067D01*
X720057D01*
Y1204156D01*
X719968D01*
Y1204245D01*
X719879D01*
Y1204334D01*
X719791D01*
Y1204423D01*
X719524D01*
Y1204334D01*
X719435D01*
Y1204245D01*
X719347D01*
Y1204156D01*
X719258D01*
Y1204067D01*
X719169D01*
Y1203979D01*
X719080D01*
Y1203890D01*
X719169D01*
Y1203712D01*
X719258D01*
Y1203623D01*
X719347D01*
Y1203535D01*
X719435D01*
Y1203446D01*
X719524D01*
Y1203357D01*
X719613D01*
Y1203268D01*
X719702D01*
Y1203179D01*
X719791D01*
Y1203091D01*
X719879D01*
Y1203002D01*
X719968D01*
Y1202913D01*
X720057D01*
Y1202824D01*
X720146D01*
Y1202735D01*
X720235D01*
Y1202647D01*
X720323D01*
Y1202558D01*
X720412D01*
Y1202469D01*
X720501D01*
Y1202291D01*
X720590D01*
Y1202203D01*
X720678D01*
Y1202114D01*
X720767D01*
Y1202025D01*
X720856D01*
Y1201936D01*
X720945D01*
Y1201848D01*
X721034D01*
Y1201759D01*
X721123D01*
Y1201670D01*
X721211D01*
Y1201581D01*
X721300D01*
Y1201492D01*
X721389D01*
Y1201404D01*
X721478D01*
Y1201315D01*
X721566D01*
Y1201226D01*
X721655D01*
Y1201137D01*
X721744D01*
Y1200959D01*
X721833D01*
Y1200871D01*
X721922D01*
Y1200782D01*
X722010D01*
Y1200693D01*
X722099D01*
Y1200604D01*
X722188D01*
Y1200516D01*
X722277D01*
Y1200427D01*
X722366D01*
Y1200338D01*
X722455D01*
Y1200249D01*
X722543D01*
Y1200160D01*
X722632D01*
Y1200071D01*
X722721D01*
Y1199983D01*
X722810D01*
Y1199894D01*
X722898D01*
Y1199805D01*
X722987D01*
Y1199628D01*
X723076D01*
Y1199539D01*
X723165D01*
Y1199450D01*
X723254D01*
Y1199361D01*
X723342D01*
Y1199272D01*
X723431D01*
Y1199184D01*
X723520D01*
Y1199095D01*
X723609D01*
Y1199006D01*
X723698D01*
Y1198917D01*
X723786D01*
Y1198828D01*
X723875D01*
Y1198740D01*
X723964D01*
Y1198651D01*
X724053D01*
Y1198562D01*
X724142D01*
Y1198473D01*
X724230D01*
Y1198296D01*
X724319D01*
Y1198207D01*
X724408D01*
Y1198118D01*
X724497D01*
Y1198029D01*
X724586D01*
Y1197940D01*
X724674D01*
Y1197852D01*
X724763D01*
Y1197763D01*
X724852D01*
Y1197674D01*
X724941D01*
Y1197585D01*
X725030D01*
Y1197496D01*
X725118D01*
Y1197408D01*
X725207D01*
Y1197319D01*
X725296D01*
Y1197230D01*
X725385D01*
Y1197141D01*
X725474D01*
Y1197052D01*
X725562D01*
Y1196964D01*
X725651D01*
Y1197052D01*
X725829D01*
Y1197141D01*
X725918D01*
Y1197230D01*
X726006D01*
Y1197319D01*
X726095D01*
Y1197408D01*
X726184D01*
Y1197496D01*
X726273D01*
Y1197585D01*
X726361D01*
Y1197674D01*
X726450D01*
Y1197763D01*
X726539D01*
Y1197852D01*
X726628D01*
Y1197940D01*
X726805D01*
Y1198029D01*
X726894D01*
Y1198118D01*
X726983D01*
Y1198207D01*
X727072D01*
Y1198296D01*
X727161D01*
Y1198384D01*
X727250D01*
Y1198473D01*
X727338D01*
Y1198562D01*
X727427D01*
Y1198651D01*
X727516D01*
Y1198740D01*
X727693D01*
Y1198828D01*
X727782D01*
Y1198917D01*
X727871D01*
Y1199006D01*
X727960D01*
Y1199095D01*
X728049D01*
Y1199184D01*
X728138D01*
Y1199272D01*
X728226D01*
Y1199361D01*
X728315D01*
Y1199450D01*
X728404D01*
Y1199539D01*
X728581D01*
Y1199628D01*
X728670D01*
Y1199716D01*
X728759D01*
Y1199805D01*
X728848D01*
Y1199894D01*
X728937D01*
Y1199983D01*
X729025D01*
Y1200071D01*
X729114D01*
Y1200160D01*
X729203D01*
Y1200249D01*
X729381D01*
Y1200338D01*
X729469D01*
Y1200427D01*
X729558D01*
Y1200516D01*
X729647D01*
Y1200604D01*
X729736D01*
Y1200693D01*
X729825D01*
Y1200782D01*
X729913D01*
Y1200871D01*
X730002D01*
Y1200959D01*
X730091D01*
Y1201048D01*
X730269D01*
Y1201137D01*
X730357D01*
Y1201226D01*
X730446D01*
Y1201315D01*
X730535D01*
Y1201404D01*
X730624D01*
Y1201492D01*
X730713D01*
Y1201581D01*
X730801D01*
Y1201670D01*
X730890D01*
Y1201759D01*
X730979D01*
Y1201848D01*
X731157D01*
Y1201936D01*
X731245D01*
Y1202025D01*
X731334D01*
Y1202114D01*
X731423D01*
Y1202203D01*
X731512D01*
Y1202291D01*
X731600D01*
Y1202380D01*
X731689D01*
Y1202469D01*
X731778D01*
Y1202558D01*
X731956D01*
Y1202647D01*
X732045D01*
Y1202735D01*
X732133D01*
Y1202824D01*
X732222D01*
Y1202913D01*
X732311D01*
Y1203002D01*
X732400D01*
Y1203091D01*
X732488D01*
Y1203179D01*
X732577D01*
Y1203268D01*
X732666D01*
Y1203357D01*
X732844D01*
Y1203446D01*
X732933D01*
Y1203535D01*
X733021D01*
Y1203623D01*
X733110D01*
Y1203712D01*
X733199D01*
Y1204067D01*
X733110D01*
Y1204156D01*
X733021D01*
Y1204245D01*
X732933D01*
Y1204334D01*
X732844D01*
Y1204423D01*
D02*
G37*
G36*
X741635Y1204156D02*
X741279D01*
Y1204067D01*
X740569D01*
Y1203979D01*
X739859D01*
Y1203890D01*
X738882D01*
Y1203801D01*
X738083D01*
Y1203712D01*
X737106D01*
Y1203623D01*
X736396D01*
Y1203535D01*
X735596D01*
Y1203446D01*
X734708D01*
Y1203357D01*
X734176D01*
Y1203268D01*
X733998D01*
Y1203179D01*
X733820D01*
Y1203091D01*
X733732D01*
Y1203002D01*
X733643D01*
Y1202913D01*
X733554D01*
Y1202824D01*
X733465D01*
Y1202735D01*
X733376D01*
Y1202647D01*
X733288D01*
Y1202558D01*
X733110D01*
Y1202469D01*
X733021D01*
Y1202380D01*
X732933D01*
Y1202291D01*
X732844D01*
Y1202203D01*
X732755D01*
Y1202114D01*
X732666D01*
Y1202025D01*
X732577D01*
Y1201936D01*
X732400D01*
Y1201848D01*
X732311D01*
Y1201759D01*
X732222D01*
Y1201670D01*
X732133D01*
Y1201581D01*
X732045D01*
Y1201492D01*
X731956D01*
Y1201404D01*
X731867D01*
Y1201315D01*
X731689D01*
Y1201226D01*
X731600D01*
Y1201137D01*
X731512D01*
Y1201048D01*
X731423D01*
Y1200959D01*
X731334D01*
Y1200871D01*
X731245D01*
Y1200782D01*
X731157D01*
Y1200693D01*
X731068D01*
Y1200604D01*
X730890D01*
Y1200516D01*
X730801D01*
Y1200427D01*
X730713D01*
Y1200338D01*
X730624D01*
Y1200249D01*
X730535D01*
Y1200160D01*
X730446D01*
Y1200071D01*
X730357D01*
Y1199983D01*
X730269D01*
Y1199894D01*
X730180D01*
Y1199805D01*
X730002D01*
Y1199716D01*
X729913D01*
Y1199628D01*
X729825D01*
Y1199539D01*
X729736D01*
Y1199450D01*
X729647D01*
Y1199361D01*
X729558D01*
Y1199272D01*
X729469D01*
Y1199184D01*
X729381D01*
Y1199095D01*
X729292D01*
Y1199006D01*
X729114D01*
Y1198917D01*
X729025D01*
Y1198828D01*
X728937D01*
Y1198740D01*
X728848D01*
Y1198651D01*
X728759D01*
Y1198562D01*
X728670D01*
Y1198473D01*
X728581D01*
Y1198384D01*
X728493D01*
Y1198296D01*
X728404D01*
Y1198207D01*
X728315D01*
Y1198118D01*
X728138D01*
Y1198029D01*
X728049D01*
Y1197940D01*
X727960D01*
Y1197852D01*
X727871D01*
Y1197763D01*
X727782D01*
Y1197674D01*
X727693D01*
Y1197585D01*
X727516D01*
Y1197496D01*
X727427D01*
Y1197408D01*
X727338D01*
Y1197230D01*
X727250D01*
Y1197141D01*
X727427D01*
Y1197230D01*
X728049D01*
Y1197319D01*
X728670D01*
Y1197408D01*
X729381D01*
Y1197496D01*
X729736D01*
Y1197585D01*
X729825D01*
Y1197940D01*
X729913D01*
Y1198029D01*
X730002D01*
Y1198207D01*
X730091D01*
Y1198296D01*
X730180D01*
Y1198384D01*
X730269D01*
Y1198473D01*
X730357D01*
Y1198562D01*
X730535D01*
Y1198651D01*
X730624D01*
Y1198740D01*
X730890D01*
Y1198828D01*
X731867D01*
Y1198740D01*
X732133D01*
Y1198651D01*
X732311D01*
Y1198562D01*
X732400D01*
Y1198473D01*
X732488D01*
Y1198384D01*
X732577D01*
Y1198296D01*
X732666D01*
Y1198207D01*
X732755D01*
Y1198029D01*
X732844D01*
Y1197940D01*
X733376D01*
Y1198029D01*
X733998D01*
Y1198118D01*
X734620D01*
Y1198207D01*
X734975D01*
Y1198296D01*
X735152D01*
Y1198384D01*
X735241D01*
Y1198473D01*
X735330D01*
Y1198562D01*
X735419D01*
Y1198651D01*
X735508D01*
Y1198740D01*
X735596D01*
Y1198828D01*
X735685D01*
Y1198917D01*
X735863D01*
Y1199006D01*
X735952D01*
Y1199095D01*
X736040D01*
Y1199184D01*
X736129D01*
Y1199272D01*
X736218D01*
Y1199361D01*
X736307D01*
Y1199450D01*
X736484D01*
Y1199539D01*
X736573D01*
Y1199628D01*
X736662D01*
Y1199716D01*
X736751D01*
Y1199805D01*
X736840D01*
Y1199894D01*
X736928D01*
Y1199983D01*
X737017D01*
Y1200071D01*
X737195D01*
Y1200160D01*
X737283D01*
Y1200249D01*
X737372D01*
Y1200338D01*
X737461D01*
Y1200427D01*
X737550D01*
Y1200516D01*
X737728D01*
Y1200604D01*
X737816D01*
Y1200693D01*
X737905D01*
Y1200782D01*
X737994D01*
Y1200871D01*
X738083D01*
Y1200959D01*
X738171D01*
Y1201048D01*
X738260D01*
Y1201137D01*
X738349D01*
Y1201226D01*
X738527D01*
Y1201315D01*
X738615D01*
Y1201404D01*
X738704D01*
Y1201492D01*
X738793D01*
Y1201581D01*
X738882D01*
Y1201670D01*
X738971D01*
Y1201759D01*
X739148D01*
Y1201848D01*
X739237D01*
Y1201936D01*
X739326D01*
Y1202025D01*
X739415D01*
Y1202114D01*
X739503D01*
Y1202203D01*
X739592D01*
Y1202291D01*
X739681D01*
Y1202380D01*
X739859D01*
Y1202469D01*
X739947D01*
Y1202558D01*
X740036D01*
Y1202647D01*
X740125D01*
Y1202735D01*
X740214D01*
Y1202824D01*
X740303D01*
Y1202913D01*
X740391D01*
Y1203002D01*
X740569D01*
Y1203091D01*
X740658D01*
Y1203179D01*
X740747D01*
Y1203268D01*
X740835D01*
Y1203357D01*
X740924D01*
Y1203446D01*
X741013D01*
Y1203535D01*
X741102D01*
Y1203623D01*
X741191D01*
Y1203712D01*
X741368D01*
Y1203801D01*
X741457D01*
Y1203890D01*
X741546D01*
Y1203979D01*
X741635D01*
Y1204156D01*
D02*
G37*
G36*
X731600Y1198029D02*
X731245D01*
Y1197940D01*
X730979D01*
Y1197852D01*
X730890D01*
Y1197763D01*
X730801D01*
Y1197674D01*
X730713D01*
Y1197585D01*
X730624D01*
Y1196875D01*
X730713D01*
Y1196697D01*
X730801D01*
Y1196609D01*
X730890D01*
Y1196520D01*
X731068D01*
Y1196431D01*
X731689D01*
Y1196520D01*
X731867D01*
Y1196609D01*
X731956D01*
Y1196697D01*
X732045D01*
Y1196786D01*
X732133D01*
Y1196875D01*
Y1197585D01*
X732045D01*
Y1197763D01*
X731956D01*
Y1197852D01*
X731778D01*
Y1197940D01*
X731600D01*
Y1198029D01*
D02*
G37*
%LPD*%
G36*
X730180Y1217476D02*
X730269D01*
Y1217387D01*
X730357D01*
Y1217032D01*
X730269D01*
Y1216943D01*
X730180D01*
Y1216854D01*
X729825D01*
Y1216943D01*
X729736D01*
Y1217032D01*
X729647D01*
Y1217476D01*
X729736D01*
Y1217564D01*
X730180D01*
Y1217476D01*
D02*
G37*
G36*
X726361Y1211970D02*
X726628D01*
Y1211881D01*
X726717D01*
Y1211793D01*
X726805D01*
Y1211615D01*
X726894D01*
Y1211082D01*
X726805D01*
Y1210905D01*
X726717D01*
Y1210816D01*
X726628D01*
Y1210727D01*
X726095D01*
Y1210638D01*
X723875D01*
Y1210549D01*
X722810D01*
Y1210638D01*
X722632D01*
Y1210727D01*
X722543D01*
Y1210816D01*
X722455D01*
Y1210993D01*
X722366D01*
Y1211260D01*
X722277D01*
Y1211438D01*
X722366D01*
Y1211615D01*
X722455D01*
Y1211793D01*
X722543D01*
Y1211881D01*
X722632D01*
Y1211970D01*
X722898D01*
Y1212059D01*
X726361D01*
Y1211970D01*
D02*
G37*
G36*
Y1209839D02*
X726805D01*
Y1209750D01*
X727072D01*
Y1209662D01*
X727338D01*
Y1209573D01*
X727516D01*
Y1209484D01*
X727605D01*
Y1209395D01*
X727782D01*
Y1209306D01*
X727871D01*
Y1209218D01*
X728049D01*
Y1209129D01*
X728138D01*
Y1209040D01*
X728226D01*
Y1208951D01*
X728315D01*
Y1208862D01*
X728404D01*
Y1208685D01*
X728493D01*
Y1208596D01*
X728581D01*
Y1208507D01*
X728670D01*
Y1208330D01*
X728759D01*
Y1208152D01*
X728848D01*
Y1208063D01*
X728937D01*
Y1207797D01*
X729025D01*
Y1207619D01*
X729114D01*
Y1207264D01*
X729203D01*
Y1206820D01*
X729292D01*
Y1206199D01*
Y1206110D01*
Y1205932D01*
X729203D01*
Y1205399D01*
X729114D01*
Y1205133D01*
X729025D01*
Y1204867D01*
X728937D01*
Y1204689D01*
X728848D01*
Y1204511D01*
X728759D01*
Y1204334D01*
X728670D01*
Y1204245D01*
X728581D01*
Y1204067D01*
X728493D01*
Y1203979D01*
X728404D01*
Y1203890D01*
X728315D01*
Y1203801D01*
X728226D01*
Y1203712D01*
X728138D01*
Y1203623D01*
X728049D01*
Y1203535D01*
X727960D01*
Y1203446D01*
X727782D01*
Y1203357D01*
X727693D01*
Y1203268D01*
X727605D01*
Y1203179D01*
X727427D01*
Y1203091D01*
X727250D01*
Y1203002D01*
X726983D01*
Y1202913D01*
X726628D01*
Y1202824D01*
X725562D01*
Y1202913D01*
X725118D01*
Y1203002D01*
X724941D01*
Y1203091D01*
X724763D01*
Y1203179D01*
X724586D01*
Y1203268D01*
X724408D01*
Y1203357D01*
X724319D01*
Y1203446D01*
X724230D01*
Y1203535D01*
X724053D01*
Y1203623D01*
X723964D01*
Y1203712D01*
X723875D01*
Y1203801D01*
X723786D01*
Y1203979D01*
X723698D01*
Y1204067D01*
X723609D01*
Y1204156D01*
X723520D01*
Y1204334D01*
X723431D01*
Y1204423D01*
X723342D01*
Y1204600D01*
X723254D01*
Y1204778D01*
X723165D01*
Y1204955D01*
X723076D01*
Y1205222D01*
X722987D01*
Y1205577D01*
X722898D01*
Y1206110D01*
X722810D01*
Y1206731D01*
X722898D01*
Y1207264D01*
X722987D01*
Y1207619D01*
X723076D01*
Y1207886D01*
X723165D01*
Y1208063D01*
X723254D01*
Y1208241D01*
X723342D01*
Y1208418D01*
X723431D01*
Y1208507D01*
X723520D01*
Y1208685D01*
X723609D01*
Y1208774D01*
X723698D01*
Y1208862D01*
X723786D01*
Y1208951D01*
X723875D01*
Y1209040D01*
X723964D01*
Y1209129D01*
X724053D01*
Y1209218D01*
X724142D01*
Y1209306D01*
X724230D01*
Y1209395D01*
X724408D01*
Y1209484D01*
X724586D01*
Y1209573D01*
X724763D01*
Y1209662D01*
X724941D01*
Y1209750D01*
X725207D01*
Y1209839D01*
X725651D01*
Y1209928D01*
X726361D01*
Y1209839D01*
D02*
G37*
%LPC*%
G36*
X726539Y1209129D02*
X725474D01*
Y1209040D01*
X725207D01*
Y1208951D01*
X724941D01*
Y1208862D01*
X724852D01*
Y1208774D01*
X724674D01*
Y1208685D01*
X724586D01*
Y1208596D01*
X724497D01*
Y1208507D01*
X724319D01*
Y1208330D01*
X724230D01*
Y1208241D01*
X724142D01*
Y1208152D01*
X724053D01*
Y1208063D01*
X723964D01*
Y1207886D01*
X723875D01*
Y1207708D01*
X723786D01*
Y1207442D01*
X723698D01*
Y1207175D01*
X723609D01*
Y1206909D01*
Y1206820D01*
Y1205666D01*
X723698D01*
Y1205311D01*
X723786D01*
Y1205133D01*
X723875D01*
Y1204955D01*
X723964D01*
Y1204778D01*
X724053D01*
Y1204689D01*
X724142D01*
Y1204511D01*
X724230D01*
Y1204423D01*
X724319D01*
Y1204334D01*
X724408D01*
Y1204245D01*
X724497D01*
Y1204156D01*
X724586D01*
Y1204067D01*
X724763D01*
Y1203979D01*
X724852D01*
Y1203890D01*
X725030D01*
Y1203801D01*
X725207D01*
Y1203712D01*
X725474D01*
Y1203623D01*
X726539D01*
Y1203712D01*
X726894D01*
Y1203801D01*
X727072D01*
Y1203890D01*
X727250D01*
Y1203979D01*
X727338D01*
Y1204067D01*
X727427D01*
Y1204156D01*
X727605D01*
Y1204245D01*
X727693D01*
Y1204334D01*
X727782D01*
Y1204511D01*
X727871D01*
Y1204600D01*
X727960D01*
Y1204689D01*
X728049D01*
Y1204867D01*
X728138D01*
Y1205044D01*
X728226D01*
Y1205222D01*
X728315D01*
Y1205488D01*
X728404D01*
Y1206110D01*
X728493D01*
Y1206554D01*
X728404D01*
Y1207175D01*
X728315D01*
Y1207531D01*
X728226D01*
Y1207708D01*
X728138D01*
Y1207886D01*
X728049D01*
Y1207974D01*
X727960D01*
Y1208152D01*
X727871D01*
Y1208241D01*
X727782D01*
Y1208330D01*
X727693D01*
Y1208418D01*
X727605D01*
Y1208507D01*
X727516D01*
Y1208596D01*
X727427D01*
Y1208685D01*
X727250D01*
Y1208774D01*
X727161D01*
Y1208862D01*
X726983D01*
Y1208951D01*
X726805D01*
Y1209040D01*
X726539D01*
Y1209129D01*
D02*
G37*
%LPD*%
G36*
X726184Y1208418D02*
X726539D01*
Y1208330D01*
X726717D01*
Y1208241D01*
X726894D01*
Y1208152D01*
X726983D01*
Y1208063D01*
X727072D01*
Y1207974D01*
X727161D01*
Y1207886D01*
X727250D01*
Y1207797D01*
X727338D01*
Y1207708D01*
X727427D01*
Y1207619D01*
X727516D01*
Y1207442D01*
X727605D01*
Y1207264D01*
X727693D01*
Y1207086D01*
X727782D01*
Y1206643D01*
X727871D01*
Y1206021D01*
X727782D01*
Y1205666D01*
X727693D01*
Y1205399D01*
X727605D01*
Y1205222D01*
X727516D01*
Y1205044D01*
X727427D01*
Y1204955D01*
X727338D01*
Y1204867D01*
X727250D01*
Y1204778D01*
X727161D01*
Y1204689D01*
X727072D01*
Y1204600D01*
X726983D01*
Y1204511D01*
X726805D01*
Y1204423D01*
X726628D01*
Y1204334D01*
X726361D01*
Y1204245D01*
X725740D01*
Y1204334D01*
X725474D01*
Y1204423D01*
X725296D01*
Y1204511D01*
X725118D01*
Y1204600D01*
X725030D01*
Y1204689D01*
X724852D01*
Y1204778D01*
X724763D01*
Y1204955D01*
X724674D01*
Y1205044D01*
X724586D01*
Y1205133D01*
X724497D01*
Y1205311D01*
X724408D01*
Y1205488D01*
X724319D01*
Y1205843D01*
X724230D01*
Y1205932D01*
Y1206021D01*
Y1206287D01*
X724142D01*
Y1206554D01*
X724230D01*
Y1206998D01*
X724319D01*
Y1207353D01*
X724408D01*
Y1207531D01*
X724497D01*
Y1207619D01*
X724586D01*
Y1207797D01*
X724674D01*
Y1207886D01*
X724763D01*
Y1207974D01*
X724852D01*
Y1208063D01*
X724941D01*
Y1208152D01*
X725118D01*
Y1208241D01*
X725207D01*
Y1208330D01*
X725474D01*
Y1208418D01*
X725829D01*
Y1208507D01*
X726184D01*
Y1208418D01*
D02*
G37*
%LPC*%
G36*
X725918Y1206199D02*
X725385D01*
Y1206110D01*
X725296D01*
Y1205754D01*
X725385D01*
Y1205577D01*
X725474D01*
Y1205488D01*
X725562D01*
Y1205399D01*
X725651D01*
Y1205311D01*
X725918D01*
Y1205222D01*
X726095D01*
Y1205311D01*
X726273D01*
Y1205754D01*
X726184D01*
Y1205932D01*
X726095D01*
Y1206021D01*
X726006D01*
Y1206110D01*
X725918D01*
Y1206199D01*
D02*
G37*
%LPD*%
G36*
X737195Y1207974D02*
X737372D01*
Y1207797D01*
X737461D01*
Y1207708D01*
X737550D01*
Y1207264D01*
X737461D01*
Y1207086D01*
X737372D01*
Y1206998D01*
X737195D01*
Y1206909D01*
X736662D01*
Y1206998D01*
X736573D01*
Y1207086D01*
X736484D01*
Y1207264D01*
X736396D01*
Y1207708D01*
X736484D01*
Y1207797D01*
X736573D01*
Y1207974D01*
X736751D01*
Y1208063D01*
X737195D01*
Y1207974D01*
D02*
G37*
%LPC*%
G36*
X775377Y1172367D02*
X765166D01*
Y1162066D01*
X765255D01*
Y1161800D01*
X765343D01*
Y1161534D01*
X765432D01*
Y1161356D01*
X765521D01*
Y1161179D01*
X765610D01*
Y1161001D01*
X765698D01*
Y1160912D01*
X765787D01*
Y1160735D01*
X765876D01*
Y1160646D01*
X765965D01*
Y1160557D01*
X766054D01*
Y1160468D01*
X766143D01*
Y1160379D01*
X766231D01*
Y1160291D01*
X766320D01*
Y1160202D01*
X766409D01*
Y1160113D01*
X766587D01*
Y1160024D01*
X766675D01*
Y1159935D01*
X766764D01*
Y1159847D01*
X766942D01*
Y1159758D01*
X767119D01*
Y1159669D01*
X767297D01*
Y1159580D01*
X767563D01*
Y1159491D01*
X767918D01*
Y1159403D01*
X775377D01*
Y1159491D01*
X775732D01*
Y1159580D01*
X775999D01*
Y1159669D01*
X776177D01*
Y1159758D01*
X776354D01*
Y1159847D01*
X776532D01*
Y1159935D01*
X776620D01*
Y1160024D01*
X776709D01*
Y1160113D01*
X776887D01*
Y1160202D01*
X776976D01*
Y1160291D01*
X777065D01*
Y1160379D01*
X777153D01*
Y1160468D01*
X777242D01*
Y1160557D01*
X777331D01*
Y1160646D01*
X777420D01*
Y1160735D01*
X777508D01*
Y1160912D01*
X777597D01*
Y1161001D01*
X777686D01*
Y1161179D01*
X777775D01*
Y1161356D01*
X777864D01*
Y1161534D01*
X777952D01*
Y1161800D01*
X778041D01*
Y1162066D01*
X778130D01*
Y1169703D01*
X778041D01*
Y1169969D01*
X777952D01*
Y1170236D01*
X777864D01*
Y1170413D01*
X777775D01*
Y1170591D01*
X777686D01*
Y1170769D01*
X777597D01*
Y1170857D01*
X777508D01*
Y1171035D01*
X777420D01*
Y1171124D01*
X777331D01*
Y1171213D01*
X777242D01*
Y1171301D01*
X777153D01*
Y1171390D01*
X777065D01*
Y1171479D01*
X776976D01*
Y1171568D01*
X776887D01*
Y1171657D01*
X776709D01*
Y1171745D01*
X776620D01*
Y1171834D01*
X776443D01*
Y1171923D01*
X776354D01*
Y1172012D01*
X776177D01*
Y1172101D01*
X775999D01*
Y1172189D01*
X775732D01*
Y1172278D01*
X775377D01*
Y1172367D01*
D02*
G37*
%LPD*%
G36*
X773868Y1169792D02*
X774223D01*
Y1169703D01*
X774401D01*
Y1169614D01*
X774578D01*
Y1169525D01*
X774667D01*
Y1169437D01*
X774845D01*
Y1169348D01*
X774933D01*
Y1169259D01*
X775022D01*
Y1169170D01*
X775111D01*
Y1169081D01*
X775200D01*
Y1168904D01*
X775288D01*
Y1168815D01*
X775377D01*
Y1168637D01*
X775466D01*
Y1168460D01*
X775555D01*
Y1168105D01*
X775644D01*
Y1163665D01*
X775555D01*
Y1163310D01*
X775466D01*
Y1163132D01*
X775377D01*
Y1162954D01*
X775288D01*
Y1162777D01*
X775200D01*
Y1162688D01*
X775111D01*
Y1162599D01*
X775022D01*
Y1162511D01*
X774933D01*
Y1162422D01*
X774845D01*
Y1162333D01*
X774667D01*
Y1162244D01*
X774578D01*
Y1162155D01*
X774401D01*
Y1162066D01*
X774223D01*
Y1161978D01*
X773868D01*
Y1161889D01*
X769428D01*
Y1161978D01*
X769073D01*
Y1162066D01*
X768895D01*
Y1162155D01*
X768718D01*
Y1162244D01*
X768629D01*
Y1162333D01*
X768451D01*
Y1162422D01*
X768362D01*
Y1162511D01*
X768274D01*
Y1162599D01*
X768185D01*
Y1162688D01*
X768096D01*
Y1162777D01*
X768007D01*
Y1162954D01*
X767918D01*
Y1163132D01*
X767830D01*
Y1163310D01*
X767741D01*
Y1163665D01*
X767652D01*
Y1169881D01*
X773868D01*
Y1169792D01*
D02*
G37*
%LPC*%
G36*
X698213Y1172367D02*
X688001D01*
Y1172278D01*
X687646D01*
Y1172189D01*
X687380D01*
Y1172101D01*
X687202D01*
Y1172012D01*
X687025D01*
Y1171923D01*
X686936D01*
Y1171834D01*
X686758D01*
Y1171745D01*
X686669D01*
Y1171657D01*
X686492D01*
Y1171568D01*
X686403D01*
Y1171479D01*
X686314D01*
Y1171390D01*
X686225D01*
Y1171301D01*
X686137D01*
Y1171213D01*
X686048D01*
Y1171124D01*
X685959D01*
Y1171035D01*
X685870D01*
Y1170857D01*
X685781D01*
Y1170769D01*
X685693D01*
Y1170591D01*
X685604D01*
Y1170413D01*
X685515D01*
Y1170236D01*
X685426D01*
Y1169969D01*
X685337D01*
Y1169703D01*
X685249D01*
Y1162066D01*
X685337D01*
Y1161800D01*
X685426D01*
Y1161534D01*
X685515D01*
Y1161356D01*
X685604D01*
Y1161179D01*
X685693D01*
Y1161001D01*
X685781D01*
Y1160912D01*
X685870D01*
Y1160735D01*
X685959D01*
Y1160646D01*
X686048D01*
Y1160557D01*
X686137D01*
Y1160468D01*
X686225D01*
Y1160379D01*
X686314D01*
Y1160291D01*
X686403D01*
Y1160202D01*
X686492D01*
Y1160113D01*
X686669D01*
Y1160024D01*
X686758D01*
Y1159935D01*
X686847D01*
Y1159847D01*
X687025D01*
Y1159758D01*
X687202D01*
Y1159669D01*
X687380D01*
Y1159580D01*
X687646D01*
Y1159491D01*
X688001D01*
Y1159403D01*
X695460D01*
Y1159491D01*
X695815D01*
Y1159580D01*
X696082D01*
Y1159669D01*
X696259D01*
Y1159758D01*
X696437D01*
Y1159847D01*
X696615D01*
Y1159935D01*
X696703D01*
Y1160024D01*
X696792D01*
Y1160113D01*
X696970D01*
Y1160202D01*
X697059D01*
Y1160291D01*
X697147D01*
Y1160379D01*
X697236D01*
Y1160468D01*
X697325D01*
Y1160557D01*
X697414D01*
Y1160646D01*
X697503D01*
Y1160735D01*
X697591D01*
Y1160912D01*
X697680D01*
Y1161001D01*
X697769D01*
Y1161179D01*
X697858D01*
Y1161356D01*
X697947D01*
Y1161534D01*
X698035D01*
Y1161800D01*
X698124D01*
Y1162066D01*
X698213D01*
Y1172367D01*
D02*
G37*
%LPD*%
G36*
X695727Y1163665D02*
X695638D01*
Y1163310D01*
X695549D01*
Y1163132D01*
X695460D01*
Y1162954D01*
X695371D01*
Y1162777D01*
X695283D01*
Y1162688D01*
X695194D01*
Y1162599D01*
X695105D01*
Y1162511D01*
X695016D01*
Y1162422D01*
X694928D01*
Y1162333D01*
X694750D01*
Y1162244D01*
X694661D01*
Y1162155D01*
X694483D01*
Y1162066D01*
X694306D01*
Y1161978D01*
X693951D01*
Y1161889D01*
X689511D01*
Y1161978D01*
X689156D01*
Y1162066D01*
X688978D01*
Y1162155D01*
X688801D01*
Y1162244D01*
X688712D01*
Y1162333D01*
X688534D01*
Y1162422D01*
X688445D01*
Y1162511D01*
X688356D01*
Y1162599D01*
X688268D01*
Y1162688D01*
X688179D01*
Y1162777D01*
X688090D01*
Y1162954D01*
X688001D01*
Y1163132D01*
X687913D01*
Y1163310D01*
X687824D01*
Y1163665D01*
X687735D01*
Y1166151D01*
Y1166240D01*
Y1168105D01*
X687824D01*
Y1168460D01*
X687913D01*
Y1168637D01*
X688001D01*
Y1168815D01*
X688090D01*
Y1168904D01*
X688179D01*
Y1169081D01*
X688268D01*
Y1169170D01*
X688356D01*
Y1169259D01*
X688445D01*
Y1169348D01*
X688534D01*
Y1169437D01*
X688712D01*
Y1169525D01*
X688801D01*
Y1169614D01*
X688978D01*
Y1169703D01*
X689156D01*
Y1169792D01*
X689511D01*
Y1169881D01*
X695727D01*
Y1163665D01*
D02*
G37*
D11*
X908070Y1094910D02*
X816070D01*
X908070D01*
X362800Y1152000D02*
X373800D01*
X362800Y1134000D02*
X373800D01*
X738070Y1052910D02*
X743070Y1057910D01*
X731070Y1058910D02*
X738070Y1052910D01*
X731070Y1058910D02*
X736070Y1063910D01*
X541800Y1197730D02*
X548800D01*
X541800Y1212730D02*
X548800D01*
X365230Y1212890D02*
X394230D01*
X365230Y1217890D02*
X394230D01*
Y1212890D02*
Y1217890D01*
X365230Y1212890D02*
Y1217890D01*
X767930Y999600D02*
X778930D01*
X767930Y981600D02*
X778930D01*
X767930Y1026270D02*
X778930D01*
X767930Y1008270D02*
X778930D01*
X392040Y1073000D02*
Y1083460D01*
X375040Y1073000D02*
Y1083460D01*
X362770Y1161940D02*
X373770D01*
X362770Y1179940D02*
X373770D01*
X492610Y1196730D02*
X503070D01*
X492610Y1213730D02*
X503070D01*
D13*
X254000Y1270000D02*
X854710D01*
Y916940D02*
Y1270000D01*
X254000Y916940D02*
X854710D01*
X254000D02*
Y1270000D01*
D14*
X801372Y1121407D02*
X806450D01*
Y1117599D01*
X803911Y1118868D01*
X802641D01*
X801372Y1117599D01*
Y1115060D01*
X802641Y1113790D01*
X805180D01*
X806450Y1115060D01*
X806452Y1093467D02*
X808991Y1092198D01*
X811530Y1089659D01*
Y1087120D01*
X810260Y1085850D01*
X807721D01*
X806452Y1087120D01*
Y1088389D01*
X807721Y1089659D01*
X811530D01*
X748030Y1123948D02*
X746760Y1125218D01*
X744221D01*
X742952Y1123948D01*
Y1122678D01*
X744221Y1121409D01*
X745491D01*
X744221D01*
X742952Y1120139D01*
Y1118870D01*
X744221Y1117600D01*
X746760D01*
X748030Y1118870D01*
X767080Y1051560D02*
X764541D01*
X765810D01*
Y1059177D01*
X767080Y1057908D01*
X778511Y1130300D02*
Y1137917D01*
X782320Y1134109D01*
X777242D01*
X726442Y1079500D02*
X731520D01*
X726442Y1084578D01*
Y1085848D01*
X727711Y1087117D01*
X730250D01*
X731520Y1085848D01*
X393701Y1145540D02*
X392431Y1146809D01*
Y1149348D01*
X393701Y1150618D01*
X398779D01*
X400049Y1149348D01*
Y1146809D01*
X398779Y1145540D01*
X392431Y1137922D02*
Y1143000D01*
X396240D01*
X394970Y1140461D01*
Y1139192D01*
X396240Y1137922D01*
X398779D01*
X400049Y1139192D01*
Y1141731D01*
X398779Y1143000D01*
X393701Y1172210D02*
X392431Y1173479D01*
Y1176018D01*
X393701Y1177288D01*
X398779D01*
X400049Y1176018D01*
Y1173479D01*
X398779Y1172210D01*
X400049Y1165862D02*
X392431D01*
X396240Y1169670D01*
Y1164592D01*
X407669Y1228086D02*
X400052D01*
Y1224277D01*
X401321Y1223008D01*
X403860D01*
X405130Y1224277D01*
Y1228086D01*
Y1225547D02*
X407669Y1223008D01*
Y1216660D02*
Y1219199D01*
X406400Y1220468D01*
X403860D01*
X402591Y1219199D01*
Y1216660D01*
X403860Y1215390D01*
X405130D01*
Y1220468D01*
X410208Y1210312D02*
Y1209042D01*
X408939Y1207773D01*
X402591D01*
Y1211581D01*
X403860Y1212851D01*
X406400D01*
X407669Y1211581D01*
Y1207773D01*
Y1205233D02*
Y1202694D01*
Y1203964D01*
X400052D01*
X401321Y1205233D01*
X491492Y1192529D02*
Y1184911D01*
X495301D01*
X496570Y1186181D01*
Y1188720D01*
X495301Y1189990D01*
X491492D01*
X494031D02*
X496570Y1192529D01*
X504188Y1184911D02*
X501649Y1186181D01*
X499109Y1188720D01*
Y1191259D01*
X500379Y1192529D01*
X502918D01*
X504188Y1191259D01*
Y1189990D01*
X502918Y1188720D01*
X499109D01*
X532134Y1183641D02*
Y1191259D01*
X537212D01*
X543560D02*
X541021D01*
X539752Y1189989D01*
Y1187450D01*
X541021Y1186180D01*
X543560D01*
X544830Y1187450D01*
Y1188720D01*
X539752D01*
X552448Y1183641D02*
Y1191259D01*
X548639D01*
X547369Y1189989D01*
Y1187450D01*
X548639Y1186180D01*
X552448D01*
X554987Y1191259D02*
X557526D01*
X556256D01*
Y1183641D01*
X554987Y1184911D01*
X718819Y1126480D02*
X711201D01*
Y1122671D01*
X712471Y1121401D01*
X715010D01*
X716280Y1122671D01*
Y1126480D01*
X718819Y1118862D02*
Y1116323D01*
Y1117593D01*
X713740D01*
Y1118862D01*
Y1112514D02*
X718819D01*
X716280D01*
X715010Y1111245D01*
X713740Y1109975D01*
Y1108706D01*
X712471Y1099818D02*
X711201Y1101088D01*
Y1103627D01*
X712471Y1104897D01*
X713740D01*
X715010Y1103627D01*
Y1101088D01*
X716280Y1099818D01*
X717549D01*
X718819Y1101088D01*
Y1103627D01*
X717549Y1104897D01*
X718819Y1093470D02*
Y1096010D01*
X717549Y1097279D01*
X715010D01*
X713740Y1096010D01*
Y1093470D01*
X715010Y1092201D01*
X716280D01*
Y1097279D01*
X718819Y1089662D02*
X713740D01*
Y1085853D01*
X715010Y1084583D01*
X718819D01*
Y1082044D02*
Y1078235D01*
X717549Y1076966D01*
X716280Y1078235D01*
Y1080775D01*
X715010Y1082044D01*
X713740Y1080775D01*
Y1076966D01*
X718819Y1073157D02*
Y1070618D01*
X717549Y1069348D01*
X715010D01*
X713740Y1070618D01*
Y1073157D01*
X715010Y1074427D01*
X717549D01*
X718819Y1073157D01*
X713740Y1066809D02*
X718819D01*
X716280D01*
X715010Y1065539D01*
X713740Y1064270D01*
Y1063000D01*
X378462Y1055369D02*
Y1047751D01*
X382271D01*
X383540Y1049021D01*
Y1051560D01*
X382271Y1052830D01*
X378462D01*
X381001D02*
X383540Y1055369D01*
X389888D02*
Y1047751D01*
X386079Y1051560D01*
X391158D01*
X800101Y1019810D02*
X798831Y1021079D01*
Y1023618D01*
X800101Y1024888D01*
X805179D01*
X806449Y1023618D01*
Y1021079D01*
X805179Y1019810D01*
X800101Y1017270D02*
X798831Y1016001D01*
Y1013462D01*
X800101Y1012192D01*
X801370D01*
X802640Y1013462D01*
X803910Y1012192D01*
X805179D01*
X806449Y1013462D01*
Y1016001D01*
X805179Y1017270D01*
X803910D01*
X802640Y1016001D01*
X801370Y1017270D01*
X800101D01*
X802640Y1016001D02*
Y1013462D01*
X798831Y991870D02*
X797561Y993139D01*
Y995678D01*
X798831Y996948D01*
X803909D01*
X805179Y995678D01*
Y993139D01*
X803909Y991870D01*
Y989330D02*
X805179Y988061D01*
Y985522D01*
X803909Y984252D01*
X798831D01*
X797561Y985522D01*
Y988061D01*
X798831Y989330D01*
X800100D01*
X801370Y988061D01*
Y984252D01*
D47*
X362480Y1227640D02*
G03*
X362480Y1227640I-1250J0D01*
G01*
D48*
X569800Y1197730D02*
Y1212730D01*
M02*
