G04*
G04 #@! TF.GenerationSoftware,Altium Limited,Altium Designer,24.6.1 (21)*
G04*
G04 Layer_Physical_Order=1*
G04 Layer_Color=255*
%FSLAX44Y44*%
%MOMM*%
G71*
G04*
G04 #@! TF.SameCoordinates,FCEFD5D0-3CA7-4FD4-9723-0F7116719AAB*
G04*
G04*
G04 #@! TF.FilePolarity,Positive*
G04*
G01*
G75*
%ADD13C,0.2540*%
%ADD15R,1.7000X0.9500*%
%ADD17R,0.9561X1.6098*%
%ADD28R,1.0000X0.4500*%
%ADD29C,0.3810*%
%ADD30R,1.1920X1.1920*%
%ADD31C,1.1920*%
%ADD32C,12.7000*%
%ADD33C,5.0800*%
%ADD34R,1.9500X1.9500*%
%ADD35C,1.9500*%
%ADD36C,2.0000*%
%ADD37C,2.2860*%
%ADD38O,3.0000X2.4000*%
%ADD39C,1.2700*%
G36*
X854710Y1268204D02*
Y916940D01*
X254734D01*
X254519Y917459D01*
Y1269877D01*
X852914Y1270000D01*
X854710Y1268204D01*
D02*
G37*
%LPC*%
G36*
X295100Y1257996D02*
X293370D01*
Y1244600D01*
X309598D01*
X309266Y1247126D01*
X307801Y1250663D01*
X305470Y1253700D01*
X302433Y1256031D01*
X298896Y1257496D01*
X295100Y1257996D01*
D02*
G37*
G36*
X290830D02*
X289100D01*
X285304Y1257496D01*
X281767Y1256031D01*
X278730Y1253700D01*
X276399Y1250663D01*
X274934Y1247126D01*
X274602Y1244600D01*
X290830D01*
Y1257996D01*
D02*
G37*
G36*
X406010Y1246840D02*
X396240D01*
Y1240820D01*
X406010D01*
Y1246840D01*
D02*
G37*
G36*
X376800D02*
X367030D01*
Y1240820D01*
X376800D01*
Y1246840D01*
D02*
G37*
G36*
X364490D02*
X354720D01*
Y1240820D01*
X364490D01*
Y1246840D01*
D02*
G37*
G36*
X393700D02*
X383930D01*
Y1240820D01*
X393700D01*
Y1246840D01*
D02*
G37*
G36*
X814999Y1262380D02*
X814070D01*
Y1235710D01*
X840740D01*
Y1236639D01*
X840052Y1240983D01*
X838693Y1245165D01*
X836696Y1249084D01*
X834111Y1252642D01*
X831002Y1255751D01*
X827444Y1258336D01*
X823525Y1260333D01*
X819343Y1261692D01*
X814999Y1262380D01*
D02*
G37*
G36*
X811530D02*
X810601D01*
X806257Y1261692D01*
X802075Y1260333D01*
X798156Y1258336D01*
X794598Y1255751D01*
X791489Y1252642D01*
X788904Y1249084D01*
X786907Y1245165D01*
X785548Y1240983D01*
X784860Y1236639D01*
Y1235710D01*
X811530D01*
Y1262380D01*
D02*
G37*
G36*
X486310Y1258570D02*
X483970D01*
X481709Y1257964D01*
X479681Y1256794D01*
X478026Y1255139D01*
X476856Y1253111D01*
X476250Y1250850D01*
Y1248510D01*
X476856Y1246249D01*
X478026Y1244221D01*
X479058Y1243190D01*
X478260Y1240650D01*
X478260D01*
Y1235327D01*
X475720Y1234275D01*
X469427Y1240568D01*
X468167Y1241410D01*
X466680Y1241706D01*
X463561D01*
Y1255189D01*
X448921D01*
Y1234011D01*
X459376D01*
X459751Y1233936D01*
X465071D01*
X472394Y1226613D01*
X473654Y1225771D01*
X475141Y1225475D01*
X476743D01*
X477631Y1222935D01*
X469016Y1214320D01*
X467260Y1214790D01*
X464920D01*
X462659Y1214184D01*
X460631Y1213014D01*
X458976Y1211359D01*
X457806Y1209332D01*
X457200Y1207071D01*
Y1204730D01*
X457806Y1202469D01*
X458976Y1200442D01*
X460631Y1198786D01*
X462659Y1197616D01*
X464920Y1197010D01*
X467260D01*
X469521Y1197616D01*
X471549Y1198786D01*
X473204Y1200442D01*
X474374Y1202469D01*
X474980Y1204730D01*
Y1207071D01*
X474510Y1208826D01*
X483754Y1218070D01*
X493340D01*
Y1224570D01*
Y1231070D01*
Y1240650D01*
X492104D01*
X491222Y1243190D01*
X492254Y1244221D01*
X493424Y1246249D01*
X494030Y1248510D01*
Y1250850D01*
X493424Y1253111D01*
X492254Y1255139D01*
X490599Y1256794D01*
X488571Y1257964D01*
X486310Y1258570D01*
D02*
G37*
G36*
X406010Y1238280D02*
X396240D01*
Y1232260D01*
X406010D01*
Y1238280D01*
D02*
G37*
G36*
X393700D02*
X383930D01*
Y1232260D01*
X393700D01*
Y1238280D01*
D02*
G37*
G36*
X376800D02*
X367030D01*
Y1232260D01*
X376800D01*
Y1238280D01*
D02*
G37*
G36*
X364490D02*
X354720D01*
Y1232260D01*
X364490D01*
Y1238280D01*
D02*
G37*
G36*
X309598Y1242060D02*
X293370D01*
Y1228664D01*
X295100D01*
X298896Y1229164D01*
X302433Y1230629D01*
X305470Y1232960D01*
X307801Y1235997D01*
X309266Y1239534D01*
X309598Y1242060D01*
D02*
G37*
G36*
X290830D02*
X274602D01*
X274934Y1239534D01*
X276399Y1235997D01*
X278730Y1232960D01*
X281767Y1230629D01*
X285304Y1229164D01*
X289100Y1228664D01*
X290830D01*
Y1242060D01*
D02*
G37*
G36*
X512340Y1240650D02*
X497260D01*
Y1231070D01*
Y1224570D01*
Y1218070D01*
X512340D01*
Y1224570D01*
Y1231070D01*
Y1240650D01*
D02*
G37*
G36*
X840740Y1233170D02*
X814070D01*
Y1206500D01*
X814999D01*
X819343Y1207188D01*
X823525Y1208547D01*
X827444Y1210544D01*
X831002Y1213129D01*
X834111Y1216238D01*
X836696Y1219796D01*
X838693Y1223715D01*
X840052Y1227897D01*
X840740Y1232241D01*
Y1233170D01*
D02*
G37*
G36*
X811530D02*
X784860D01*
Y1232241D01*
X785548Y1227897D01*
X786907Y1223715D01*
X788904Y1219796D01*
X791489Y1216238D01*
X794598Y1213129D01*
X798156Y1210544D01*
X802075Y1208547D01*
X806257Y1207188D01*
X810601Y1206500D01*
X811530D01*
Y1233170D01*
D02*
G37*
G36*
X295100Y1222995D02*
X289100D01*
X285304Y1222496D01*
X281767Y1221031D01*
X278730Y1218700D01*
X276399Y1215663D01*
X274934Y1212125D01*
X274435Y1208330D01*
X274934Y1204534D01*
X276399Y1200997D01*
X278730Y1197960D01*
X281767Y1195629D01*
X285304Y1194164D01*
X289100Y1193664D01*
X295100D01*
X298896Y1194164D01*
X302433Y1195629D01*
X305470Y1197960D01*
X307801Y1200997D01*
X308961Y1203798D01*
X388000D01*
X389734Y1204143D01*
X389910Y1204260D01*
X406010D01*
Y1218840D01*
X383930D01*
Y1212862D01*
X376800D01*
Y1218840D01*
X354720D01*
Y1212862D01*
X308961D01*
X307801Y1215663D01*
X305470Y1218700D01*
X302433Y1221031D01*
X298896Y1222496D01*
X295100Y1222995D01*
D02*
G37*
G36*
X838769Y1196340D02*
X838200D01*
Y1183640D01*
X850900D01*
Y1184209D01*
X849948Y1187762D01*
X848109Y1190948D01*
X845508Y1193549D01*
X842322Y1195388D01*
X838769Y1196340D01*
D02*
G37*
G36*
X835660D02*
X835091D01*
X831538Y1195388D01*
X828352Y1193549D01*
X825751Y1190948D01*
X823912Y1187762D01*
X822960Y1184209D01*
Y1183640D01*
X835660D01*
Y1196340D01*
D02*
G37*
G36*
X850900Y1181100D02*
X838200D01*
Y1168400D01*
X838769D01*
X842322Y1169352D01*
X845508Y1171191D01*
X848109Y1173792D01*
X849948Y1176978D01*
X850900Y1180531D01*
Y1181100D01*
D02*
G37*
G36*
X835660D02*
X822960D01*
Y1180531D01*
X823912Y1176978D01*
X825751Y1173792D01*
X828352Y1171191D01*
X831538Y1169352D01*
X835091Y1168400D01*
X835660D01*
Y1181100D01*
D02*
G37*
G36*
X437539Y1255189D02*
X422899D01*
Y1241465D01*
X422824Y1241090D01*
Y1191588D01*
X360901Y1129665D01*
X309229D01*
X307801Y1133112D01*
X305470Y1136150D01*
X302433Y1138481D01*
X298896Y1139946D01*
X296479Y1140264D01*
X296027Y1140807D01*
X295322Y1142934D01*
X295689Y1143483D01*
X295985Y1144970D01*
Y1146231D01*
X298896Y1146614D01*
X302433Y1148079D01*
X305470Y1150410D01*
X307801Y1153447D01*
X309266Y1156984D01*
X309765Y1160780D01*
X309266Y1164576D01*
X307801Y1168113D01*
X305470Y1171150D01*
X302433Y1173481D01*
X298896Y1174946D01*
X295100Y1175445D01*
X289100D01*
X285304Y1174946D01*
X281767Y1173481D01*
X278730Y1171150D01*
X276399Y1168113D01*
X274934Y1164576D01*
X274435Y1160780D01*
X274934Y1156984D01*
X276399Y1153447D01*
X278730Y1150410D01*
X281767Y1148079D01*
X282046Y1147964D01*
X281786Y1145322D01*
X281065Y1145179D01*
X279804Y1144337D01*
X270543Y1135075D01*
X269701Y1133815D01*
X269405Y1132328D01*
Y1119231D01*
X269701Y1117745D01*
X270543Y1116484D01*
X279804Y1107223D01*
X281065Y1106381D01*
X282551Y1106085D01*
X361940D01*
X363426Y1106381D01*
X364687Y1107223D01*
X416899Y1159435D01*
X516370D01*
X516513Y1156895D01*
X510295Y1153901D01*
X504014Y1149955D01*
X498215Y1145330D01*
X492970Y1140085D01*
X488345Y1134286D01*
X484399Y1128005D01*
X481181Y1121322D01*
X478731Y1114321D01*
X477080Y1107089D01*
X476250Y1099719D01*
Y1097280D01*
X608330D01*
Y1099719D01*
X607500Y1107089D01*
X605849Y1114321D01*
X603399Y1121322D01*
X600181Y1128005D01*
X596235Y1134286D01*
X591610Y1140085D01*
X586365Y1145330D01*
X580566Y1149955D01*
X574285Y1153901D01*
X568067Y1156895D01*
X568210Y1159435D01*
X760391D01*
X792405Y1127421D01*
Y1113339D01*
X791739Y1113161D01*
X789801Y1112041D01*
X788218Y1110459D01*
X787099Y1108521D01*
X786520Y1106359D01*
Y1104121D01*
X787099Y1101959D01*
X788218Y1100021D01*
X789801Y1098438D01*
X791739Y1097319D01*
X793901Y1096740D01*
X796139D01*
X798301Y1097319D01*
X800239Y1098438D01*
X801822Y1100021D01*
X802941Y1101959D01*
X803520Y1104121D01*
Y1106359D01*
X802941Y1108521D01*
X801822Y1110459D01*
X800239Y1112041D01*
X800175Y1112079D01*
Y1129030D01*
X799879Y1130517D01*
X799037Y1131777D01*
X764747Y1166067D01*
X763487Y1166909D01*
X762000Y1167205D01*
X415290D01*
X413803Y1166909D01*
X412543Y1166067D01*
X360331Y1113855D01*
X307470D01*
X306226Y1116395D01*
X307801Y1118447D01*
X309229Y1121895D01*
X362510D01*
X363996Y1122191D01*
X365257Y1123033D01*
X429456Y1187232D01*
X430298Y1188492D01*
X430593Y1189979D01*
Y1234011D01*
X437539D01*
Y1255189D01*
D02*
G37*
G36*
X781519Y1128350D02*
X779281D01*
X777119Y1127771D01*
X775181Y1126652D01*
X773599Y1125069D01*
X772479Y1123131D01*
X771900Y1120969D01*
Y1118731D01*
X772106Y1117965D01*
X755527Y1101386D01*
X753249Y1102701D01*
X753589Y1103970D01*
X746400D01*
Y1096780D01*
X747669Y1097120D01*
X748984Y1094843D01*
X747015Y1092875D01*
X746249Y1093080D01*
X744011D01*
X741849Y1092501D01*
X739911Y1091382D01*
X738328Y1089799D01*
X737209Y1087861D01*
X736630Y1085699D01*
Y1083461D01*
X737209Y1081299D01*
X738328Y1079361D01*
X739911Y1077778D01*
X741849Y1076659D01*
X744011Y1076080D01*
X746249D01*
X748411Y1076659D01*
X748700Y1076826D01*
X751240Y1075360D01*
Y1061470D01*
X755855D01*
Y1029319D01*
X704911Y978374D01*
X388680D01*
Y986780D01*
X364100D01*
Y962200D01*
X388680D01*
Y970605D01*
X706520D01*
X708006Y970901D01*
X709267Y971743D01*
X762487Y1024963D01*
X763329Y1026223D01*
X763625Y1027710D01*
Y1061470D01*
X768240D01*
Y1078470D01*
X754350D01*
X752884Y1081010D01*
X753051Y1081299D01*
X753630Y1083461D01*
Y1085699D01*
X753425Y1086465D01*
X778515Y1111555D01*
X779281Y1111350D01*
X781519D01*
X783681Y1111929D01*
X785619Y1113048D01*
X787202Y1114631D01*
X788321Y1116569D01*
X788900Y1118731D01*
Y1120969D01*
X788321Y1123131D01*
X787202Y1125069D01*
X785619Y1126652D01*
X783681Y1127771D01*
X781519Y1128350D01*
D02*
G37*
G36*
X746400Y1113699D02*
Y1106510D01*
X753589D01*
X753051Y1108521D01*
X751932Y1110459D01*
X750349Y1112041D01*
X748411Y1113161D01*
X746400Y1113699D01*
D02*
G37*
G36*
X743860D02*
X741849Y1113161D01*
X739911Y1112041D01*
X738328Y1110459D01*
X737209Y1108521D01*
X736670Y1106510D01*
X743860D01*
Y1113699D01*
D02*
G37*
G36*
Y1103970D02*
X736670D01*
X737209Y1101959D01*
X738328Y1100021D01*
X739911Y1098438D01*
X741849Y1097319D01*
X743860Y1096780D01*
Y1103970D01*
D02*
G37*
G36*
X796290Y1093039D02*
Y1085850D01*
X803480D01*
X802941Y1087861D01*
X801822Y1089799D01*
X800239Y1091382D01*
X798301Y1092501D01*
X796290Y1093039D01*
D02*
G37*
G36*
X793750D02*
X791739Y1092501D01*
X789801Y1091382D01*
X788218Y1089799D01*
X787099Y1087861D01*
X786561Y1085850D01*
X793750D01*
Y1093039D01*
D02*
G37*
G36*
X803480Y1083310D02*
X796290D01*
Y1076121D01*
X798301Y1076659D01*
X800239Y1077778D01*
X801822Y1079361D01*
X802941Y1081299D01*
X803480Y1083310D01*
D02*
G37*
G36*
X793750D02*
X786561D01*
X787099Y1081299D01*
X788218Y1079361D01*
X789801Y1077778D01*
X791739Y1076659D01*
X793750Y1076121D01*
Y1083310D01*
D02*
G37*
G36*
X608330Y1094740D02*
X543560D01*
Y1029970D01*
X545999D01*
X553369Y1030800D01*
X560601Y1032451D01*
X567602Y1034901D01*
X574285Y1038119D01*
X580566Y1042066D01*
X586365Y1046690D01*
X591610Y1051935D01*
X596235Y1057734D01*
X600181Y1064015D01*
X603399Y1070698D01*
X605849Y1077699D01*
X607500Y1084930D01*
X608330Y1092301D01*
Y1094740D01*
D02*
G37*
G36*
X541020D02*
X476250D01*
Y1092301D01*
X477080Y1084930D01*
X478731Y1077699D01*
X481181Y1070698D01*
X484399Y1064015D01*
X488345Y1057734D01*
X492970Y1051935D01*
X498215Y1046690D01*
X504014Y1042066D01*
X510295Y1038119D01*
X516978Y1034901D01*
X523979Y1032451D01*
X531211Y1030800D01*
X538581Y1029970D01*
X541020D01*
Y1094740D01*
D02*
G37*
G36*
X378008Y1036780D02*
X374772D01*
X371646Y1035943D01*
X368844Y1034325D01*
X366555Y1032036D01*
X364937Y1029234D01*
X364100Y1026108D01*
Y1022872D01*
X364937Y1019746D01*
X366555Y1016944D01*
X368844Y1014656D01*
X371646Y1013038D01*
X374772Y1012200D01*
X378008D01*
X381134Y1013038D01*
X383936Y1014656D01*
X386224Y1016944D01*
X387842Y1019746D01*
X388680Y1022872D01*
Y1026108D01*
X387842Y1029234D01*
X386224Y1032036D01*
X383936Y1034325D01*
X381134Y1035943D01*
X378008Y1036780D01*
D02*
G37*
G36*
X837499Y1024890D02*
X836930D01*
Y1012190D01*
X849630D01*
Y1012759D01*
X848678Y1016312D01*
X846839Y1019498D01*
X844238Y1022099D01*
X841052Y1023938D01*
X837499Y1024890D01*
D02*
G37*
G36*
X834390D02*
X833821D01*
X830268Y1023938D01*
X827082Y1022099D01*
X824481Y1019498D01*
X822642Y1016312D01*
X821690Y1012759D01*
Y1012190D01*
X834390D01*
Y1024890D01*
D02*
G37*
G36*
X849630Y1009650D02*
X836930D01*
Y996950D01*
X837499D01*
X841052Y997902D01*
X844238Y999741D01*
X846839Y1002342D01*
X848678Y1005528D01*
X849630Y1009081D01*
Y1009650D01*
D02*
G37*
G36*
X834390D02*
X821690D01*
Y1009081D01*
X822642Y1005528D01*
X824481Y1002342D01*
X827082Y999741D01*
X830268Y997902D01*
X833821Y996950D01*
X834390D01*
Y1009650D01*
D02*
G37*
G36*
X278008Y1011780D02*
X274772D01*
X271646Y1010943D01*
X268844Y1009324D01*
X266556Y1007036D01*
X264938Y1004234D01*
X264100Y1001108D01*
Y997872D01*
X264938Y994746D01*
X266556Y991944D01*
X268844Y989656D01*
X271646Y988037D01*
X274772Y987200D01*
X278008D01*
X281134Y988037D01*
X283936Y989656D01*
X286224Y991944D01*
X287843Y994746D01*
X288680Y997872D01*
Y1001108D01*
X287843Y1004234D01*
X286224Y1007036D01*
X283936Y1009324D01*
X281134Y1010943D01*
X278008Y1011780D01*
D02*
G37*
G36*
X328610Y1022030D02*
X324170D01*
X319815Y1021164D01*
X315713Y1019465D01*
X312022Y1016998D01*
X308882Y1013858D01*
X306415Y1010167D01*
X304716Y1006065D01*
X303850Y1001710D01*
Y997270D01*
X304716Y992915D01*
X306415Y988813D01*
X308882Y985122D01*
X312022Y981982D01*
X315713Y979515D01*
X319815Y977816D01*
X324170Y976950D01*
X328610D01*
X332965Y977816D01*
X337067Y979515D01*
X340758Y981982D01*
X343898Y985122D01*
X346365Y988813D01*
X348064Y992915D01*
X348930Y997270D01*
Y1001710D01*
X348064Y1006065D01*
X346365Y1010167D01*
X343898Y1013858D01*
X340758Y1016998D01*
X337067Y1019465D01*
X332965Y1021164D01*
X328610Y1022030D01*
D02*
G37*
G36*
X813729Y982980D02*
X812800D01*
Y956310D01*
X839470D01*
Y957239D01*
X838782Y961583D01*
X837423Y965765D01*
X835426Y969684D01*
X832841Y973242D01*
X829732Y976351D01*
X826174Y978936D01*
X822255Y980933D01*
X818073Y982292D01*
X813729Y982980D01*
D02*
G37*
G36*
X810260D02*
X809331D01*
X804987Y982292D01*
X800805Y980933D01*
X796886Y978936D01*
X793328Y976351D01*
X790219Y973242D01*
X787634Y969684D01*
X785637Y965765D01*
X784278Y961583D01*
X783590Y957239D01*
Y956310D01*
X810260D01*
Y982980D01*
D02*
G37*
G36*
X839470Y953770D02*
X812800D01*
Y927100D01*
X813729D01*
X818073Y927788D01*
X822255Y929147D01*
X826174Y931144D01*
X829732Y933729D01*
X832841Y936838D01*
X835426Y940396D01*
X837423Y944315D01*
X838782Y948497D01*
X839470Y952841D01*
Y953770D01*
D02*
G37*
G36*
X810260D02*
X783590D01*
Y952841D01*
X784278Y948497D01*
X785637Y944315D01*
X787634Y940396D01*
X790219Y936838D01*
X793328Y933729D01*
X796886Y931144D01*
X800805Y929147D01*
X804987Y927788D01*
X809331Y927100D01*
X810260D01*
Y953770D01*
D02*
G37*
%LPD*%
D13*
X466090Y1205900D02*
X483050Y1222860D01*
X485800D01*
X415290Y1163320D02*
X762000D01*
X796290Y1129030D01*
Y1106510D02*
Y1129030D01*
X795020Y1105240D02*
X796290Y1106510D01*
X361940Y1109970D02*
X415290Y1163320D01*
X292100Y1144970D02*
Y1160780D01*
X288720Y1141590D02*
X292100Y1144970D01*
X282551Y1141590D02*
X288720D01*
X273290Y1119231D02*
Y1132328D01*
Y1119231D02*
X282551Y1109970D01*
X361940D01*
X273290Y1132328D02*
X282551Y1141590D01*
X485140Y1236520D02*
X485800Y1235860D01*
X485140Y1236520D02*
Y1249680D01*
X426709Y1241090D02*
X430219Y1244600D01*
X426709Y1189979D02*
Y1241090D01*
X292100Y1125780D02*
X362510D01*
X426709Y1189979D01*
X466680Y1237821D02*
X475141Y1229360D01*
X485800D01*
X456241Y1241331D02*
Y1244600D01*
Y1241331D02*
X459751Y1237821D01*
X466680D01*
X376390Y974490D02*
X706520D01*
X759740Y1027710D02*
Y1069970D01*
X706520Y974490D02*
X759740Y1027710D01*
D15*
X394970Y1211550D02*
D03*
Y1239550D02*
D03*
X365760Y1211550D02*
D03*
Y1239550D02*
D03*
D17*
X430219Y1244600D02*
D03*
X456241D02*
D03*
D28*
X485800Y1235860D02*
D03*
Y1229360D02*
D03*
Y1222860D02*
D03*
X504800D02*
D03*
Y1229360D02*
D03*
Y1235860D02*
D03*
D29*
X292100Y1208330D02*
X388000D01*
X745130Y1084580D02*
X780400Y1119850D01*
X780400D01*
X745130Y1084580D02*
X745130D01*
X391220Y1211550D02*
X394970D01*
X388000Y1208330D02*
X391220Y1211550D01*
D30*
X759740Y1069970D02*
D03*
D31*
X745130Y1084580D02*
D03*
Y1105240D02*
D03*
X780400Y1119850D02*
D03*
X795020Y1105240D02*
D03*
Y1084580D02*
D03*
D32*
X542290Y1096010D02*
D03*
D33*
X812800Y1234440D02*
D03*
X811530Y955040D02*
D03*
D34*
X376390Y974490D02*
D03*
D35*
Y1024490D02*
D03*
X276390Y999490D02*
D03*
D36*
X326390D02*
D03*
D37*
X835660Y1010920D02*
D03*
X836930Y1182370D02*
D03*
D38*
X292100Y1243330D02*
D03*
Y1208330D02*
D03*
Y1160780D02*
D03*
Y1125780D02*
D03*
D39*
X466090Y1205900D02*
D03*
X485140Y1249680D02*
D03*
M02*
