G04*
G04 #@! TF.GenerationSoftware,Altium Limited,Altium Designer,24.6.1 (21)*
G04*
G04 Layer_Physical_Order=2*
G04 Layer_Color=16711680*
%FSLAX44Y44*%
%MOMM*%
G71*
G04*
G04 #@! TF.SameCoordinates,FCEFD5D0-3CA7-4FD4-9723-0F7116719AAB*
G04*
G04*
G04 #@! TF.FilePolarity,Positive*
G04*
G01*
G75*
%ADD13C,0.2540*%
%ADD17R,0.9561X1.6098*%
%ADD29C,0.3810*%
%ADD30R,1.1920X1.1920*%
%ADD31C,1.1920*%
%ADD32C,12.7000*%
%ADD33C,5.0800*%
%ADD34R,1.9500X1.9500*%
%ADD35C,1.9500*%
%ADD36C,2.0000*%
%ADD37C,2.2860*%
%ADD38O,3.0000X2.4000*%
%ADD39C,1.2700*%
%ADD40R,0.9500X1.7000*%
%ADD41R,1.2000X1.5000*%
%ADD42R,0.7000X1.1500*%
%ADD43R,1.6098X0.9561*%
%ADD44C,0.7620*%
G36*
X854710Y1270000D02*
Y916940D01*
X254000D01*
Y1267636D01*
X256478Y1270114D01*
X854710Y1270000D01*
D02*
G37*
%LPC*%
G36*
X295100Y1257996D02*
X293370D01*
Y1244600D01*
X309598D01*
X309266Y1247126D01*
X307801Y1250663D01*
X305470Y1253700D01*
X302433Y1256031D01*
X298896Y1257496D01*
X295100Y1257996D01*
D02*
G37*
G36*
X290830D02*
X289100D01*
X285304Y1257496D01*
X281767Y1256031D01*
X278730Y1253700D01*
X276399Y1250663D01*
X274934Y1247126D01*
X274602Y1244600D01*
X290830D01*
Y1257996D01*
D02*
G37*
G36*
X814999Y1262380D02*
X814070D01*
Y1235710D01*
X840740D01*
Y1236639D01*
X840052Y1240983D01*
X838693Y1245165D01*
X836696Y1249084D01*
X834111Y1252642D01*
X831002Y1255751D01*
X827444Y1258336D01*
X823525Y1260333D01*
X819343Y1261692D01*
X814999Y1262380D01*
D02*
G37*
G36*
X811530D02*
X810601D01*
X806257Y1261692D01*
X802075Y1260333D01*
X798156Y1258336D01*
X794598Y1255751D01*
X791489Y1252642D01*
X788904Y1249084D01*
X786907Y1245165D01*
X785548Y1240983D01*
X784860Y1236639D01*
Y1235710D01*
X811530D01*
Y1262380D01*
D02*
G37*
G36*
X309598Y1242060D02*
X293370D01*
Y1228664D01*
X295100D01*
X298896Y1229164D01*
X302433Y1230629D01*
X305470Y1232960D01*
X307801Y1235997D01*
X309266Y1239534D01*
X309598Y1242060D01*
D02*
G37*
G36*
X290830D02*
X274602D01*
X274934Y1239534D01*
X276399Y1235997D01*
X278730Y1232960D01*
X281767Y1230629D01*
X285304Y1229164D01*
X289100Y1228664D01*
X290830D01*
Y1242060D01*
D02*
G37*
G36*
X384810Y1247264D02*
X327560D01*
X325083Y1246772D01*
X322982Y1245368D01*
X310492Y1232878D01*
X299754Y1222140D01*
X298896Y1222496D01*
X295100Y1222995D01*
X289100D01*
X285304Y1222496D01*
X281767Y1221031D01*
X278730Y1218700D01*
X276399Y1215663D01*
X274934Y1212125D01*
X274435Y1208330D01*
X274934Y1204534D01*
X276399Y1200997D01*
X278730Y1197960D01*
X281767Y1195629D01*
X285304Y1194164D01*
X289100Y1193664D01*
X295100D01*
X298896Y1194164D01*
X302433Y1195629D01*
X305470Y1197960D01*
X307801Y1200997D01*
X309266Y1204534D01*
X309765Y1208330D01*
X309266Y1212125D01*
X308910Y1212984D01*
X319648Y1223722D01*
X330242Y1234316D01*
X363406D01*
Y1228300D01*
X363898Y1225822D01*
X364190Y1225386D01*
Y1219350D01*
X378460D01*
Y1227640D01*
X381000D01*
Y1219350D01*
X395270D01*
Y1224922D01*
X395872Y1225822D01*
X396364Y1228300D01*
Y1235710D01*
X395872Y1238188D01*
X394468Y1240288D01*
X389388Y1245368D01*
X387288Y1246772D01*
X384810Y1247264D01*
D02*
G37*
G36*
X486310Y1258570D02*
X483970D01*
X481709Y1257964D01*
X479681Y1256794D01*
X478026Y1255139D01*
X476856Y1253111D01*
X476250Y1250850D01*
Y1248510D01*
X476856Y1246249D01*
X478026Y1244221D01*
X479681Y1242566D01*
X480945Y1241837D01*
Y1215819D01*
X477509D01*
Y1207098D01*
X474980Y1207071D01*
X474374Y1209332D01*
X473204Y1211359D01*
X471549Y1213014D01*
X469521Y1214184D01*
X467260Y1214790D01*
X464920D01*
X462659Y1214184D01*
X460631Y1213014D01*
X458976Y1211359D01*
X458068Y1209785D01*
X423775D01*
X422289Y1209489D01*
X421029Y1208647D01*
X406256Y1193875D01*
X397406D01*
X395270Y1194850D01*
X395270Y1196415D01*
Y1211430D01*
X383190D01*
Y1196415D01*
X383190Y1194850D01*
X381054Y1193875D01*
X378406D01*
X376270Y1194850D01*
Y1211430D01*
X364190D01*
Y1194850D01*
X366345D01*
Y1192259D01*
X356066Y1181980D01*
X346980D01*
Y1159900D01*
X350415D01*
Y1154040D01*
X347010D01*
Y1131960D01*
X350415D01*
Y1079009D01*
X281904Y1010498D01*
X281134Y1010943D01*
X278008Y1011780D01*
X274772D01*
X271646Y1010943D01*
X268844Y1009324D01*
X266556Y1007036D01*
X264938Y1004234D01*
X264100Y1001108D01*
Y997872D01*
X264938Y994746D01*
X266556Y991944D01*
X268844Y989656D01*
X271646Y988037D01*
X274772Y987200D01*
X278008D01*
X281134Y988037D01*
X283936Y989656D01*
X286224Y991944D01*
X287843Y994746D01*
X288680Y997872D01*
Y1001108D01*
X287843Y1004234D01*
X287398Y1005004D01*
X357047Y1074653D01*
X357889Y1075913D01*
X358185Y1077400D01*
Y1131960D01*
X361590D01*
Y1154040D01*
X358185D01*
Y1159900D01*
X361560D01*
Y1176486D01*
X371179Y1186105D01*
X407865D01*
X409352Y1186401D01*
X410612Y1187243D01*
X425384Y1202016D01*
X458068D01*
X458976Y1200442D01*
X460631Y1198786D01*
X462659Y1197616D01*
X464920Y1197010D01*
X467260D01*
X468899Y1197449D01*
X505775Y1160573D01*
X507035Y1159731D01*
X508522Y1159435D01*
X516370D01*
X516513Y1156895D01*
X510295Y1153901D01*
X504014Y1149955D01*
X498215Y1145330D01*
X492970Y1140085D01*
X488345Y1134286D01*
X484399Y1128005D01*
X481181Y1121322D01*
X478731Y1114321D01*
X477080Y1107089D01*
X476250Y1099719D01*
Y1097280D01*
X608330D01*
Y1099719D01*
X607500Y1107089D01*
X605849Y1114321D01*
X603399Y1121322D01*
X600181Y1128005D01*
X596235Y1134286D01*
X591610Y1140085D01*
X586365Y1145330D01*
X580566Y1149955D01*
X574285Y1153901D01*
X568067Y1156895D01*
X568210Y1159435D01*
X664781D01*
X737029Y1087188D01*
X736630Y1085699D01*
Y1083461D01*
X737209Y1081299D01*
X738328Y1079361D01*
X739911Y1077778D01*
X741245Y1077008D01*
Y1064231D01*
X741541Y1062744D01*
X742383Y1061484D01*
X755545Y1048322D01*
Y1028310D01*
X752140D01*
Y1006230D01*
X755545D01*
Y1001640D01*
X752140D01*
Y979560D01*
X766720D01*
Y1001640D01*
X763315D01*
Y1006230D01*
X766720D01*
Y1028310D01*
X763315D01*
Y1049931D01*
X763019Y1051417D01*
X762177Y1052678D01*
X755731Y1059123D01*
X756703Y1061470D01*
X768240D01*
Y1078470D01*
X754350D01*
X752884Y1081010D01*
X753051Y1081299D01*
X753630Y1083461D01*
Y1085699D01*
X753231Y1087187D01*
X777793Y1111749D01*
X779281Y1111350D01*
X781519D01*
X783681Y1111929D01*
X785619Y1113048D01*
X787202Y1114631D01*
X788321Y1116569D01*
X788900Y1118731D01*
Y1120969D01*
X788321Y1123131D01*
X787202Y1125069D01*
X785619Y1126652D01*
X783681Y1127771D01*
X781519Y1128350D01*
X779281D01*
X777119Y1127771D01*
X775181Y1126652D01*
X773599Y1125069D01*
X772479Y1123131D01*
X771900Y1120969D01*
Y1118731D01*
X772299Y1117243D01*
X754574Y1099518D01*
X752542Y1101077D01*
X753051Y1101959D01*
X753589Y1103970D01*
X745130D01*
X736670D01*
X737209Y1101959D01*
X737718Y1101078D01*
X735685Y1099518D01*
X669137Y1166067D01*
X667876Y1166909D01*
X666390Y1167205D01*
X510131D01*
X485041Y1192294D01*
X486013Y1194641D01*
X492149D01*
Y1215819D01*
X488714D01*
Y1241478D01*
X490599Y1242566D01*
X492254Y1244221D01*
X493424Y1246249D01*
X494030Y1248510D01*
Y1250850D01*
X493424Y1253111D01*
X492254Y1255139D01*
X490599Y1256794D01*
X488571Y1257964D01*
X486310Y1258570D01*
D02*
G37*
G36*
X840740Y1233170D02*
X814070D01*
Y1206500D01*
X814999D01*
X819343Y1207188D01*
X823525Y1208547D01*
X827444Y1210544D01*
X831002Y1213129D01*
X834111Y1216238D01*
X836696Y1219796D01*
X838693Y1223715D01*
X840052Y1227897D01*
X840740Y1232241D01*
Y1233170D01*
D02*
G37*
G36*
X811530D02*
X784860D01*
Y1232241D01*
X785548Y1227897D01*
X786907Y1223715D01*
X788904Y1219796D01*
X791489Y1216238D01*
X794598Y1213129D01*
X798156Y1210544D01*
X802075Y1208547D01*
X806257Y1207188D01*
X810601Y1206500D01*
X811530D01*
Y1233170D01*
D02*
G37*
G36*
X567340Y1215270D02*
X560070D01*
Y1206500D01*
X567340D01*
Y1215270D01*
D02*
G37*
G36*
X557530D02*
X550260D01*
Y1206500D01*
X557530D01*
Y1215270D01*
D02*
G37*
G36*
X567340Y1203960D02*
X560070D01*
Y1195190D01*
X567340D01*
Y1203960D01*
D02*
G37*
G36*
X557530D02*
X550260D01*
Y1195190D01*
X557530D01*
Y1203960D01*
D02*
G37*
G36*
X518171Y1215819D02*
X503531D01*
Y1194641D01*
X518171D01*
Y1201345D01*
X523260D01*
Y1195190D01*
X540340D01*
Y1215270D01*
X523260D01*
Y1209115D01*
X518171D01*
Y1215819D01*
D02*
G37*
G36*
X838769Y1196340D02*
X838200D01*
Y1183640D01*
X850900D01*
Y1184209D01*
X849948Y1187762D01*
X848109Y1190948D01*
X845508Y1193549D01*
X842322Y1195388D01*
X838769Y1196340D01*
D02*
G37*
G36*
X835660D02*
X835091D01*
X831538Y1195388D01*
X828352Y1193549D01*
X825751Y1190948D01*
X823912Y1187762D01*
X822960Y1184209D01*
Y1183640D01*
X835660D01*
Y1196340D01*
D02*
G37*
G36*
X389560Y1181980D02*
X383540D01*
Y1172210D01*
X389560D01*
Y1181980D01*
D02*
G37*
G36*
X381000D02*
X374980D01*
Y1172210D01*
X381000D01*
Y1181980D01*
D02*
G37*
G36*
X850900Y1181100D02*
X838200D01*
Y1168400D01*
X838769D01*
X842322Y1169352D01*
X845508Y1171191D01*
X848109Y1173792D01*
X849948Y1176978D01*
X850900Y1180531D01*
Y1181100D01*
D02*
G37*
G36*
X835660D02*
X822960D01*
Y1180531D01*
X823912Y1176978D01*
X825751Y1173792D01*
X828352Y1171191D01*
X831538Y1169352D01*
X835091Y1168400D01*
X835660D01*
Y1181100D01*
D02*
G37*
G36*
X389560Y1169670D02*
X383540D01*
Y1159900D01*
X389560D01*
Y1169670D01*
D02*
G37*
G36*
X381000D02*
X374980D01*
Y1159900D01*
X381000D01*
Y1169670D01*
D02*
G37*
G36*
X295100Y1175445D02*
X289100D01*
X285304Y1174946D01*
X281767Y1173481D01*
X278730Y1171150D01*
X276399Y1168113D01*
X274934Y1164576D01*
X274435Y1160780D01*
X274934Y1156984D01*
X276399Y1153447D01*
X278730Y1150410D01*
X281767Y1148079D01*
X285304Y1146614D01*
X289100Y1146115D01*
X295100D01*
X298896Y1146614D01*
X302433Y1148079D01*
X305470Y1150410D01*
X307801Y1153447D01*
X309266Y1156984D01*
X309765Y1160780D01*
X309266Y1164576D01*
X307801Y1168113D01*
X305470Y1171150D01*
X302433Y1173481D01*
X298896Y1174946D01*
X295100Y1175445D01*
D02*
G37*
G36*
X389590Y1154040D02*
X383570D01*
Y1144270D01*
X389590D01*
Y1154040D01*
D02*
G37*
G36*
X381030D02*
X375010D01*
Y1144270D01*
X381030D01*
Y1154040D01*
D02*
G37*
G36*
X389590Y1141730D02*
X383570D01*
Y1131960D01*
X389590D01*
Y1141730D01*
D02*
G37*
G36*
X381030D02*
X375010D01*
Y1131960D01*
X381030D01*
Y1141730D01*
D02*
G37*
G36*
X295100Y1140445D02*
X289100D01*
X285304Y1139946D01*
X281767Y1138481D01*
X278730Y1136150D01*
X276399Y1133112D01*
X274934Y1129576D01*
X274435Y1125780D01*
X274934Y1121984D01*
X276399Y1118447D01*
X278730Y1115410D01*
X281767Y1113079D01*
X285304Y1111614D01*
X289100Y1111114D01*
X295100D01*
X298896Y1111614D01*
X302433Y1113079D01*
X305470Y1115410D01*
X307801Y1118447D01*
X309266Y1121984D01*
X309765Y1125780D01*
X309266Y1129576D01*
X307801Y1133112D01*
X305470Y1136150D01*
X302433Y1138481D01*
X298896Y1139946D01*
X295100Y1140445D01*
D02*
G37*
G36*
X746400Y1113699D02*
Y1106510D01*
X753589D01*
X753051Y1108521D01*
X751932Y1110459D01*
X750349Y1112041D01*
X748411Y1113161D01*
X746400Y1113699D01*
D02*
G37*
G36*
X743860D02*
X741849Y1113161D01*
X739911Y1112041D01*
X738328Y1110459D01*
X737209Y1108521D01*
X736670Y1106510D01*
X743860D01*
Y1113699D01*
D02*
G37*
G36*
X796139Y1113740D02*
X793901D01*
X791739Y1113161D01*
X789801Y1112041D01*
X788218Y1110459D01*
X787099Y1108521D01*
X786520Y1106359D01*
Y1104121D01*
X787099Y1101959D01*
X788218Y1100021D01*
X789801Y1098438D01*
X791739Y1097319D01*
X793901Y1096740D01*
X796139D01*
X798301Y1097319D01*
X800239Y1098438D01*
X801822Y1100021D01*
X802941Y1101959D01*
X803520Y1104121D01*
Y1106359D01*
X802941Y1108521D01*
X801822Y1110459D01*
X800239Y1112041D01*
X798301Y1113161D01*
X796139Y1113740D01*
D02*
G37*
G36*
X394129Y1098561D02*
X384810D01*
Y1092511D01*
X394129D01*
Y1098561D01*
D02*
G37*
G36*
X382270D02*
X372951D01*
Y1092511D01*
X382270D01*
Y1098561D01*
D02*
G37*
G36*
X796290Y1093039D02*
Y1085850D01*
X803480D01*
X802941Y1087861D01*
X801822Y1089799D01*
X800239Y1091382D01*
X798301Y1092501D01*
X796290Y1093039D01*
D02*
G37*
G36*
X793750D02*
X791739Y1092501D01*
X789801Y1091382D01*
X788218Y1089799D01*
X787099Y1087861D01*
X786561Y1085850D01*
X793750D01*
Y1093039D01*
D02*
G37*
G36*
X394129Y1089971D02*
X384810D01*
Y1083921D01*
X394129D01*
Y1089971D01*
D02*
G37*
G36*
X382270D02*
X372951D01*
Y1083921D01*
X382270D01*
Y1089971D01*
D02*
G37*
G36*
X803480Y1083310D02*
X796290D01*
Y1076121D01*
X798301Y1076659D01*
X800239Y1077778D01*
X801822Y1079361D01*
X802941Y1081299D01*
X803480Y1083310D01*
D02*
G37*
G36*
X793750D02*
X786561D01*
X787099Y1081299D01*
X788218Y1079361D01*
X789801Y1077778D01*
X791739Y1076659D01*
X793750Y1076121D01*
Y1083310D01*
D02*
G37*
G36*
X608330Y1094740D02*
X543560D01*
Y1029970D01*
X545999D01*
X553369Y1030800D01*
X560601Y1032451D01*
X567602Y1034901D01*
X574285Y1038119D01*
X580566Y1042066D01*
X586365Y1046690D01*
X591610Y1051935D01*
X596235Y1057734D01*
X600181Y1064015D01*
X603399Y1070698D01*
X605849Y1077699D01*
X607500Y1084930D01*
X608330Y1092301D01*
Y1094740D01*
D02*
G37*
G36*
X541020D02*
X476250D01*
Y1092301D01*
X477080Y1084930D01*
X478731Y1077699D01*
X481181Y1070698D01*
X484399Y1064015D01*
X488345Y1057734D01*
X492970Y1051935D01*
X498215Y1046690D01*
X504014Y1042066D01*
X510295Y1038119D01*
X516978Y1034901D01*
X523979Y1032451D01*
X531211Y1030800D01*
X538581Y1029970D01*
X541020D01*
Y1094740D01*
D02*
G37*
G36*
X794720Y1028310D02*
X788700D01*
Y1018540D01*
X794720D01*
Y1028310D01*
D02*
G37*
G36*
X786160D02*
X780140D01*
Y1018540D01*
X786160D01*
Y1028310D01*
D02*
G37*
G36*
X394129Y1072539D02*
X372951D01*
Y1063392D01*
X360083Y1050525D01*
X359241Y1049264D01*
X358945Y1047778D01*
Y988050D01*
X359241Y986563D01*
X360083Y985303D01*
X364100Y981286D01*
Y962200D01*
X388680D01*
Y986780D01*
X369594D01*
X366715Y989659D01*
Y1013576D01*
X369254Y1014418D01*
X371646Y1013038D01*
X374772Y1012200D01*
X378008D01*
X381134Y1013038D01*
X383936Y1014656D01*
X386224Y1016944D01*
X387842Y1019746D01*
X388680Y1022872D01*
Y1026108D01*
X387842Y1029234D01*
X386224Y1032036D01*
X383936Y1034325D01*
X381134Y1035943D01*
X378008Y1036780D01*
X374772D01*
X371646Y1035943D01*
X369254Y1034562D01*
X366715Y1035405D01*
Y1046169D01*
X378445Y1057899D01*
X394129D01*
Y1072539D01*
D02*
G37*
G36*
X837499Y1024890D02*
X836930D01*
Y1012190D01*
X849630D01*
Y1012759D01*
X848678Y1016312D01*
X846839Y1019498D01*
X844238Y1022099D01*
X841052Y1023938D01*
X837499Y1024890D01*
D02*
G37*
G36*
X834390D02*
X833821D01*
X830268Y1023938D01*
X827082Y1022099D01*
X824481Y1019498D01*
X822642Y1016312D01*
X821690Y1012759D01*
Y1012190D01*
X834390D01*
Y1024890D01*
D02*
G37*
G36*
X794720Y1016000D02*
X788700D01*
Y1006230D01*
X794720D01*
Y1016000D01*
D02*
G37*
G36*
X786160D02*
X780140D01*
Y1006230D01*
X786160D01*
Y1016000D01*
D02*
G37*
G36*
X849630Y1009650D02*
X836930D01*
Y996950D01*
X837499D01*
X841052Y997902D01*
X844238Y999741D01*
X846839Y1002342D01*
X848678Y1005528D01*
X849630Y1009081D01*
Y1009650D01*
D02*
G37*
G36*
X834390D02*
X821690D01*
Y1009081D01*
X822642Y1005528D01*
X824481Y1002342D01*
X827082Y999741D01*
X830268Y997902D01*
X833821Y996950D01*
X834390D01*
Y1009650D01*
D02*
G37*
G36*
X794720Y1001640D02*
X788700D01*
Y991870D01*
X794720D01*
Y1001640D01*
D02*
G37*
G36*
X786160D02*
X780140D01*
Y991870D01*
X786160D01*
Y1001640D01*
D02*
G37*
G36*
Y989330D02*
X780140D01*
Y979560D01*
X786160D01*
Y989330D01*
D02*
G37*
G36*
X328610Y1022030D02*
X324170D01*
X319815Y1021164D01*
X315713Y1019465D01*
X312022Y1016998D01*
X308882Y1013858D01*
X306415Y1010167D01*
X304716Y1006065D01*
X303850Y1001710D01*
Y997270D01*
X304716Y992915D01*
X306415Y988813D01*
X308882Y985122D01*
X312022Y981982D01*
X315713Y979515D01*
X319815Y977816D01*
X324170Y976950D01*
X328610D01*
X332965Y977816D01*
X337067Y979515D01*
X340758Y981982D01*
X343898Y985122D01*
X346365Y988813D01*
X348064Y992915D01*
X348930Y997270D01*
Y1001710D01*
X348064Y1006065D01*
X346365Y1010167D01*
X343898Y1013858D01*
X340758Y1016998D01*
X337067Y1019465D01*
X332965Y1021164D01*
X328610Y1022030D01*
D02*
G37*
G36*
X813729Y982980D02*
X812800D01*
Y956310D01*
X839470D01*
Y957239D01*
X838782Y961583D01*
X837423Y965765D01*
X835426Y969684D01*
X832841Y973242D01*
X829732Y976351D01*
X826174Y978936D01*
X822255Y980933D01*
X818073Y982292D01*
X813729Y982980D01*
D02*
G37*
G36*
X794720Y989330D02*
X788700D01*
Y979560D01*
X792544D01*
X793423Y979560D01*
X794249Y977020D01*
X793328Y976351D01*
X790219Y973242D01*
X787634Y969684D01*
X785637Y965765D01*
X784278Y961583D01*
X783590Y957239D01*
Y956310D01*
X810260D01*
Y982980D01*
X809331D01*
X804987Y982292D01*
X800805Y980933D01*
X797033Y979011D01*
X796410Y979281D01*
X794720Y980502D01*
X794720Y981655D01*
Y989330D01*
D02*
G37*
G36*
X839470Y953770D02*
X812800D01*
Y927100D01*
X813729D01*
X818073Y927788D01*
X822255Y929147D01*
X826174Y931144D01*
X829732Y933729D01*
X832841Y936838D01*
X835426Y940396D01*
X837423Y944315D01*
X838782Y948497D01*
X839470Y952841D01*
Y953770D01*
D02*
G37*
G36*
X810260D02*
X783590D01*
Y952841D01*
X784278Y948497D01*
X785637Y944315D01*
X787634Y940396D01*
X790219Y936838D01*
X793328Y933729D01*
X796886Y931144D01*
X800805Y929147D01*
X804987Y927788D01*
X809331Y927100D01*
X810260D01*
Y953770D01*
D02*
G37*
%LPD*%
D13*
X370230Y1239302D02*
X371718Y1240790D01*
X389230Y1227640D02*
X389890Y1228300D01*
X354300Y1077400D02*
Y1143000D01*
X276390Y999490D02*
X354300Y1077400D01*
Y1143000D02*
Y1170910D01*
X354270Y1170940D02*
X354300Y1170910D01*
X354270Y1174690D02*
X370230Y1190650D01*
X354270Y1170940D02*
Y1174690D01*
X370230Y1190650D02*
Y1203140D01*
X369788Y1189990D02*
X407865D01*
X423775Y1205900D01*
X466090D01*
X508522Y1163320D02*
X666390D01*
X466090Y1205752D02*
X508522Y1163320D01*
X466090Y1205752D02*
Y1205900D01*
X666390Y1163320D02*
X745130Y1084580D01*
X484829Y1205230D02*
Y1245559D01*
X485140Y1245870D01*
X510851Y1205230D02*
X531800D01*
X745130Y1084580D02*
X780400Y1119850D01*
X780400D01*
X745130Y1084580D02*
X745130D01*
X745130Y1064231D02*
X759430Y1049931D01*
X745130Y1064231D02*
Y1084580D01*
X759430Y1024890D02*
Y1049931D01*
Y991870D02*
Y1017270D01*
X362830Y1047778D02*
X380271Y1065219D01*
X362830Y988050D02*
X376390Y974490D01*
X362830Y988050D02*
Y1047778D01*
X380271Y1065219D02*
X383540D01*
D17*
X510851Y1205230D02*
D03*
X484829D02*
D03*
D29*
X370230Y1240790D02*
X371718D01*
X292100Y1208330D02*
X295100D01*
D30*
X759740Y1069970D02*
D03*
D31*
X745130Y1084580D02*
D03*
Y1105240D02*
D03*
X780400Y1119850D02*
D03*
X795020Y1105240D02*
D03*
Y1084580D02*
D03*
D32*
X542290Y1096010D02*
D03*
D33*
X812800Y1234440D02*
D03*
X811530Y955040D02*
D03*
D34*
X376390Y974490D02*
D03*
D35*
Y1024490D02*
D03*
X276390Y999490D02*
D03*
D36*
X326390D02*
D03*
D37*
X835660Y1010920D02*
D03*
X836930Y1182370D02*
D03*
D38*
X292100Y1243330D02*
D03*
Y1208330D02*
D03*
Y1160780D02*
D03*
Y1125780D02*
D03*
D39*
X466090Y1205900D02*
D03*
X485140Y1249680D02*
D03*
D40*
X382300Y1143000D02*
D03*
X354300D02*
D03*
X787430Y990600D02*
D03*
X759430D02*
D03*
X787430Y1017270D02*
D03*
X759430D02*
D03*
X354270Y1170940D02*
D03*
X382270D02*
D03*
D41*
X531800Y1205230D02*
D03*
X558800D02*
D03*
D42*
X370230Y1203140D02*
D03*
X389230D02*
D03*
Y1227640D02*
D03*
X379730D02*
D03*
X370230D02*
D03*
D43*
X383540Y1091241D02*
D03*
Y1065219D02*
D03*
D44*
X389890Y1228300D02*
Y1235710D01*
X370230Y1240790D02*
X384810D01*
X389890Y1235710D01*
X369880Y1228300D02*
Y1236020D01*
X295100Y1208330D02*
X315070Y1228300D01*
X369880Y1236020D02*
X373600Y1239740D01*
X315070Y1228300D02*
X327560Y1240790D01*
X370230D01*
M02*
