%TF.GenerationSoftware,Altium Limited,Altium Designer,24.6.1 (21)*%
G04 Layer_Color=0*
%FSLAX45Y45*%
%MOMM*%
%TF.SameCoordinates,973C4F09-4287-4DA2-A26F-92637CA031E7*%
%TF.FilePolarity,Positive*%
%TF.FileFunction,Plated,1,2,PTH,Drill*%
%TF.Part,Single*%
G01*
G75*
%TA.AperFunction,ComponentDrill*%
%ADD52C,0.65000*%
%TA.AperFunction,OtherDrill,Pad Free-19 (54.229mm,109.601mm)*%
%ADD53C,9.00000*%
%TA.AperFunction,OtherDrill,Pad Free-19 (81.28mm,123.444mm)*%
%ADD54C,3.20000*%
%TA.AperFunction,OtherDrill,Pad Free-19 (81.153mm,95.504mm)*%
%ADD55C,3.20000*%
%TA.AperFunction,ComponentDrill*%
%ADD56C,1.30000*%
%TA.AperFunction,OtherDrill,Pad Free-21 (83.566mm,101.092mm)*%
%ADD57C,2.20000*%
%TA.AperFunction,OtherDrill,Pad Free-21 (83.693mm,118.237mm)*%
%ADD58C,2.20000*%
%TA.AperFunction,ComponentDrill*%
%ADD59C,1.20000*%
%TA.AperFunction,ViaDrill,NotFilled*%
%ADD60C,0.76200*%
D52*
X7597399Y10699699D02*
D03*
X7451298Y10845800D02*
D03*
Y11052399D02*
D03*
X7804003Y11198499D02*
D03*
X7950200Y11052399D02*
D03*
Y10845800D02*
D03*
D53*
X5422900Y10960100D02*
D03*
D54*
X8128000Y12344400D02*
D03*
D55*
X8115300Y9550400D02*
D03*
D56*
X3763899Y9744898D02*
D03*
Y10244902D02*
D03*
X2763901Y9994900D02*
D03*
D57*
X8356600Y10109200D02*
D03*
D58*
X8369300Y11823700D02*
D03*
D59*
X2921000Y12433300D02*
D03*
Y12083298D02*
D03*
Y11607800D02*
D03*
Y11257798D02*
D03*
D60*
X4660900Y12059003D02*
D03*
X4851400Y12496800D02*
D03*
%TF.MD5,2a4630620c478ed12d17b7ee83be28e1*%
M02*
