%TF.GenerationSoftware,Altium Limited,Altium Designer,24.6.1 (21)*%
G04 Layer_Physical_Order=1*
G04 Layer_Color=255*
%FSLAX45Y45*%
%MOMM*%
%TF.SameCoordinates,973C4F09-4287-4DA2-A26F-92637CA031E7*%
%TF.FilePolarity,Positive*%
%TF.FileFunction,Copper,L1,Top,Signal*%
%TF.Part,Single*%
G01*
G75*
%TA.AperFunction,SMDPad,CuDef*%
%ADD10R,1.70000X0.95000*%
%ADD11R,1.00000X0.45000*%
%ADD12R,0.95606X1.60981*%
%TA.AperFunction,Conductor*%
%ADD13C,0.38100*%
%ADD14C,0.25400*%
%TA.AperFunction,ComponentPad*%
%ADD15R,1.19200X1.19200*%
%ADD16C,1.19200*%
%TA.AperFunction,ViaPad*%
%ADD17C,12.70000*%
%ADD18C,5.08000*%
%TA.AperFunction,ComponentPad*%
%ADD19R,1.95000X1.95000*%
%ADD20C,1.95000*%
%ADD21C,2.00000*%
%TA.AperFunction,ViaPad*%
%ADD22C,2.28600*%
%TA.AperFunction,ComponentPad*%
%ADD23O,3.00000X2.40000*%
%TA.AperFunction,ViaPad*%
%ADD24C,1.27000*%
G36*
X8547100Y12682038D02*
Y9169400D01*
X2547339D01*
X2545189Y9174589D01*
Y12698773D01*
X8529138Y12699996D01*
X8547100Y12682038D01*
D02*
G37*
%LPC*%
G36*
X2951000Y12579955D02*
X2933700D01*
Y12446000D01*
X3095983D01*
X3092658Y12471257D01*
X3078007Y12506627D01*
X3054701Y12537001D01*
X3024327Y12560307D01*
X2988957Y12574958D01*
X2951000Y12579955D01*
D02*
G37*
G36*
X2908300D02*
X2891000D01*
X2853043Y12574958D01*
X2817673Y12560307D01*
X2787299Y12537001D01*
X2763993Y12506627D01*
X2749342Y12471257D01*
X2746017Y12446000D01*
X2908300D01*
Y12579955D01*
D02*
G37*
G36*
X4060100Y12468400D02*
X3962400D01*
Y12408200D01*
X4060100D01*
Y12468400D01*
D02*
G37*
G36*
X3768000D02*
X3670300D01*
Y12408200D01*
X3768000D01*
Y12468400D01*
D02*
G37*
G36*
X3644900D02*
X3547200D01*
Y12408200D01*
X3644900D01*
Y12468400D01*
D02*
G37*
G36*
X3937000D02*
X3839300D01*
Y12408200D01*
X3937000D01*
Y12468400D01*
D02*
G37*
G36*
X8149989Y12623800D02*
X8140700D01*
Y12357100D01*
X8407400D01*
Y12366389D01*
X8400520Y12409826D01*
X8386930Y12451652D01*
X8366964Y12490837D01*
X8341114Y12526417D01*
X8310017Y12557514D01*
X8274437Y12583364D01*
X8235252Y12603330D01*
X8193426Y12616920D01*
X8149989Y12623800D01*
D02*
G37*
G36*
X8115300D02*
X8106011D01*
X8062574Y12616920D01*
X8020748Y12603330D01*
X7981563Y12583364D01*
X7945983Y12557514D01*
X7914886Y12526417D01*
X7889036Y12490837D01*
X7869070Y12451652D01*
X7855480Y12409826D01*
X7848600Y12366389D01*
Y12357100D01*
X8115300D01*
Y12623800D01*
D02*
G37*
G36*
X4863104Y12585700D02*
X4839696D01*
X4817086Y12579642D01*
X4796814Y12567938D01*
X4780262Y12551386D01*
X4768558Y12531114D01*
X4762500Y12508504D01*
Y12485096D01*
X4768558Y12462486D01*
X4780262Y12442214D01*
X4790578Y12431898D01*
X4782599Y12406498D01*
X4782599D01*
Y12353269D01*
X4757199Y12342748D01*
X4694269Y12405678D01*
X4681666Y12414099D01*
X4666800Y12417056D01*
X4635612D01*
Y12551890D01*
X4489206D01*
Y12340110D01*
X4593759D01*
X4597512Y12339363D01*
X4650710D01*
X4723942Y12266131D01*
X4736544Y12257711D01*
X4751410Y12254753D01*
X4767425D01*
X4776314Y12229353D01*
X4690159Y12143199D01*
X4672604Y12147903D01*
X4649196D01*
X4626586Y12141844D01*
X4606314Y12130140D01*
X4589762Y12113588D01*
X4578058Y12093317D01*
X4572000Y12070706D01*
Y12047299D01*
X4578058Y12024688D01*
X4589762Y12004417D01*
X4606314Y11987865D01*
X4626586Y11976161D01*
X4649196Y11970103D01*
X4672604D01*
X4695214Y11976161D01*
X4715486Y11987865D01*
X4732038Y12004417D01*
X4743742Y12024688D01*
X4749800Y12047299D01*
Y12070706D01*
X4745096Y12088262D01*
X4837536Y12180702D01*
X4933399D01*
Y12245700D01*
Y12310699D01*
Y12406498D01*
X4921041D01*
X4912222Y12431898D01*
X4922538Y12442214D01*
X4934242Y12462486D01*
X4940300Y12485096D01*
Y12508504D01*
X4934242Y12531114D01*
X4922538Y12551386D01*
X4905986Y12567938D01*
X4885714Y12579642D01*
X4863104Y12585700D01*
D02*
G37*
G36*
X4060100Y12382800D02*
X3962400D01*
Y12322600D01*
X4060100D01*
Y12382800D01*
D02*
G37*
G36*
X3937000D02*
X3839300D01*
Y12322600D01*
X3937000D01*
Y12382800D01*
D02*
G37*
G36*
X3768000D02*
X3670300D01*
Y12322600D01*
X3768000D01*
Y12382800D01*
D02*
G37*
G36*
X3644900D02*
X3547200D01*
Y12322600D01*
X3644900D01*
Y12382800D01*
D02*
G37*
G36*
X3095983Y12420600D02*
X2933700D01*
Y12286645D01*
X2951000D01*
X2988957Y12291642D01*
X3024327Y12306293D01*
X3054701Y12329599D01*
X3078007Y12359973D01*
X3092658Y12395343D01*
X3095983Y12420600D01*
D02*
G37*
G36*
X2908300D02*
X2746017D01*
X2749342Y12395343D01*
X2763993Y12359973D01*
X2787299Y12329599D01*
X2817673Y12306293D01*
X2853043Y12291642D01*
X2891000Y12286645D01*
X2908300D01*
Y12420600D01*
D02*
G37*
G36*
X5123401Y12406498D02*
X4972601D01*
Y12310699D01*
Y12245700D01*
Y12180702D01*
X5123401D01*
Y12245700D01*
Y12310699D01*
Y12406498D01*
D02*
G37*
G36*
X8407400Y12331700D02*
X8140700D01*
Y12065000D01*
X8149989D01*
X8193426Y12071880D01*
X8235252Y12085470D01*
X8274437Y12105436D01*
X8310017Y12131286D01*
X8341114Y12162383D01*
X8366964Y12197963D01*
X8386930Y12237148D01*
X8400520Y12278974D01*
X8407400Y12322411D01*
Y12331700D01*
D02*
G37*
G36*
X8115300D02*
X7848600D01*
Y12322411D01*
X7855480Y12278974D01*
X7869070Y12237148D01*
X7889036Y12197963D01*
X7914886Y12162383D01*
X7945983Y12131286D01*
X7981563Y12105436D01*
X8020748Y12085470D01*
X8062574Y12071880D01*
X8106011Y12065000D01*
X8115300D01*
Y12331700D01*
D02*
G37*
G36*
X2951000Y12229953D02*
X2891000D01*
X2853043Y12224956D01*
X2817673Y12210305D01*
X2787299Y12186999D01*
X2763993Y12156625D01*
X2749342Y12121255D01*
X2744345Y12083298D01*
X2749342Y12045341D01*
X2763993Y12009971D01*
X2787299Y11979598D01*
X2817673Y11956291D01*
X2853043Y11941641D01*
X2891000Y11936643D01*
X2951000D01*
X2988957Y11941641D01*
X3024327Y11956291D01*
X3054701Y11979598D01*
X3078007Y12009971D01*
X3089607Y12037977D01*
X3879998D01*
X3897341Y12041427D01*
X3899097Y12042600D01*
X4060100D01*
Y12188400D01*
X3839300D01*
Y12128619D01*
X3768000D01*
Y12188400D01*
X3547200D01*
Y12128619D01*
X3089607D01*
X3078007Y12156625D01*
X3054701Y12186999D01*
X3024327Y12210305D01*
X2988957Y12224956D01*
X2951000Y12229953D01*
D02*
G37*
G36*
X8387692Y11963400D02*
X8382000D01*
Y11836400D01*
X8509000D01*
Y11842092D01*
X8499480Y11877622D01*
X8481088Y11909478D01*
X8455078Y11935488D01*
X8423222Y11953880D01*
X8387692Y11963400D01*
D02*
G37*
G36*
X8356600D02*
X8350908D01*
X8315378Y11953880D01*
X8283522Y11935488D01*
X8257512Y11909478D01*
X8239120Y11877622D01*
X8229600Y11842092D01*
Y11836400D01*
X8356600D01*
Y11963400D01*
D02*
G37*
G36*
X8509000Y11811000D02*
X8382000D01*
Y11684000D01*
X8387692D01*
X8423222Y11693520D01*
X8455078Y11711912D01*
X8481088Y11737922D01*
X8499480Y11769778D01*
X8509000Y11805308D01*
Y11811000D01*
D02*
G37*
G36*
X8356600D02*
X8229600D01*
Y11805308D01*
X8239120Y11769778D01*
X8257512Y11737922D01*
X8283522Y11711912D01*
X8315378Y11693520D01*
X8350908Y11684000D01*
X8356600D01*
Y11811000D01*
D02*
G37*
G36*
X4375394Y12551890D02*
X4228988D01*
Y12414650D01*
X4228242Y12410897D01*
Y11915879D01*
X3609008Y11296645D01*
X3092289D01*
X3078007Y11331125D01*
X3054701Y11361499D01*
X3024327Y11384805D01*
X2988957Y11399456D01*
X2964795Y11402637D01*
X2960268Y11408070D01*
X2953220Y11429342D01*
X2956889Y11434834D01*
X2959847Y11449700D01*
Y11462310D01*
X2988957Y11466142D01*
X3024327Y11480793D01*
X3054701Y11504099D01*
X3078007Y11534473D01*
X3092658Y11569843D01*
X3097655Y11607800D01*
X3092658Y11645757D01*
X3078007Y11681127D01*
X3054701Y11711501D01*
X3024327Y11734807D01*
X2988957Y11749458D01*
X2951000Y11754455D01*
X2891000D01*
X2853043Y11749458D01*
X2817673Y11734807D01*
X2787299Y11711501D01*
X2763993Y11681127D01*
X2749342Y11645757D01*
X2744345Y11607800D01*
X2749342Y11569843D01*
X2763993Y11534473D01*
X2787299Y11504099D01*
X2817673Y11480793D01*
X2820462Y11479638D01*
X2817861Y11453222D01*
X2810647Y11451788D01*
X2798044Y11443367D01*
X2705431Y11350754D01*
X2697011Y11338151D01*
X2694054Y11323285D01*
Y11192311D01*
X2697011Y11177445D01*
X2705431Y11164843D01*
X2798044Y11072230D01*
X2810647Y11063809D01*
X2825513Y11060852D01*
X3619398D01*
X3634264Y11063809D01*
X3646867Y11072230D01*
X4168991Y11594353D01*
X5163696D01*
X5165130Y11568953D01*
X5102949Y11539008D01*
X5040143Y11499545D01*
X4982151Y11453298D01*
X4929702Y11400849D01*
X4883455Y11342857D01*
X4843992Y11280051D01*
X4811809Y11213222D01*
X4787310Y11143210D01*
X4770805Y11070895D01*
X4762500Y10997187D01*
Y10972800D01*
X6083300D01*
Y10997187D01*
X6074995Y11070895D01*
X6058490Y11143210D01*
X6033991Y11213222D01*
X6001808Y11280051D01*
X5962345Y11342857D01*
X5916098Y11400849D01*
X5863649Y11453298D01*
X5805657Y11499545D01*
X5742851Y11539008D01*
X5680670Y11568953D01*
X5682104Y11594353D01*
X7603909D01*
X7924053Y11274209D01*
Y11133391D01*
X7917391Y11131606D01*
X7898009Y11120415D01*
X7882183Y11104590D01*
X7870993Y11085207D01*
X7865200Y11063589D01*
Y11041208D01*
X7870993Y11019590D01*
X7882183Y11000207D01*
X7898009Y10984382D01*
X7917391Y10973191D01*
X7939010Y10967399D01*
X7961390D01*
X7983009Y10973191D01*
X8002391Y10984382D01*
X8018217Y11000207D01*
X8029407Y11019590D01*
X8035200Y11041208D01*
Y11063589D01*
X8029407Y11085207D01*
X8018217Y11104590D01*
X8002391Y11120415D01*
X8001747Y11120788D01*
Y11290300D01*
X7998789Y11305166D01*
X7990369Y11317769D01*
X7647469Y11660669D01*
X7634866Y11669089D01*
X7620000Y11672047D01*
X4152900D01*
X4138034Y11669089D01*
X4125431Y11660669D01*
X3603307Y11138545D01*
X3074695D01*
X3062257Y11163945D01*
X3078007Y11184471D01*
X3092289Y11218952D01*
X3625098D01*
X3639964Y11221909D01*
X3652567Y11230330D01*
X4294557Y11872320D01*
X4302978Y11884922D01*
X4305935Y11899788D01*
Y12340110D01*
X4375394D01*
Y12551890D01*
D02*
G37*
G36*
X7815193Y11283499D02*
X7792812D01*
X7771194Y11277707D01*
X7751812Y11266516D01*
X7735986Y11250690D01*
X7724795Y11231308D01*
X7719003Y11209690D01*
Y11187309D01*
X7721056Y11179648D01*
X7555266Y11013858D01*
X7532493Y11027006D01*
X7535894Y11039699D01*
X7463998D01*
Y10967803D01*
X7476690Y10971204D01*
X7489838Y10948431D01*
X7470154Y10928746D01*
X7462489Y10930800D01*
X7440108D01*
X7418490Y10925007D01*
X7399107Y10913817D01*
X7383281Y10897991D01*
X7372091Y10878609D01*
X7366298Y10856990D01*
Y10834610D01*
X7372091Y10812991D01*
X7383281Y10793609D01*
X7399107Y10777783D01*
X7418490Y10766593D01*
X7440108Y10760800D01*
X7462489D01*
X7484107Y10766593D01*
X7486999Y10768262D01*
X7512399Y10753598D01*
Y10614699D01*
X7558553D01*
Y10293190D01*
X7049107Y9783744D01*
X3886799D01*
Y9867798D01*
X3640999D01*
Y9621998D01*
X3886799D01*
Y9706051D01*
X7065198D01*
X7080064Y9709009D01*
X7092667Y9717429D01*
X7624868Y10249631D01*
X7633289Y10262233D01*
X7636246Y10277099D01*
Y10614699D01*
X7682399D01*
Y10784699D01*
X7543501D01*
X7528836Y10810099D01*
X7530506Y10812991D01*
X7536298Y10834610D01*
Y10856990D01*
X7534246Y10864651D01*
X7785147Y11115553D01*
X7792812Y11113499D01*
X7815193D01*
X7836811Y11119292D01*
X7856194Y11130482D01*
X7872020Y11146308D01*
X7883210Y11165691D01*
X7889003Y11187309D01*
Y11209690D01*
X7883210Y11231308D01*
X7872020Y11250690D01*
X7856194Y11266516D01*
X7836811Y11277707D01*
X7815193Y11283499D01*
D02*
G37*
G36*
X7463998Y11136994D02*
Y11065099D01*
X7535894D01*
X7530506Y11085207D01*
X7519315Y11104590D01*
X7503489Y11120415D01*
X7484107Y11131606D01*
X7463998Y11136994D01*
D02*
G37*
G36*
X7438598D02*
X7418490Y11131606D01*
X7399107Y11120415D01*
X7383281Y11104590D01*
X7372091Y11085207D01*
X7366703Y11065099D01*
X7438598D01*
Y11136994D01*
D02*
G37*
G36*
Y11039699D02*
X7366703D01*
X7372091Y11019590D01*
X7383281Y11000207D01*
X7399107Y10984382D01*
X7418490Y10973191D01*
X7438598Y10967803D01*
Y11039699D01*
D02*
G37*
G36*
X7962900Y10930395D02*
Y10858500D01*
X8034795D01*
X8029407Y10878609D01*
X8018217Y10897991D01*
X8002391Y10913817D01*
X7983009Y10925007D01*
X7962900Y10930395D01*
D02*
G37*
G36*
X7937500D02*
X7917391Y10925007D01*
X7898009Y10913817D01*
X7882183Y10897991D01*
X7870993Y10878609D01*
X7865605Y10858500D01*
X7937500D01*
Y10930395D01*
D02*
G37*
G36*
X8034795Y10833100D02*
X7962900D01*
Y10761205D01*
X7983009Y10766593D01*
X8002391Y10777783D01*
X8018217Y10793609D01*
X8029407Y10812991D01*
X8034795Y10833100D01*
D02*
G37*
G36*
X7937500D02*
X7865605D01*
X7870993Y10812991D01*
X7882183Y10793609D01*
X7898009Y10777783D01*
X7917391Y10766593D01*
X7937500Y10761205D01*
Y10833100D01*
D02*
G37*
G36*
X6083300Y10947400D02*
X5435600D01*
Y10299700D01*
X5459987D01*
X5533695Y10308005D01*
X5606010Y10324510D01*
X5676022Y10349009D01*
X5742851Y10381192D01*
X5805657Y10420655D01*
X5863649Y10466902D01*
X5916098Y10519351D01*
X5962345Y10577343D01*
X6001808Y10640149D01*
X6033991Y10706978D01*
X6058490Y10776990D01*
X6074995Y10849305D01*
X6083300Y10923013D01*
Y10947400D01*
D02*
G37*
G36*
X5410200D02*
X4762500D01*
Y10923013D01*
X4770805Y10849305D01*
X4787310Y10776990D01*
X4811809Y10706978D01*
X4843992Y10640149D01*
X4883455Y10577343D01*
X4929702Y10519351D01*
X4982151Y10466902D01*
X5040143Y10420655D01*
X5102949Y10381192D01*
X5169778Y10349009D01*
X5239790Y10324510D01*
X5312105Y10308005D01*
X5385813Y10299700D01*
X5410200D01*
Y10947400D01*
D02*
G37*
G36*
X3780079Y10367802D02*
X3747719D01*
X3716461Y10359427D01*
X3688437Y10343247D01*
X3665555Y10320364D01*
X3649374Y10292340D01*
X3640999Y10261082D01*
Y10228722D01*
X3649374Y10197464D01*
X3665555Y10169440D01*
X3688437Y10146558D01*
X3716461Y10130378D01*
X3747719Y10122002D01*
X3780079D01*
X3811337Y10130378D01*
X3839361Y10146558D01*
X3862243Y10169440D01*
X3878424Y10197464D01*
X3886799Y10228722D01*
Y10261082D01*
X3878424Y10292340D01*
X3862243Y10320364D01*
X3839361Y10343247D01*
X3811337Y10359427D01*
X3780079Y10367802D01*
D02*
G37*
G36*
X8374992Y10248900D02*
X8369300D01*
Y10121900D01*
X8496300D01*
Y10127592D01*
X8486780Y10163122D01*
X8468388Y10194978D01*
X8442378Y10220988D01*
X8410522Y10239380D01*
X8374992Y10248900D01*
D02*
G37*
G36*
X8343900D02*
X8338208D01*
X8302678Y10239380D01*
X8270822Y10220988D01*
X8244812Y10194978D01*
X8226420Y10163122D01*
X8216900Y10127592D01*
Y10121900D01*
X8343900D01*
Y10248900D01*
D02*
G37*
G36*
X8496300Y10096500D02*
X8369300D01*
Y9969500D01*
X8374992D01*
X8410522Y9979020D01*
X8442378Y9997412D01*
X8468388Y10023422D01*
X8486780Y10055278D01*
X8496300Y10090808D01*
Y10096500D01*
D02*
G37*
G36*
X8343900D02*
X8216900D01*
Y10090808D01*
X8226420Y10055278D01*
X8244812Y10023422D01*
X8270822Y9997412D01*
X8302678Y9979020D01*
X8338208Y9969500D01*
X8343900D01*
Y10096500D01*
D02*
G37*
G36*
X2780081Y10117800D02*
X2747721D01*
X2716463Y10109425D01*
X2688439Y10093244D01*
X2665557Y10070362D01*
X2649376Y10042338D01*
X2641001Y10011080D01*
Y9978720D01*
X2649376Y9947462D01*
X2665557Y9919438D01*
X2688439Y9896556D01*
X2716463Y9880375D01*
X2747721Y9872000D01*
X2780081D01*
X2811339Y9880375D01*
X2839363Y9896556D01*
X2862245Y9919438D01*
X2878426Y9947462D01*
X2886801Y9978720D01*
Y10011080D01*
X2878426Y10042338D01*
X2862245Y10070362D01*
X2839363Y10093244D01*
X2811339Y10109425D01*
X2780081Y10117800D01*
D02*
G37*
G36*
X3286100Y10220300D02*
X3241700D01*
X3198153Y10211638D01*
X3157133Y10194647D01*
X3120216Y10169980D01*
X3088820Y10138584D01*
X3064153Y10101667D01*
X3047162Y10060647D01*
X3038500Y10017100D01*
Y9972700D01*
X3047162Y9929153D01*
X3064153Y9888133D01*
X3088820Y9851216D01*
X3120216Y9819820D01*
X3157133Y9795153D01*
X3198153Y9778162D01*
X3241700Y9769500D01*
X3286100D01*
X3329647Y9778162D01*
X3370667Y9795153D01*
X3407584Y9819820D01*
X3438980Y9851216D01*
X3463647Y9888133D01*
X3480638Y9929153D01*
X3489300Y9972700D01*
Y10017100D01*
X3480638Y10060647D01*
X3463647Y10101667D01*
X3438980Y10138584D01*
X3407584Y10169980D01*
X3370667Y10194647D01*
X3329647Y10211638D01*
X3286100Y10220300D01*
D02*
G37*
G36*
X8137289Y9829800D02*
X8128000D01*
Y9563100D01*
X8394700D01*
Y9572389D01*
X8387820Y9615826D01*
X8374230Y9657652D01*
X8354264Y9696837D01*
X8328414Y9732417D01*
X8297317Y9763514D01*
X8261737Y9789364D01*
X8222552Y9809330D01*
X8180726Y9822920D01*
X8137289Y9829800D01*
D02*
G37*
G36*
X8102600D02*
X8093311D01*
X8049874Y9822920D01*
X8008048Y9809330D01*
X7968863Y9789364D01*
X7933283Y9763514D01*
X7902186Y9732417D01*
X7876336Y9696837D01*
X7856370Y9657652D01*
X7842780Y9615826D01*
X7835900Y9572389D01*
Y9563100D01*
X8102600D01*
Y9829800D01*
D02*
G37*
G36*
X8394700Y9537700D02*
X8128000D01*
Y9271000D01*
X8137289D01*
X8180726Y9277880D01*
X8222552Y9291470D01*
X8261737Y9311436D01*
X8297317Y9337286D01*
X8328414Y9368383D01*
X8354264Y9403963D01*
X8374230Y9443148D01*
X8387820Y9484974D01*
X8394700Y9528411D01*
Y9537700D01*
D02*
G37*
G36*
X8102600D02*
X7835900D01*
Y9528411D01*
X7842780Y9484974D01*
X7856370Y9443148D01*
X7876336Y9403963D01*
X7902186Y9368383D01*
X7933283Y9337286D01*
X7968863Y9311436D01*
X8008048Y9291470D01*
X8049874Y9277880D01*
X8093311Y9271000D01*
X8102600D01*
Y9537700D01*
D02*
G37*
%LPD*%
D10*
X3949700Y12115500D02*
D03*
Y12395500D02*
D03*
X3657600Y12115500D02*
D03*
Y12395500D02*
D03*
D11*
X4857999Y12358599D02*
D03*
Y12293600D02*
D03*
Y12228601D02*
D03*
X5048001D02*
D03*
Y12293600D02*
D03*
Y12358599D02*
D03*
D12*
X4302191Y12446000D02*
D03*
X4562409D02*
D03*
D13*
X2921000Y12083298D02*
X3879998D01*
X7451301Y10845800D02*
X7804000Y11198499D01*
X7804003D01*
X7451298Y10845800D02*
X7451301D01*
X3912200Y12115500D02*
X3949700D01*
X3879998Y12083298D02*
X3912200Y12115500D01*
D14*
X4660900Y12059003D02*
X4830499Y12228601D01*
X4857999D01*
X4152900Y11633200D02*
X7620000D01*
X7962900Y11290300D01*
Y11065099D02*
Y11290300D01*
X7950200Y11052399D02*
X7962900Y11065099D01*
X3619398Y11099698D02*
X4152900Y11633200D01*
X2921000Y11449700D02*
Y11607800D01*
X2887198Y11415898D02*
X2921000Y11449700D01*
X2825513Y11415898D02*
X2887198D01*
X2732900Y11192311D02*
Y11323285D01*
Y11192311D02*
X2825513Y11099698D01*
X3619398D01*
X2732900Y11323285D02*
X2825513Y11415898D01*
X4851400Y12365198D02*
X4857999Y12358599D01*
X4851400Y12365198D02*
Y12496800D01*
X4267088Y12410897D02*
X4302191Y12446000D01*
X4267088Y11899788D02*
Y12410897D01*
X2921000Y11257798D02*
X3625098D01*
X4267088Y11899788D01*
X4666800Y12378210D02*
X4751410Y12293600D01*
X4857999D01*
X4562409Y12413312D02*
Y12446000D01*
Y12413312D02*
X4597512Y12378210D01*
X4666800D01*
X3763899Y9744898D02*
X7065198D01*
X7597399Y10277099D02*
Y10699699D01*
X7065198Y9744898D02*
X7597399Y10277099D01*
D15*
Y10699699D02*
D03*
D16*
X7451298Y10845800D02*
D03*
Y11052399D02*
D03*
X7804003Y11198499D02*
D03*
X7950200Y11052399D02*
D03*
Y10845800D02*
D03*
D17*
X5422900Y10960100D02*
D03*
D18*
X8128000Y12344400D02*
D03*
X8115300Y9550400D02*
D03*
D19*
X3763899Y9744898D02*
D03*
D20*
Y10244902D02*
D03*
X2763901Y9994900D02*
D03*
D21*
X3263900D02*
D03*
D22*
X8356600Y10109200D02*
D03*
X8369300Y11823700D02*
D03*
D23*
X2921000Y12433300D02*
D03*
Y12083298D02*
D03*
Y11607800D02*
D03*
Y11257798D02*
D03*
D24*
X4660900Y12059003D02*
D03*
X4851400Y12496800D02*
D03*
%TF.MD5,58968fa70f5b0c0048cf24f78499c49d*%
M02*
