M48
;Layer_Color=9474304
;FILE_FORMAT=4:4
METRIC,LZ
;TYPE=PLATED
T01F00S00C0.6500
T02F00S00C0.7620
T03F00S00C1.2000
T04F00S00C1.3000
T05F00S00C2.2000
T06F00S00C3.2000
T07F00S00C9.0000
;TYPE=NON_PLATED
T08F00S00C4.0000
%
T01
X0075974Y0106997
X0074513Y0108458
Y0110524
X007804Y0111985
X0079502Y0110524
Y0108458
T02
X0046609Y012059
X0048514Y0124968
T03
X002921Y0112578
Y0116078
Y0120833
Y0124333
T04
X0027639Y0099949
X0037639Y0097449
Y0102449
T05
X0083566Y0101092
X0083693Y0118237
T06
X0081153Y0095504
X008128Y0123444
T07
X0054229Y0109601
T08
X0032639Y0099949
M30
